<?xml version="1.0" encoding="UTF-8"?>
<svg width="867px" height="286px" viewBox="0 0 867 286" version="1.1" xmlns="http://www.w3.org/2000/svg" xmlns:xlink="http://www.w3.org/1999/xlink">
    <title>joint activities</title>
    <g id="joint-activities" stroke="none" stroke-width="1" fill="none" fill-rule="evenodd">
        <g id="Group" transform="translate(-1.000000, 0.000000)">
            <path d="M347.45886,61.99495 L347.45886,61.99495 C347.45886,55.825486 352.460203,50.824128 358.629667,50.824128 L679.248667,50.824128 C682.211375,50.824128 685.052683,52.0010537 687.147654,54.0959938 C689.242564,56.1909188 690.419505,59.0322731 690.419505,61.9949501 L690.419505,106.67691 C690.419505,112.846405 685.418162,117.847747 679.248668,117.847747 L358.629668,117.847747 L358.629668,117.847747 C352.460204,117.847747 347.45886,112.846404 347.45886,106.67691 L347.45886,61.99495 Z" id="Path" fill="#EFEFEF"></path>
            <path d="M387.4828,76.42406 L387.4828,86.892825 C387.4828,88.736575 386.925508,90.1844917 385.810925,91.236575 C384.696342,92.2886583 383.165092,92.8147 381.217175,92.8147 C379.269258,92.8147 377.76405,92.28345 376.70155,91.22095 C375.63905,90.15845 375.1078,88.7001167 375.1078,86.84595 L375.1078,76.42406 L376.9828,76.42406 L376.9828,86.97095 C376.9828,88.3251167 377.352592,89.3667833 378.092175,90.09595 C378.831758,90.8147 379.915092,91.174075 381.342175,91.174075 C382.706758,91.174075 383.758842,90.8094917 384.498425,90.080325 C385.238008,89.3511583 385.6078,88.3094917 385.6078,86.955325 L385.6078,76.42406 L387.4828,76.42406 L387.4828,76.42406 Z M402.52406,92.59595 L400.39906,92.59595 L396.039685,85.486575 L391.61781,92.59595 L389.633435,92.59595 L395.008435,84.142825 L389.99281,76.4240597 L392.070935,76.4240597 L396.08656,82.830325 L400.133435,76.4240597 L402.133435,76.4240597 L397.133435,84.080325 L402.52406,92.59595 Z M412.610394,85.8772 L412.610394,92.5959503 L410.719769,92.5959503 L410.719769,76.42406 L415.157269,76.42406 C417.146852,76.42406 418.615602,76.8042683 419.563519,77.564685 C420.511436,78.3251017 420.985394,79.4657267 420.985394,80.98656 C420.985394,83.1324035 419.896852,84.5803253 417.719769,85.3303253 L422.126019,92.5959503 L419.891644,92.5959503 L415.985394,85.8772003 L412.610394,85.8772003 L412.610394,85.8772 Z M412.610394,84.2522 L415.188519,84.2522 C416.511436,84.2522 417.480186,83.9917833 418.094769,83.47095 C418.719769,82.9397 419.032269,82.1480333 419.032269,81.09595 C419.032269,80.0230231 418.714561,79.2521847 418.079144,78.7834347 C417.454144,78.304268 416.443727,78.0646847 415.047894,78.0646847 L412.610394,78.0646847 L412.610394,84.2522 Z M429.568799,92.8147 C427.777132,92.8147 426.360466,92.2730333 425.318799,91.1897 C424.287549,90.09595 423.771924,88.5751167 423.771924,86.6272 C423.771924,84.6792833 424.251091,83.1324083 425.209424,81.986575 C426.178174,80.8303148 427.475049,80.2521847 429.100049,80.2521847 C430.620882,80.2521847 431.824007,80.7521847 432.709424,81.7522 C433.594841,82.7522 434.037549,84.0699083 434.037549,85.705325 L434.037549,86.861575 L425.678174,86.861575 C425.719841,88.2886583 426.079216,89.3719917 426.756299,90.111575 C427.443799,90.8407417 428.407341,91.205325 429.646924,91.205325 C430.949007,91.205325 432.235466,90.9344917 433.506299,90.392825 L433.506299,92.03345 C432.860466,92.3147 432.245882,92.5126167 431.662549,92.6272 C431.089632,92.7522 430.391716,92.8147 429.568799,92.8147 Z M429.084424,81.78345 C428.105257,81.78345 427.324007,82.1011583 426.740674,82.736575 C426.167757,83.3719917 425.829216,84.2522 425.725049,85.3772 L432.068799,85.3772 C432.068799,84.22095 431.808382,83.3355333 431.287549,82.72095 C430.777132,82.09595 430.042757,81.78345 429.084424,81.78345 Z M444.982862,89.28345 C444.982862,90.4188667 444.560987,91.2938667 443.717237,91.90845 C442.883903,92.5126167 441.70682,92.8147 440.185987,92.8147 C438.58182,92.8147 437.326612,92.5594917 436.420362,92.049075 L436.420362,90.34595 C437.003695,90.6480333 437.628695,90.8824083 438.295362,91.049075 C438.962028,91.2157417 439.607862,91.299075 440.232862,91.299075 C441.191195,91.299075 441.92557,91.1480333 442.435987,90.84595 C442.95682,90.53345 443.217237,90.0647 443.217237,89.4397 C443.217237,88.97095 443.008903,88.5699083 442.592237,88.236575 C442.185987,87.892825 441.389112,87.4969917 440.201612,87.049075 C439.076612,86.6219917 438.274528,86.2522 437.795362,85.9397 C437.326612,85.6272 436.972445,85.2730333 436.732862,84.8772 C436.503695,84.4813667 436.389112,84.0022 436.389112,83.4397 C436.389112,82.4605333 436.790153,81.6844917 437.592237,81.111575 C438.39432,80.5386482 439.498487,80.2521847 440.904737,80.2521847 C442.20682,80.2521847 443.482862,80.5178148 444.732862,81.049075 L444.076612,82.53345 C442.857862,82.03345 441.753695,81.78345 440.764112,81.78345 C439.899528,81.78345 439.243278,81.924075 438.795362,82.205325 C438.357862,82.4761583 438.139112,82.8511583 438.139112,83.330325 C438.139112,83.6532417 438.222445,83.9292833 438.389112,84.15845 C438.555778,84.3876167 438.821403,84.6063667 439.185987,84.8147 C439.560987,85.0126167 440.26932,85.3094917 441.310987,85.705325 C442.748487,86.2261583 443.717237,86.7522 444.217237,87.28345 C444.727653,87.8147 444.982862,88.4813667 444.982862,89.28345 Z M453.087934,92.8147 C451.296267,92.8147 449.8796,92.2730333 448.837934,91.1897 C447.806684,90.09595 447.291059,88.5751167 447.291059,86.6272 C447.291059,84.6792833 447.770225,83.1324083 448.728559,81.986575 C449.697309,80.8303148 450.994184,80.2521847 452.619184,80.2521847 C454.140017,80.2521847 455.343142,80.7521847 456.228559,81.7522 C457.113975,82.7522 457.556684,84.0699083 457.556684,85.705325 L457.556684,86.861575 L449.197309,86.861575 C449.238975,88.2886583 449.59835,89.3719917 450.275434,90.111575 C450.962934,90.8407417 451.926475,91.205325 453.166059,91.205325 C454.468142,91.205325 455.7546,90.9344917 457.025434,90.392825 L457.025434,92.03345 C456.3796,92.3147 455.765017,92.5126167 455.181684,92.6272 C454.608767,92.7522 453.91085,92.8147 453.087934,92.8147 Z M452.603559,81.78345 C451.624392,81.78345 450.843142,82.1011583 450.259809,82.736575 C449.686892,83.3719917 449.34835,84.2522 449.244184,85.3772 L455.587934,85.3772 C455.587934,84.22095 455.327517,83.3355333 454.806684,82.72095 C454.296267,82.09595 453.561892,81.78345 452.603559,81.78345 Z M468.142652,92.59595 L467.767652,90.8772 L467.689527,90.8772 C467.08536,91.6272 466.481193,92.1376167 465.877027,92.40845 C465.27286,92.6792833 464.52285,92.8147 463.626996,92.8147 C462.429079,92.8147 461.486371,92.5074083 460.798871,91.892825 C460.121788,91.267825 459.783246,90.3824083 459.783246,89.236575 C459.783246,86.7886583 461.74159,85.5074083 465.658277,85.392825 L467.705152,85.330325 L467.705152,84.580325 C467.705152,83.6219917 467.502027,82.9188667 467.095777,82.47095 C466.689527,82.0126167 466.033277,81.78345 465.127027,81.78345 C464.11659,81.78345 462.975954,82.09595 461.705121,82.72095 L461.142621,81.3147 C461.736371,80.9917732 462.387413,80.7365597 463.095746,80.5490597 C463.814516,80.3615597 464.528068,80.2678097 465.236402,80.2678097 C466.684318,80.2678097 467.757235,80.5907315 468.455152,81.236575 C469.153068,81.8719917 469.502027,82.8980333 469.502027,84.3147 L469.502027,92.59595 L468.142652,92.59595 Z M463.986371,91.299075 C465.132225,91.299075 466.028068,90.986575 466.673902,90.361575 C467.330152,89.736575 467.658277,88.8563667 467.658277,87.72095 L467.658277,86.6272 L465.830152,86.705325 C464.371798,86.7574083 463.319704,86.986575 462.673871,87.392825 C462.028038,87.7886583 461.705121,88.4136583 461.705121,89.267825 C461.705121,89.9344917 461.903038,90.4397 462.298871,90.78345 C462.705121,91.1272 463.267621,91.299075 463.986371,91.299075 Z M478.821057,80.252185 C479.352307,80.252185 479.831474,80.2938517 480.258557,80.377185 L480.008557,82.0803253 C479.508557,81.9761586 479.065849,81.9240753 478.680432,81.9240753 C477.701265,81.9240753 476.862724,82.325117 476.164807,83.1272003 C475.46689,83.918867 475.117932,84.9084503 475.117932,86.0959503 L475.117932,92.5959503 L473.289807,92.5959503 L473.289807,80.4709353 L474.805432,80.4709353 L475.008557,82.7209506 L475.102307,82.7209506 C475.550224,81.9292839 476.09189,81.3199038 476.727307,80.8928103 C477.362724,80.465727 478.06064,80.252185 478.821057,80.252185 L478.821057,80.252185 Z M487.381909,92.8147 C485.621492,92.8147 484.256909,92.2782417 483.288159,91.205325 C482.329826,90.1219917 481.850659,88.5907417 481.850659,86.611575 C481.850659,84.580325 482.340242,83.0126167 483.319409,81.90845 C484.298576,80.8042731 485.694409,80.2521847 487.506909,80.2521847 C488.079826,80.2521847 488.657951,80.3146847 489.241284,80.4396847 C489.824617,80.5646847 490.282951,80.710518 490.616284,80.8771847 L490.053784,82.4397 C489.647534,82.2730333 489.204826,82.1376167 488.725659,82.03345 C488.246492,81.9292833 487.824617,81.8772 487.460034,81.8772 C484.991284,81.8772 483.756909,83.4501167 483.756909,86.59595 C483.756909,88.0855333 484.058992,89.2261583 484.663159,90.017825 C485.267326,90.8094917 486.157951,91.205325 487.335034,91.205325 C488.345451,91.205325 489.381909,90.9917833 490.444409,90.5647 L490.444409,92.1897 C489.631909,92.6063667 488.611076,92.8147 487.381909,92.8147 Z M501.621106,92.5959503 L501.621106,84.7522 C501.621106,83.7626167 501.391939,83.0282417 500.933606,82.549075 C500.485689,82.0594917 499.782564,81.8147 498.824231,81.8147 C497.553398,81.8147 496.621106,82.1636583 496.027356,82.861575 C495.444023,83.549075 495.152356,84.6792833 495.152356,86.2522 L495.152356,92.5959503 L493.324231,92.5959503 L493.324231,75.377185 L495.152356,75.377185 L495.152356,80.595935 C495.152356,81.2209452 495.121106,81.7417836 495.058606,82.1584503 L495.183606,82.1584503 C495.537773,81.575117 496.048189,81.1167785 496.714856,80.783435 C497.381523,80.439685 498.147148,80.26781 499.011731,80.26781 C500.490898,80.26781 501.600273,80.6219818 502.339856,81.3303253 C503.079439,82.0386586 503.449231,83.1584503 503.449231,84.6897003 L503.449231,92.5959503 L501.621106,92.5959503 L501.621106,92.5959503 Z M515.740247,79.64281 C515.740247,80.1532267 515.870455,80.6376068 516.130872,81.0959503 C516.401705,81.5542836 516.860039,82.1115753 517.505872,82.7678253 C518.453789,82.2053253 519.115247,81.6949086 519.490247,81.2365753 C519.865247,80.7678151 520.052747,80.2261434 520.052747,79.61156 C520.052747,79.0386433 519.860039,78.5751017 519.474622,78.220935 C519.099622,77.8667683 518.594414,77.689685 517.958997,77.689685 C517.302747,77.689685 516.766289,77.8667683 516.349622,78.220935 C515.943372,78.5751017 515.740247,79.04906 515.740247,79.64281 Z M517.458997,91.174075 C519.22983,91.174075 520.703789,90.6063667 521.880872,89.47095 L517.052747,84.767825 C516.22983,85.2782417 515.646497,85.7001167 515.302747,86.03345 C514.969414,86.3563667 514.719414,86.705325 514.552747,87.080325 C514.396497,87.455325 514.318372,87.8824083 514.318372,88.361575 C514.318372,89.2261583 514.60483,89.9136583 515.177747,90.424075 C515.750664,90.924075 516.51108,91.174075 517.458997,91.174075 Z M512.412122,88.40845 C512.412122,87.4501167 512.66733,86.6011583 513.177747,85.861575 C513.688164,85.1219917 514.610039,84.3772 515.943372,83.6272 C515.318372,82.9292833 514.891289,82.3980333 514.662122,82.03345 C514.432955,81.6688667 514.250664,81.2938616 514.115247,80.9084347 C513.990247,80.5126014 513.927747,80.1063514 513.927747,79.6896847 C513.927747,78.585518 514.287122,77.726143 515.005872,77.1115597 C515.735039,76.4865597 516.745455,76.1740597 518.037122,76.1740597 C519.224622,76.1740597 520.162122,76.4813514 520.849622,77.0959347 C521.537122,77.710518 521.880872,78.5646847 521.880872,79.6584347 C521.880872,80.4501014 521.630872,81.1792731 521.130872,81.84595 C520.630872,82.5126167 519.802747,83.1897 518.646497,83.8772 L523.146497,88.205325 C523.552747,87.7469917 523.880872,87.2105333 524.130872,86.59595 C524.380872,85.9813667 524.589205,85.3094917 524.755872,84.580325 L526.615247,84.580325 C526.115247,86.6844917 525.360039,88.28345 524.349622,89.3772 L527.662122,92.59595 L525.130872,92.59595 L523.083997,90.6272 C522.208997,91.40845 521.318372,91.97095 520.412122,92.3147 C519.516289,92.6480333 518.516289,92.8147 517.412122,92.8147 C515.828789,92.8147 514.599622,92.424075 513.724622,91.642825 C512.849622,90.861575 512.412122,89.78345 512.412122,88.40845 Z M548.023572,76.42406 L548.023572,86.892825 C548.023572,88.736575 547.46628,90.1844917 546.351697,91.236575 C545.237114,92.2886583 543.705864,92.8147 541.757947,92.8147 C539.81003,92.8147 538.304822,92.28345 537.242322,91.22095 C536.179822,90.15845 535.648572,88.7001167 535.648572,86.84595 L535.648572,76.42406 L537.523572,76.42406 L537.523572,86.97095 C537.523572,88.3251167 537.893364,89.3667833 538.632947,90.09595 C539.37253,90.8147 540.455864,91.174075 541.882947,91.174075 C543.24753,91.174075 544.299614,90.8094917 545.039197,90.080325 C545.77878,89.3511583 546.148572,88.3094917 546.148572,86.955325 L546.148572,76.42406 L548.023572,76.42406 Z M559.846082,89.28345 C559.846082,90.4188667 559.424207,91.2938667 558.580457,91.90845 C557.747124,92.5126167 556.57004,92.8147 555.049207,92.8147 C553.44504,92.8147 552.189832,92.5594917 551.283582,92.049075 L551.283582,90.34595 C551.866915,90.6480333 552.491915,90.8824083 553.158582,91.049075 C553.825249,91.2157417 554.471082,91.299075 555.096082,91.299075 C556.054415,91.299075 556.78879,91.1480333 557.299207,90.84595 C557.82004,90.53345 558.080457,90.0647 558.080457,89.4397 C558.080457,88.97095 557.872124,88.5699083 557.455457,88.236575 C557.049207,87.892825 556.252332,87.4969917 555.064832,87.049075 C553.939832,86.6219917 553.137749,86.2522 552.658582,85.9397 C552.189832,85.6272 551.835665,85.2730333 551.596082,84.8772 C551.366915,84.4813667 551.252332,84.0022 551.252332,83.4397 C551.252332,82.4605333 551.653374,81.6844917 552.455457,81.111575 C553.25754,80.5386482 554.361707,80.2521847 555.767957,80.2521847 C557.07004,80.2521847 558.346082,80.5178148 559.596082,81.049075 L558.939832,82.53345 C557.721082,82.03345 556.616915,81.78345 555.627332,81.78345 C554.762749,81.78345 554.106499,81.924075 553.658582,82.205325 C553.221082,82.4761583 553.002332,82.8511583 553.002332,83.330325 C553.002332,83.6532417 553.085665,83.9292833 553.252332,84.15845 C553.418999,84.3876167 553.684624,84.6063667 554.049207,84.8147 C554.424207,85.0126167 555.13254,85.3094917 556.174207,85.705325 C557.611707,86.2261583 558.580457,86.7522 559.080457,87.28345 C559.590874,87.8147 559.846082,88.4813667 559.846082,89.28345 Z M567.951124,92.8147 C566.159457,92.8147 564.74279,92.2730333 563.701124,91.1897 C562.669874,90.09595 562.154249,88.5751167 562.154249,86.6272 C562.154249,84.6792833 562.633415,83.1324083 563.591749,81.986575 C564.560499,80.8303148 565.857374,80.2521847 567.482374,80.2521847 C569.003207,80.2521847 570.206332,80.7521847 571.091749,81.7522 C571.977165,82.7522 572.419874,84.0699083 572.419874,85.705325 L572.419874,86.861575 L564.060499,86.861575 C564.102165,88.2886583 564.46154,89.3719917 565.138624,90.111575 C565.826124,90.8407417 566.789665,91.205325 568.029249,91.205325 C569.331332,91.205325 570.61779,90.9344917 571.888624,90.392825 L571.888624,92.03345 C571.24279,92.3147 570.628207,92.5126167 570.044874,92.6272 C569.471957,92.7522 568.77404,92.8147 567.951124,92.8147 Z M567.466749,81.78345 C566.487582,81.78345 565.706332,82.1011583 565.122999,82.736575 C564.550082,83.3719917 564.21154,84.2522 564.107374,85.3772 L570.451124,85.3772 C570.451124,84.22095 570.190707,83.3355333 569.669874,82.72095 C569.159457,82.09595 568.425082,81.78345 567.466749,81.78345 Z M581.083936,80.2521847 C581.615186,80.2521847 582.094353,80.2938514 582.521436,80.3771847 L582.271436,82.080325 C581.771436,81.9761583 581.328728,81.924075 580.943311,81.924075 C579.964144,81.924075 579.125603,82.3251167 578.427686,83.1272 C577.729769,83.9188667 577.380811,84.90845 577.380811,86.09595 L577.380811,92.59595 L575.552686,92.59595 L575.552686,80.470935 L577.068311,80.470935 L577.271436,82.7209503 L577.365186,82.7209503 C577.813103,81.9292836 578.354769,81.3199035 578.990186,80.89281 C579.625603,80.4657267 580.323519,80.2521847 581.083936,80.2521847 L581.083936,80.2521847 Z M595.936353,92.5959497 L594.061353,92.5959497 L594.061353,78.0959347 L588.936353,78.0959347 L588.936353,76.4240597 L601.061353,76.4240597 L601.061353,78.0959347 L595.936353,78.0959347 L595.936353,92.5959497 Z M608.329664,92.8146997 C606.538038,92.8146997 605.121392,92.273033 604.079725,91.1896997 C603.048475,90.0959497 602.53285,88.5751164 602.53285,86.6271997 C602.53285,84.679283 603.012017,83.132408 603.97035,81.9865747 C604.9391,80.8303145 606.235955,80.2521844 607.860914,80.2521844 C609.381747,80.2521844 610.584872,80.7521844 611.470289,81.7521997 C612.355706,82.7521997 612.798414,84.069908 612.798414,85.7053247 L612.798414,86.8615747 L604.4391,86.8615747 C604.480767,88.288658 604.840142,89.3719914 605.517225,90.1115747 C606.204725,90.8407414 607.168246,91.2053247 608.407789,91.2053247 C609.709872,91.2053247 610.996331,90.9344914 612.267164,90.3928247 L612.267164,92.0334497 C611.621331,92.3146997 611.006747,92.5126164 610.423414,92.6271997 C609.850497,92.7521997 609.152581,92.8146997 608.329664,92.8146997 Z M607.845289,81.7834497 C606.866163,81.7834497 606.084933,82.101158 605.5016,82.7365747 C604.928683,83.3719914 604.590142,84.2521997 604.485975,85.3771997 L610.829664,85.3771997 C610.829664,84.2209497 610.569247,83.335533 610.048414,82.7209497 C609.537997,82.0959497 608.803622,81.7834497 607.845289,81.7834497 Z M623.743788,89.2834497 C623.743788,90.4188664 623.321913,91.2938664 622.478163,91.9084497 C621.64483,92.5126164 620.467746,92.8146997 618.946913,92.8146997 C617.342746,92.8146997 616.087538,92.5594914 615.181288,92.0490747 L615.181288,90.3459497 C615.764621,90.648033 616.389621,90.882408 617.056288,91.0490747 C617.722955,91.2157414 618.368788,91.2990747 618.993788,91.2990747 C619.952121,91.2990747 620.686496,91.148033 621.196913,90.8459497 C621.717746,90.5334497 621.978163,90.0646997 621.978163,89.4396997 C621.978163,88.9709497 621.76983,88.569908 621.353163,88.2365747 C620.946913,87.8928247 620.150038,87.4969914 618.962538,87.0490747 C617.837538,86.6219914 617.035455,86.2521997 616.556288,85.9396997 C616.087538,85.6271997 615.733371,85.273033 615.493788,84.8771997 C615.264621,84.4813664 615.150038,84.0021997 615.150038,83.4396997 C615.150038,82.460533 615.55108,81.6844914 616.353163,81.1115747 C617.155246,80.5386479 618.259413,80.2521844 619.665663,80.2521844 C620.967746,80.2521844 622.243788,80.5178145 623.493788,81.0490747 L622.837538,82.5334497 C621.618788,82.0334497 620.514621,81.7834497 619.525038,81.7834497 C618.660455,81.7834497 618.004205,81.9240747 617.556288,82.2053247 C617.118788,82.476158 616.900038,82.851158 616.900038,83.3303247 C616.900038,83.6532414 616.983371,83.929283 617.150038,84.1584497 C617.316705,84.3876164 617.58233,84.6063664 617.946913,84.8146997 C618.321913,85.0126164 619.030246,85.3094914 620.071913,85.7053247 C621.509413,86.226158 622.478163,86.7521997 622.978163,87.2834497 C623.48858,87.8146997 623.743788,88.4813664 623.743788,89.2834497 Z M630.645705,91.2990747 C630.968621,91.2990747 631.281121,91.2782414 631.583205,91.2365747 C631.885288,91.1844914 632.124871,91.132408 632.301955,91.0803247 L632.301955,92.4865747 C632.104038,92.5803247 631.812371,92.6584497 631.426955,92.7209497 C631.041538,92.7834497 630.69258,92.8146997 630.38008,92.8146997 C628.03633,92.8146997 626.864455,91.5803247 626.864455,89.1115747 L626.864455,81.8928247 L625.13008,81.8928247 L625.13008,81.0178247 L626.864455,80.2521844 L627.645705,77.6584344 L628.708205,77.6584344 L628.708205,80.4709344 L632.22383,80.4709344 L632.22383,81.8928247 L628.708205,81.8928247 L628.708205,89.0334497 C628.708205,89.7626164 628.88008,90.3251164 629.22383,90.7209497 C629.56758,91.1063664 630.041538,91.2990747 630.645705,91.2990747 L630.645705,91.2990747 Z M636.565871,92.5959497 L634.737746,92.5959497 L634.737746,80.4709347 L636.565871,80.4709347 L636.565871,92.5959497 Z M634.581496,77.1896847 C634.581496,76.7626014 634.680454,76.4553097 634.878371,76.2678097 C635.086704,76.069893 635.347121,75.9709347 635.659621,75.9709347 C635.951287,75.9709347 636.201287,76.069893 636.409621,76.2678097 C636.628371,76.4657264 636.737746,76.773018 636.737746,77.1896847 C636.737746,77.5959347 636.628371,77.9032264 636.409621,78.1115597 C636.201287,78.3094764 635.951287,78.4084347 635.659621,78.4084347 C635.347121,78.4084347 635.086704,78.3094764 634.878371,78.1115597 C634.680454,77.9032264 634.581496,77.5959347 634.581496,77.1896847 Z M648.765029,92.59595 L648.765029,84.7521997 C648.765029,83.7626164 648.535862,83.0282414 648.077529,82.5490747 C647.629612,82.0594914 646.926487,81.8146997 645.968154,81.8146997 C644.69732,81.8146997 643.765029,82.1584497 643.171279,82.8459497 C642.587945,83.523033 642.296279,84.6532414 642.296279,86.2365747 L642.296279,92.59595 L640.468154,92.59595 L640.468154,80.4709347 L641.952529,80.4709347 L642.249404,82.1272 L642.343154,82.1272 C642.718154,81.53345 643.244195,81.0751116 643.921279,80.7521847 C644.598362,80.4188514 645.35357,80.2521847 646.186904,80.2521847 C647.655654,80.2521847 648.754612,80.6063565 649.483779,81.3147 C650.223362,82.0126167 650.593154,83.1376167 650.593154,84.6897 L650.593154,92.59595 L648.765029,92.59595 L648.765029,92.59595 Z M664.295791,80.4709347 L664.295791,81.6272 L662.045791,81.892825 C662.254124,82.1532417 662.436416,82.4917833 662.592666,82.90845 C662.759332,83.3251167 662.842666,83.7938667 662.842666,84.3147 C662.842666,85.5022 662.436416,86.4501167 661.623916,87.15845 C660.811416,87.8667833 659.696832,88.22095 658.280166,88.22095 C657.925999,88.22095 657.587457,88.1949083 657.264541,88.142825 C656.483291,88.549075 656.092666,89.0699083 656.092666,89.705325 C656.092666,90.0282417 656.228082,90.2730333 656.498916,90.4397 C656.769749,90.59595 657.238499,90.674075 657.905166,90.674075 L660.061416,90.674075 C661.373916,90.674075 662.379124,90.9501167 663.077041,91.5022 C663.785374,92.0542833 664.139541,92.8563667 664.139541,93.90845 C664.139541,95.2522 663.597874,96.2730333 662.514541,96.97095 C661.441624,97.6792833 659.873916,98.03345 657.811416,98.03345 C656.228082,98.03345 655.004124,97.736575 654.139541,97.142825 C653.285374,96.5594917 652.858291,95.7313667 652.858291,94.65845 C652.858291,93.9188667 653.092666,93.2782417 653.561416,92.736575 C654.030166,92.205325 654.691624,91.8407417 655.545791,91.642825 C655.243707,91.5074083 654.983291,91.2938667 654.764541,91.0022 C654.556207,90.7001167 654.452041,90.3511583 654.452041,89.955325 C654.452041,89.517825 654.571832,89.1324083 654.811416,88.799075 C655.050999,88.4657417 655.420791,88.1480333 655.920791,87.84595 C655.295791,87.5855333 654.785374,87.1480333 654.389541,86.53345 C654.004124,85.90845 653.811416,85.1949083 653.811416,84.392825 C653.811416,83.0699083 654.207249,82.049075 654.998916,81.330325 C655.790582,80.6115648 656.920791,80.2521847 658.389541,80.2521847 C659.024957,80.2521847 659.592666,80.3251014 660.092666,80.4709347 L664.295791,80.4709347 Z M654.623916,94.6271997 C654.623916,95.2834497 654.899957,95.7782414 655.452041,96.1115747 C656.004124,96.4553247 656.795791,96.6271997 657.827041,96.6271997 C659.368707,96.6271997 660.509332,96.398033 661.248916,95.9396997 C661.988499,95.4813664 662.358291,94.8563664 662.358291,94.0646997 C662.358291,93.4084497 662.155166,92.9501164 661.748916,92.6896997 C661.353082,92.4396997 660.592666,92.3146997 659.467666,92.3146997 L657.264541,92.3146997 C656.431207,92.3146997 655.780166,92.5126164 655.311416,92.9084497 C654.853082,93.3146997 654.623916,93.8876164 654.623916,94.6271997 Z M655.623916,84.3615747 C655.623916,85.2053247 655.863499,85.8459497 656.342666,86.2834497 C656.821832,86.710533 657.488499,86.9240747 658.342666,86.9240747 C660.134332,86.9240747 661.030166,86.054283 661.030166,84.3146997 C661.030166,82.5021997 660.123916,81.5959497 658.311416,81.5959497 C657.446832,81.5959497 656.780166,81.8303247 656.311416,82.2990747 C655.853082,82.757408 655.623916,83.444908 655.623916,84.3615747 Z" id="Shape" fill="#000000" fill-rule="nonzero"></path>
            <path d="M524.3269,145.86707 L524.3269,145.86707 C524.3269,139.697606 529.328243,134.696233 535.497737,134.696233 L679.266287,134.696233 C682.228994,134.696233 685.070303,135.873174 687.165274,137.968114 C689.260184,140.063054 690.437125,142.904393 690.437125,145.86707 L690.437125,190.549046 C690.437125,196.71851 685.435782,201.719883 679.266288,201.719883 L535.497738,201.719883 L535.497738,201.719883 C529.328243,201.719883 524.3269,196.71851 524.3269,190.549046 L524.3269,145.86707 Z" id="Path" fill="#EFEFEF"></path>
            <path d="M583.23254,165.01492 C583.23254,166.650337 582.67004,167.910753 581.54504,168.79617 C580.430457,169.67117 578.831498,170.10867 576.748165,170.10867 L574.85754,170.10867 L574.85754,176.468045 L572.966915,176.468045 L572.966915,160.29617 L577.17004,160.29617 C581.211707,160.29617 583.23254,161.869087 583.23254,165.01492 Z M574.85754,168.499295 L576.54504,168.499295 C578.211707,168.499295 579.414832,168.228462 580.154415,167.686795 C580.904415,167.145128 581.279415,166.280545 581.279415,165.093045 C581.279415,164.030545 580.930457,163.238878 580.23254,162.718045 C579.534623,162.186795 578.440873,161.92117 576.95129,161.92117 L574.85754,161.92117 L574.85754,168.499295 Z M593.794613,176.468045 L593.419613,174.749295 L593.341488,174.749295 C592.737321,175.499295 592.133155,176.009712 591.528988,176.280545 C590.924821,176.551378 590.174821,176.686795 589.278988,176.686795 C588.081071,176.686795 587.138363,176.379503 586.450863,175.76492 C585.77378,175.13992 585.435238,174.254503 585.435238,173.10867 C585.435238,170.660753 587.393571,169.379503 591.310238,169.26492 L593.357113,169.20242 L593.357113,168.45242 C593.357113,167.494087 593.153988,166.790962 592.747738,166.343045 C592.341488,165.884712 591.685238,165.655545 590.778988,165.655545 C589.768571,165.655545 588.627946,165.968045 587.357113,166.593045 L586.794613,165.186795 C587.388363,164.863878 588.039405,164.60867 588.747738,164.42117 C589.466488,164.23367 590.18003,164.13992 590.888363,164.13992 C592.33628,164.13992 593.409196,164.462837 594.107113,165.10867 C594.80503,165.744087 595.153988,166.770128 595.153988,168.186795 L595.153988,176.468045 L593.794613,176.468045 Z M589.638363,175.17117 C590.784196,175.17117 591.68003,174.85867 592.325863,174.23367 C592.982113,173.60867 593.310238,172.728462 593.310238,171.593045 L593.310238,170.499295 L591.482113,170.57742 C590.02378,170.629503 588.971696,170.85867 588.325863,171.26492 C587.68003,171.660753 587.357113,172.285753 587.357113,173.13992 C587.357113,173.806587 587.55503,174.311795 587.950863,174.655545 C588.357113,174.999295 588.919613,175.17117 589.638363,175.17117 Z M600.769955,176.468045 L598.94183,176.468045 L598.94183,164.343045 L600.769955,164.343045 L600.769955,176.468045 Z M598.78558,161.061795 C598.78558,160.634712 598.884538,160.32742 599.082455,160.13992 C599.290788,159.942003 599.551205,159.843045 599.863705,159.843045 C600.155372,159.843045 600.405372,159.942003 600.613705,160.13992 C600.832455,160.337837 600.94183,160.645128 600.94183,161.061795 C600.94183,161.468045 600.832455,161.775337 600.613705,161.98367 C600.405372,162.181587 600.155372,162.280545 599.863705,162.280545 C599.551205,162.280545 599.290788,162.181587 599.082455,161.98367 C598.884538,161.775337 598.78558,161.468045 598.78558,161.061795 Z M610.203488,164.124295 C610.734738,164.124295 611.213905,164.165962 611.640988,164.249295 L611.390988,165.95242 C610.890988,165.848253 610.44828,165.79617 610.062863,165.79617 C609.083696,165.79617 608.245155,166.197212 607.547238,166.999295 C606.849321,167.790962 606.500363,168.780545 606.500363,169.968045 L606.500363,176.468045 L604.672238,176.468045 L604.672238,164.343045 L606.187863,164.343045 L606.390988,166.593045 L606.484738,166.593045 C606.932655,165.801378 607.474321,165.192003 608.109738,164.76492 C608.745155,164.337837 609.443071,164.124295 610.203488,164.124295 Z M615.748715,176.468045 L613.92059,176.468045 L613.92059,164.343045 L615.748715,164.343045 L615.748715,176.468045 Z M613.76434,161.061795 C613.76434,160.634712 613.863298,160.32742 614.061215,160.13992 C614.269548,159.942003 614.529965,159.843045 614.842465,159.843045 C615.134132,159.843045 615.384132,159.942003 615.592465,160.13992 C615.811215,160.337837 615.92059,160.645128 615.92059,161.061795 C615.92059,161.468045 615.811215,161.775337 615.592465,161.98367 C615.384132,162.181587 615.134132,162.280545 614.842465,162.280545 C614.529965,162.280545 614.269548,162.181587 614.061215,161.98367 C613.863298,161.775337 613.76434,161.468045 613.76434,161.061795 Z M627.947934,176.468045 L627.947934,168.624295 C627.947934,167.634712 627.718767,166.900337 627.260434,166.42117 C626.812517,165.931587 626.109392,165.686795 625.151059,165.686795 C623.880226,165.686795 622.947934,166.030545 622.354184,166.718045 C621.770851,167.395128 621.479184,168.525337 621.479184,170.10867 L621.479184,176.468045 L619.651059,176.468045 L619.651059,164.343045 L621.135434,164.343045 L621.432309,165.999295 L621.526059,165.999295 C621.901059,165.405545 622.427101,164.947212 623.104184,164.624295 C623.781267,164.290962 624.536476,164.124295 625.369809,164.124295 C626.838559,164.124295 627.937517,164.478462 628.666684,165.186795 C629.406267,165.884712 629.776059,167.009712 629.776059,168.561795 L629.776059,176.468045 L627.947934,176.468045 Z M643.478635,164.343045 L643.478635,165.499295 L641.228635,165.76492 C641.436968,166.025337 641.61926,166.363878 641.77551,166.780545 C641.942177,167.197212 642.02551,167.665962 642.02551,168.186795 C642.02551,169.374295 641.61926,170.322212 640.80676,171.030545 C639.99426,171.738878 638.879677,172.093045 637.46301,172.093045 C637.108843,172.093045 636.770302,172.067003 636.447385,172.01492 C635.666135,172.42117 635.27551,172.942003 635.27551,173.57742 C635.27551,173.900337 635.410927,174.145128 635.68176,174.311795 C635.952593,174.468045 636.421343,174.54617 637.08801,174.54617 L639.24426,174.54617 C640.55676,174.54617 641.561968,174.822212 642.259885,175.374295 C642.968218,175.926378 643.322385,176.728462 643.322385,177.780545 C643.322385,179.124295 642.780718,180.145128 641.697385,180.843045 C640.624468,181.551378 639.05676,181.905545 636.99426,181.905545 C635.410927,181.905545 634.186968,181.60867 633.322385,181.01492 C632.468218,180.431587 632.041135,179.603462 632.041135,178.530545 C632.041135,177.790962 632.27551,177.150337 632.74426,176.60867 C633.21301,176.07742 633.874468,175.712837 634.728635,175.51492 C634.426552,175.379503 634.166135,175.165962 633.947385,174.874295 C633.739052,174.572212 633.634885,174.223253 633.634885,173.82742 C633.634885,173.38992 633.754677,173.004503 633.99426,172.67117 C634.233843,172.337837 634.603635,172.020128 635.103635,171.718045 C634.478635,171.457628 633.968218,171.020128 633.572385,170.405545 C633.186968,169.780545 632.99426,169.067003 632.99426,168.26492 C632.99426,166.942003 633.390093,165.92117 634.18176,165.20242 C634.973427,164.48367 636.103635,164.124295 637.572385,164.124295 C638.207802,164.124295 638.77551,164.197212 639.27551,164.343045 L643.478635,164.343045 Z M633.80676,178.499295 C633.80676,179.155545 634.082802,179.650337 634.634885,179.98367 C635.186968,180.32742 635.978635,180.499295 637.009885,180.499295 C638.551552,180.499295 639.692177,180.270128 640.43176,179.811795 C641.171343,179.353462 641.541135,178.728462 641.541135,177.936795 C641.541135,177.280545 641.33801,176.822212 640.93176,176.561795 C640.535927,176.311795 639.77551,176.186795 638.65051,176.186795 L636.447385,176.186795 C635.614052,176.186795 634.96301,176.384712 634.49426,176.780545 C634.035927,177.186795 633.80676,177.759712 633.80676,178.499295 Z M634.80676,168.23367 C634.80676,169.07742 635.046343,169.718045 635.52551,170.155545 C636.004677,170.582628 636.671343,170.79617 637.52551,170.79617 C639.317177,170.79617 640.21301,169.926378 640.21301,168.186795 C640.21301,166.374295 639.30676,165.468045 637.49426,165.468045 C636.629677,165.468045 635.96301,165.70242 635.49426,166.17117 C635.035927,166.629503 634.80676,167.317003 634.80676,168.23367 Z" id="Shape" fill="#000000" fill-rule="nonzero"></path>
            <path d="M524.3459,229.73657 L524.3459,229.73657 C524.3459,223.567075 529.347243,218.565733 535.516737,218.565733 L679.285287,218.565733 C682.247995,218.565733 685.089303,219.742643 687.184274,221.837584 C689.279184,223.932524 690.456125,226.773863 690.456125,229.736571 L690.456125,274.418517 C690.456125,280.588011 685.454782,285.589354 679.285288,285.589354 L535.516738,285.589354 L535.516738,285.589354 C529.347243,285.589354 524.3459,280.588011 524.3459,274.418517 L524.3459,229.73657 Z" id="Path" fill="#EFEFEF"></path>
            <path d="M544.4837,260.33752 L542.6087,260.33752 L542.6087,245.83752 L537.4837,245.83752 L537.4837,244.165645 L549.6087,244.165645 L549.6087,245.83752 L544.4837,245.83752 L544.4837,260.33752 Z M556.877011,260.55627 C555.085344,260.55627 553.668678,260.014603 552.627011,258.93127 C551.595761,257.83752 551.080136,256.316687 551.080136,254.36877 C551.080136,252.420853 551.559303,250.873978 552.517636,249.728145 C553.486386,248.571895 554.783261,247.99377 556.408261,247.99377 C557.929094,247.99377 559.132219,248.49377 560.017636,249.49377 C560.903053,250.49377 561.345761,251.811478 561.345761,253.446895 L561.345761,254.603145 L552.986386,254.603145 C553.028053,256.030228 553.387428,257.113562 554.064511,257.853145 C554.752011,258.582312 555.715553,258.946895 556.955136,258.946895 C558.257219,258.946895 559.543678,258.676062 560.814511,258.134395 L560.814511,259.77502 C560.168678,260.05627 559.554094,260.254187 558.970761,260.36877 C558.397844,260.49377 557.699928,260.55627 556.877011,260.55627 Z M556.392636,249.52502 C555.413469,249.52502 554.632219,249.842728 554.048886,250.478145 C553.475969,251.113562 553.137428,251.99377 553.033261,253.11877 L559.377011,253.11877 C559.377011,251.96252 559.116594,251.077103 558.595761,250.46252 C558.085344,249.83752 557.350969,249.52502 556.392636,249.52502 Z M571.931699,260.33752 L571.556699,258.61877 L571.478574,258.61877 C570.874407,259.36877 570.27024,259.879187 569.666074,260.15002 C569.061907,260.420853 568.311907,260.55627 567.416074,260.55627 C566.218157,260.55627 565.275449,260.248978 564.587949,259.634395 C563.910865,259.009395 563.572324,258.123978 563.572324,256.978145 C563.572324,254.530228 565.530657,253.248978 569.447324,253.134395 L571.494199,253.071895 L571.494199,252.321895 C571.494199,251.363562 571.291074,250.660437 570.884824,250.21252 C570.478574,249.754187 569.822324,249.52502 568.916074,249.52502 C567.905657,249.52502 566.765032,249.83752 565.494199,250.46252 L564.931699,249.05627 C565.525449,248.733353 566.17649,248.478145 566.884824,248.290645 C567.603574,248.103145 568.317115,248.009395 569.025449,248.009395 C570.473365,248.009395 571.546282,248.332312 572.244199,248.978145 C572.942115,249.613562 573.291074,250.639603 573.291074,252.05627 L573.291074,260.33752 L571.931699,260.33752 Z M567.775449,259.040645 C568.921282,259.040645 569.817115,258.728145 570.462949,258.103145 C571.119199,257.478145 571.447324,256.597937 571.447324,255.46252 L571.447324,254.36877 L569.619199,254.446895 C568.160865,254.498978 567.108782,254.728145 566.462949,255.134395 C565.817115,255.530228 565.494199,256.155228 565.494199,257.009395 C565.494199,257.676062 565.692115,258.18127 566.087949,258.52502 C566.494199,258.86877 567.056699,259.040645 567.775449,259.040645 Z M592.53204,260.33752 L592.53204,252.446895 C592.53204,251.478145 592.323707,250.754187 591.90704,250.27502 C591.490374,249.795853 590.849749,249.55627 589.985165,249.55627 C588.839332,249.55627 587.990374,249.884395 587.43829,250.540645 C586.896624,251.196895 586.62579,252.207312 586.62579,253.571895 L586.62579,260.33752 L584.797665,260.33752 L584.797665,252.446895 C584.797665,251.478145 584.589332,250.754187 584.172665,250.27502 C583.766415,249.795853 583.120582,249.55627 582.235165,249.55627 C581.089332,249.55627 580.245582,249.90002 579.703915,250.58752 C579.172665,251.27502 578.90704,252.405228 578.90704,253.978145 L578.90704,260.33752 L577.078915,260.33752 L577.078915,248.21252 L578.56329,248.21252 L578.860165,249.86877 L578.953915,249.86877 C579.297665,249.285437 579.78204,248.827103 580.40704,248.49377 C581.042457,248.160437 581.75079,247.99377 582.53204,247.99377 C584.427874,247.99377 585.667457,248.68127 586.25079,250.05627 L586.34454,250.05627 C586.709124,249.420853 587.229957,248.920853 587.90704,248.55627 C588.59454,248.18127 589.380999,247.99377 590.266415,247.99377 C591.630999,247.99377 592.651832,248.347937 593.328915,249.05627 C594.016415,249.754187 594.360165,250.879187 594.360165,252.43127 L594.360165,260.33752 L592.53204,260.33752 Z M618.429136,260.33752 L616.569761,260.33752 L613.304136,249.509395 C613.147886,249.030228 612.970802,248.426062 612.772886,247.696895 C612.585386,246.967728 612.491636,246.52502 612.491636,246.36877 C612.324969,247.347937 612.064552,248.415645 611.710386,249.571895 L608.538511,260.33752 L606.694761,260.33752 L602.382261,244.165645 L604.382261,244.165645 L606.929136,254.15002 C607.283302,255.55627 607.543719,256.827103 607.710386,257.96252 C607.908302,256.608353 608.199969,255.285437 608.585386,253.99377 L611.491636,244.165645 L613.476011,244.165645 L616.522886,254.08752 C616.877052,255.233353 617.173927,256.52502 617.413511,257.96252 C617.559344,256.910437 617.824969,255.634395 618.210386,254.134395 L620.757261,244.165645 L622.757261,244.165645 L618.429136,260.33752 Z M630.122617,260.55627 C628.33095,260.55627 626.914283,260.014603 625.872617,258.93127 C624.841367,257.83752 624.325742,256.316687 624.325742,254.36877 C624.325742,252.420853 624.804908,250.873978 625.763242,249.728145 C626.731992,248.571895 628.028867,247.99377 629.653867,247.99377 C631.1747,247.99377 632.377825,248.49377 633.263242,249.49377 C634.148658,250.49377 634.591367,251.811478 634.591367,253.446895 L634.591367,254.603145 L626.231992,254.603145 C626.273658,256.030228 626.633033,257.113562 627.310117,257.853145 C627.997617,258.582312 628.961158,258.946895 630.200742,258.946895 C631.502825,258.946895 632.789283,258.676062 634.060117,258.134395 L634.060117,259.77502 C633.414283,260.05627 632.7997,260.254187 632.216367,260.36877 C631.64345,260.49377 630.945533,260.55627 630.122617,260.55627 Z M629.638242,249.52502 C628.659075,249.52502 627.877825,249.842728 627.294492,250.478145 C626.721575,251.113562 626.383033,251.99377 626.278867,253.11877 L632.622617,253.11877 C632.622617,251.96252 632.3622,251.077103 631.841367,250.46252 C631.33095,249.83752 630.596575,249.52502 629.638242,249.52502 Z M642.833616,260.55627 C641.041949,260.55627 639.625282,260.014603 638.583616,258.93127 C637.552366,257.83752 637.036741,256.316687 637.036741,254.36877 C637.036741,252.420853 637.515907,250.873978 638.474241,249.728145 C639.442991,248.571895 640.739866,247.99377 642.364866,247.99377 C643.885699,247.99377 645.088824,248.49377 645.974241,249.49377 C646.859657,250.49377 647.302366,251.811478 647.302366,253.446895 L647.302366,254.603145 L638.942991,254.603145 C638.984657,256.030228 639.344032,257.113562 640.021116,257.853145 C640.708616,258.582312 641.672157,258.946895 642.911741,258.946895 C644.213824,258.946895 645.500282,258.676062 646.771116,258.134395 L646.771116,259.77502 C646.125282,260.05627 645.510699,260.254187 644.927366,260.36877 C644.354449,260.49377 643.656532,260.55627 642.833616,260.55627 Z M642.349241,249.52502 C641.370074,249.52502 640.588824,249.842728 640.005491,250.478145 C639.432574,251.113562 639.094032,251.99377 638.989866,253.11877 L645.333616,253.11877 C645.333616,251.96252 645.073199,251.077103 644.552366,250.46252 C644.041949,249.83752 643.307574,249.52502 642.349241,249.52502 Z M652.247678,254.134395 C652.560178,253.686478 653.039345,253.097937 653.685178,252.36877 L657.607053,248.21252 L659.794553,248.21252 L654.872678,253.384395 L660.138303,260.33752 L657.903928,260.33752 L653.622678,254.603145 L652.247678,255.80627 L652.247678,260.33752 L650.435178,260.33752 L650.435178,243.11877 L652.247678,243.11877 L652.247678,252.24377 C652.247678,252.65002 652.216428,253.280228 652.153928,254.134395 L652.247678,254.134395 Z M664.155576,260.33752 L662.327451,260.33752 L662.327451,243.11877 L664.155576,243.11877 L664.155576,260.33752 Z M666.12042,248.21252 L668.08917,248.21252 L670.74542,255.134395 C671.328753,256.707312 671.693336,257.842728 671.83917,258.540645 L671.917295,258.540645 C672.021461,258.165645 672.224586,257.52502 672.52667,256.61877 C672.828753,255.702103 673.828753,252.90002 675.52667,248.21252 L677.49542,248.21252 L672.292295,262.02502 C671.771461,263.389603 671.167295,264.353145 670.479795,264.915645 C669.792295,265.488562 668.948545,265.77502 667.948545,265.77502 C667.386045,265.77502 666.828753,265.71252 666.27667,265.58752 L666.27667,264.11877 C666.68292,264.21252 667.136045,264.259395 667.636045,264.259395 C668.896461,264.259395 669.797503,263.551062 670.33917,262.134395 L671.011045,260.40002 L666.12042,248.21252 Z" id="Shape" fill="#000000" fill-rule="nonzero"></path>
            <path d="M0.677166,61.99495 L0.677166,61.99495 C0.677166,55.825486 5.6785164,50.824128 11.847992,50.824128 L155.616582,50.824128 C158.579274,50.824128 161.420613,52.0010537 163.515554,54.0959938 C165.610479,56.1909188 166.787404,59.0322731 166.787404,61.9949501 L166.787404,106.67691 C166.787404,112.846405 161.786061,117.847747 155.616582,117.847747 L11.8479922,117.847747 L11.8479922,117.847747 C5.6785166,117.847747 0.677166,112.846404 0.677166,106.67691 L0.677166,61.99495 Z" id="Path" fill="#EFEFEF"></path>
            <path d="M26.62664,85.8772 L26.62664,92.5959503 L24.736015,92.5959503 L24.736015,76.42406 L29.173515,76.42406 C31.1630983,76.42406 32.6318483,76.8042683 33.579765,77.564685 C34.5276817,78.3251017 35.00164,79.4657267 35.00164,80.98656 C35.00164,83.1324035 33.9130983,84.5803253 31.736015,85.3303253 L36.142265,92.5959503 L33.90789,92.5959503 L30.00164,85.8772003 L26.62664,85.8772003 L26.62664,85.8772 Z M26.62664,84.2522 L29.204765,84.2522 C30.5276817,84.2522 31.4964317,83.9917833 32.111015,83.47095 C32.736015,82.9397 33.048515,82.1480333 33.048515,81.09595 C33.048515,80.0230231 32.7308067,79.2521847 32.09539,78.7834347 C31.47039,78.304268 30.4599733,78.0646847 29.06414,78.0646847 L26.62664,78.0646847 L26.62664,84.2522 Z M43.585045,92.8147 C41.7933783,92.8147 40.3767117,92.2730333 39.335045,91.1897 C38.303795,90.09595 37.78817,88.5751167 37.78817,86.6272 C37.78817,84.6792833 38.2673367,83.1324083 39.22567,81.986575 C40.19442,80.8303148 41.491295,80.2521847 43.116295,80.2521847 C44.6371283,80.2521847 45.8402533,80.7521847 46.72567,81.7522 C47.6110867,82.7522 48.053795,84.0699083 48.053795,85.705325 L48.053795,86.861575 L39.69442,86.861575 C39.7360867,88.2886583 40.0954617,89.3719917 40.772545,90.111575 C41.460045,90.8407417 42.4235867,91.205325 43.66317,91.205325 C44.9652533,91.205325 46.2517117,90.9344917 47.522545,90.392825 L47.522545,92.03345 C46.8767117,92.3147 46.2621283,92.5126167 45.678795,92.6272 C45.1058783,92.7522 44.4079617,92.8147 43.585045,92.8147 Z M43.10067,81.78345 C42.1215033,81.78345 41.3402533,82.1011583 40.75692,82.736575 C40.1840033,83.3719917 39.8454617,84.2522 39.741295,85.3772 L46.085045,85.3772 C46.085045,84.22095 45.8246283,83.3355333 45.303795,82.72095 C44.7933783,82.09595 44.0590033,81.78345 43.10067,81.78345 Z M56.639748,81.892825 L53.561623,81.892825 L53.561623,92.59595 L51.717873,92.59595 L51.717873,81.892825 L49.561623,81.892825 L49.561623,81.0647 L51.717873,80.4084347 L51.717873,79.7365597 C51.717873,76.7573931 53.0199563,75.2678097 55.624123,75.2678097 C56.2699563,75.2678097 57.0251647,75.3928097 57.889748,75.6428097 L57.405373,77.1115597 C56.6970397,76.8928097 56.092873,76.7834347 55.592873,76.7834347 C54.905373,76.7834347 54.3949563,77.0126014 54.061623,77.4709347 C53.7282897,77.9292681 53.561623,78.6688514 53.561623,79.6896847 L53.561623,80.4709347 L56.639748,80.4709347 L56.639748,81.892825 L56.639748,81.892825 Z M61.014748,92.59595 L59.186623,92.59595 L59.186623,80.470935 L61.014748,80.470935 L61.014748,92.59595 Z M59.030373,77.189685 C59.030373,76.7626017 59.1293313,76.45531 59.327248,76.26781 C59.5355813,76.0698933 59.795998,75.970935 60.108498,75.970935 C60.4001647,75.970935 60.6501647,76.0698933 60.858498,76.26781 C61.077248,76.4657267 61.186623,76.7730183 61.186623,77.189685 C61.186623,77.595935 61.077248,77.9032267 60.858498,78.11156 C60.6501647,78.3094767 60.4001647,78.408435 60.108498,78.408435 C59.795998,78.408435 59.5355813,78.3094767 59.327248,78.11156 C59.1293313,77.9032267 59.030373,77.595935 59.030373,77.189685 Z M72.891396,92.5959503 L72.891396,84.7522 C72.891396,83.7626167 72.6622293,83.0282417 72.203896,82.549075 C71.7559793,82.0594917 71.0528543,81.8147 70.094521,81.8147 C68.8236877,81.8147 67.891396,82.15845 67.297646,82.84595 C66.7143127,83.5230333 66.422646,84.6532417 66.422646,86.236575 L66.422646,92.5959503 L64.594521,92.5959503 L64.594521,80.470935 L66.078896,80.470935 L66.375771,82.1272003 L66.469521,82.1272003 C66.844521,81.5334503 67.3705627,81.0751119 68.047646,80.752185 C68.7247293,80.4188517 69.4799377,80.252185 70.313271,80.252185 C71.782021,80.252185 72.8809793,80.6063568 73.610146,81.3147003 C74.3497293,82.012617 74.719521,83.137617 74.719521,84.6897003 L74.719521,92.5959503 L72.891396,92.5959503 L72.891396,92.5959503 Z M83.609604,92.8147 C81.8179373,92.8147 80.4012732,92.2730333 79.3596116,91.1897 C78.3283616,90.09595 77.8127366,88.5751167 77.8127366,86.6272 C77.8127366,84.6792833 78.2919033,83.1324083 79.2502366,81.986575 C80.2189815,80.8303148 81.515854,80.2521847 83.140854,80.2521847 C84.6616873,80.2521847 85.8648123,80.7521847 86.750229,81.7522 C87.6356457,82.7522 88.078354,84.0699083 88.078354,85.705325 L88.078354,86.861575 L79.718987,86.861575 C79.7606537,88.2886583 80.1200261,89.3719917 80.7971044,90.111575 C81.4846044,90.8407417 82.4481461,91.205325 83.6877294,91.205325 C84.9898127,91.205325 86.2762711,90.9344917 87.5471044,90.392825 L87.5471044,92.03345 C86.9012711,92.3147 86.2866877,92.5126167 85.7033544,92.6272 C85.1304377,92.7522 84.4325211,92.8147 83.6096044,92.8147 L83.609604,92.8147 Z M83.125229,81.78345 C82.1460623,81.78345 81.3648123,82.1011583 80.781479,82.736575 C80.2085674,83.3719917 79.8700283,84.2522 79.7658616,85.3772 L86.109604,85.3772 C86.109604,84.22095 85.8491873,83.3355333 85.328354,82.72095 C84.8179373,82.09595 84.0835623,81.78345 83.125229,81.78345 Z M106.664307,92.5959503 L106.664307,84.705325 C106.664307,83.736575 106.455974,83.0126167 106.039307,82.53345 C105.62264,82.0542833 104.982015,81.8147 104.117432,81.8147 C102.971599,81.8147 102.12264,82.142825 101.570557,82.799075 C101.02889,83.455325 100.758057,84.4657417 100.758057,85.830325 L100.758057,92.5959503 L98.929932,92.5959503 L98.929932,84.705325 C98.929932,83.736575 98.7215987,83.0126167 98.304932,82.53345 C97.898682,82.0542833 97.2528487,81.8147 96.367432,81.8147 C95.2215987,81.8147 94.3778487,82.15845 93.836182,82.84595 C93.304932,83.53345 93.039307,84.6636583 93.039307,86.236575 L93.039307,92.5959503 L91.211182,92.5959503 L91.211182,80.470935 L92.695557,80.470935 L92.992432,82.1272003 L93.086182,82.1272003 C93.429932,81.543867 93.914307,81.0855285 94.539307,80.752185 C95.1747237,80.4188517 95.883057,80.252185 96.664307,80.252185 C98.5601403,80.252185 99.7997237,80.9396901 100.383057,82.3147003 L100.476807,82.3147003 C100.84139,81.6792836 101.362224,81.1792785 102.039307,80.814685 C102.726807,80.439685 103.513265,80.252185 104.398682,80.252185 C105.763265,80.252185 106.784099,80.6063568 107.461182,81.3147003 C108.148682,82.012617 108.492432,83.137617 108.492432,84.6897003 L108.492432,92.5959503 L106.664307,92.5959503 L106.664307,92.5959503 Z M117.394852,92.8147 C115.603185,92.8147 114.186519,92.2730333 113.144852,91.1897 C112.113602,90.09595 111.597977,88.5751167 111.597977,86.6272 C111.597977,84.6792833 112.077144,83.1324083 113.035477,81.986575 C114.004227,80.8303148 115.301102,80.2521847 116.926102,80.2521847 C118.446935,80.2521847 119.65006,80.7521847 120.535477,81.7522 C121.420894,82.7522 121.863602,84.0699083 121.863602,85.705325 L121.863602,86.861575 L113.504227,86.861575 C113.545894,88.2886583 113.905269,89.3719917 114.582352,90.111575 C115.269852,90.8407417 116.233394,91.205325 117.472977,91.205325 C118.77506,91.205325 120.061519,90.9344917 121.332352,90.392825 L121.332352,92.03345 C120.686519,92.3147 120.071935,92.5126167 119.488602,92.6272 C118.915685,92.7522 118.217769,92.8147 117.394852,92.8147 Z M116.910477,81.78345 C115.93131,81.78345 115.15006,82.1011583 114.566727,82.736575 C113.99381,83.3719917 113.655269,84.2522 113.551102,85.3772 L119.894852,85.3772 C119.894852,84.22095 119.634435,83.3355333 119.113602,82.72095 C118.603185,82.09595 117.86881,81.78345 116.910477,81.78345 Z M133.29332,92.5959503 L133.29332,84.7522 C133.29332,83.7626167 133.064153,83.0282417 132.60582,82.549075 C132.157893,82.0594917 131.454763,81.8147 130.49643,81.8147 C129.225596,81.8147 128.293305,82.15845 127.699555,82.84595 C127.116221,83.5230333 126.824555,84.6532417 126.824555,86.236575 L126.824555,92.5959503 L124.99643,92.5959503 L124.99643,80.470935 L126.480805,80.470935 L126.77768,82.1272003 L126.87143,82.1272003 C127.24643,81.5334503 127.772471,81.0751119 128.449555,80.752185 C129.126638,80.4188517 129.881846,80.252185 130.71518,80.252185 C132.18394,80.252185 133.282903,80.6063568 134.01207,81.3147003 C134.751653,82.012617 135.121445,83.137617 135.121445,84.6897003 L135.121445,92.5959503 L133.29332,92.5959503 L133.29332,92.5959503 Z M142.808396,91.299075 C143.131313,91.299075 143.443813,91.2782417 143.745896,91.236575 C144.047979,91.1844917 144.287563,91.1324083 144.464646,91.080325 L144.464646,92.486575 C144.266729,92.580325 143.975063,92.65845 143.589646,92.72095 C143.204229,92.78345 142.855271,92.8147 142.542771,92.8147 C140.199021,92.8147 139.027146,91.580325 139.027146,89.111575 L139.027146,81.892825 L137.292771,81.892825 L137.292771,81.017825 L139.027146,80.2521847 L139.808396,77.6584347 L140.870896,77.6584347 L140.870896,80.4709347 L144.386521,80.4709347 L144.386521,81.892825 L140.870896,81.892825 L140.870896,89.03345 C140.870896,89.7626167 141.042771,90.3251167 141.386521,90.72095 C141.730271,91.1063667 142.204229,91.299075 142.808396,91.299075 L142.808396,91.299075 Z" id="Shape" fill="#000000" fill-rule="nonzero"></path>
            <path d="M177.529399,65.38094 L177.529399,65.38094 C177.529399,57.341435 184.046704,50.824132 192.086208,50.824132 L322.185178,50.824132 C326.045896,50.824132 329.748472,52.3577929 332.478421,55.0877276 C335.20834,57.8176623 336.742001,61.520238 336.742001,65.3809406 L336.742001,204.519291 C336.742001,212.558811 330.224698,219.076115 322.185177,219.076115 L192.086207,219.076115 C184.046702,219.076115 177.529399,212.558811 177.529399,204.519291 L177.529399,65.38094 Z" id="Path" fill="#EFEFEF"></path>
            <path d="M212.83447,125.41324 C212.83447,126.829907 212.318845,127.939282 211.287595,128.741365 C210.256345,129.533032 208.855303,129.928865 207.08447,129.928865 C205.167803,129.928865 203.693845,129.684073 202.662595,129.19449 L202.662595,127.38199 C203.329262,127.66324 204.05322,127.887198 204.83447,128.053865 C205.61572,128.210115 206.391762,128.28824 207.162595,128.28824 C208.412595,128.28824 209.355303,128.048657 209.99072,127.56949 C210.626137,127.090323 210.943845,126.428865 210.943845,125.585115 C210.943845,125.022615 210.829262,124.564282 210.600095,124.210115 C210.370928,123.845532 209.99072,123.512198 209.45947,123.210115 C208.938637,122.908032 208.141762,122.56949 207.068845,122.19449 C205.558428,121.652823 204.480303,121.012198 203.83447,120.272615 C203.199053,119.533032 202.881345,118.56949 202.881345,117.38199 C202.881345,116.142407 203.344887,115.152823 204.27197,114.41324 C205.20947,113.673657 206.449053,113.303865 207.99072,113.303865 C209.605303,113.303865 211.08447,113.60074 212.42822,114.19449 L211.850095,115.81949 C210.516762,115.267407 209.214678,114.991365 207.943845,114.991365 C206.954262,114.991365 206.17822,115.204907 205.61572,115.63199 C205.05322,116.059073 204.77197,116.652823 204.77197,117.41324 C204.77197,117.97574 204.876137,118.434073 205.08447,118.78824 C205.292803,119.142407 205.641762,119.470532 206.131345,119.772615 C206.620928,120.074698 207.370928,120.402823 208.381345,120.75699 C210.079262,121.361157 211.245928,122.012198 211.881345,122.710115 C212.516762,123.397615 212.83447,124.298657 212.83447,125.41324 Z M219.784482,128.41324 C220.107399,128.41324 220.419899,128.392407 220.721982,128.35074 C221.024065,128.298657 221.263649,128.246573 221.440732,128.19449 L221.440732,129.60074 C221.242815,129.69449 220.951149,129.772615 220.565732,129.835115 C220.180315,129.897615 219.831357,129.928865 219.518857,129.928865 C217.175107,129.928865 216.003232,128.69449 216.003232,126.22574 L216.003232,119.00699 L214.268857,119.00699 L214.268857,118.13199 L216.003232,117.366365 L216.784482,114.772615 L217.846982,114.772615 L217.846982,117.585115 L221.362607,117.585115 L221.362607,119.00699 L217.846982,119.00699 L217.846982,126.147615 C217.846982,126.876782 218.018857,127.439282 218.362607,127.835115 C218.706357,128.220532 219.180315,128.41324 219.784482,128.41324 Z M231.329618,129.710115 L230.954618,127.991365 L230.876493,127.991365 C230.272326,128.741365 229.668159,129.251782 229.063993,129.522615 C228.459826,129.793448 227.709826,129.928865 226.813993,129.928865 C225.616076,129.928865 224.673368,129.621573 223.985868,129.00699 C223.308784,128.38199 222.970243,127.496573 222.970243,126.35074 C222.970243,123.902823 224.928576,122.621573 228.845243,122.50699 L230.892118,122.44449 L230.892118,121.69449 C230.892118,120.736157 230.688993,120.033032 230.282743,119.585115 C229.876493,119.126782 229.220243,118.897615 228.313993,118.897615 C227.303576,118.897615 226.162951,119.210115 224.892118,119.835115 L224.329618,118.428865 C224.923368,118.105948 225.574409,117.85074 226.282743,117.66324 C227.001493,117.47574 227.715034,117.38199 228.423368,117.38199 C229.871284,117.38199 230.944201,117.704907 231.642118,118.35074 C232.340034,118.986157 232.688993,120.012198 232.688993,121.428865 L232.688993,129.710115 L231.329618,129.710115 Z M227.173368,128.41324 C228.319201,128.41324 229.215034,128.10074 229.860868,127.47574 C230.517118,126.85074 230.845243,125.970532 230.845243,124.835115 L230.845243,123.741365 L229.017118,123.81949 C227.558784,123.871573 226.506701,124.10074 225.860868,124.50699 C225.215034,124.902823 224.892118,125.527823 224.892118,126.38199 C224.892118,127.048657 225.090034,127.553865 225.485868,127.897615 C225.892118,128.241365 226.454618,128.41324 227.173368,128.41324 Z M244.77371,129.710115 L244.77371,121.866365 C244.77371,120.876782 244.544543,120.142407 244.08621,119.66324 C243.638293,119.173657 242.935168,118.928865 241.976835,118.928865 C240.706001,118.928865 239.77371,119.272615 239.17996,119.960115 C238.596626,120.637198 238.30496,121.767407 238.30496,123.35074 L238.30496,129.710115 L236.476835,129.710115 L236.476835,117.585115 L237.96121,117.585115 L238.258085,119.241365 L238.351835,119.241365 C238.726835,118.647615 239.252876,118.189282 239.92996,117.866365 C240.607043,117.533032 241.362251,117.366365 242.195585,117.366365 C243.664335,117.366365 244.763293,117.720532 245.49246,118.428865 C246.232043,119.126782 246.601835,120.251782 246.601835,121.803865 L246.601835,129.710115 L244.77371,129.710115 Z M258.632536,128.085115 L258.523161,128.085115 C257.679411,129.314282 256.413786,129.928865 254.726286,129.928865 C253.142952,129.928865 251.908577,129.387198 251.023161,128.303865 C250.137744,127.220532 249.695036,125.678865 249.695036,123.678865 C249.695036,121.678865 250.137744,120.126782 251.023161,119.022615 C251.908577,117.918448 253.142952,117.366365 254.726286,117.366365 C256.372119,117.366365 257.632536,117.965323 258.507536,119.16324 L258.648161,119.16324 L258.570036,118.28824 L258.523161,117.428865 L258.523161,112.491365 L260.366911,112.491365 L260.366911,129.710115 L258.866911,129.710115 L258.632536,128.085115 Z M254.960661,128.397615 C256.210661,128.397615 257.116911,128.059073 257.679411,127.38199 C258.241911,126.69449 258.523161,125.590323 258.523161,124.06949 L258.523161,123.678865 C258.523161,121.960115 258.236702,120.736157 257.663786,120.00699 C257.101286,119.267407 256.189827,118.897615 254.929411,118.897615 C253.856494,118.897615 253.033577,119.31949 252.460661,120.16324 C251.887744,120.996573 251.601286,122.178865 251.601286,123.710115 C251.601286,125.251782 251.882536,126.418448 252.445036,127.210115 C253.017952,128.001782 253.856494,128.397615 254.960661,128.397615 Z M282.635831,113.53824 L282.635831,124.00699 C282.635831,125.85074 282.078539,127.298657 280.963956,128.35074 C279.849372,129.402823 278.318122,129.928865 276.370206,129.928865 C274.422289,129.928865 272.917081,129.397615 271.854581,128.335115 C270.792081,127.272615 270.260831,125.814282 270.260831,123.960115 L270.260831,113.53824 L272.135831,113.53824 L272.135831,124.085115 C272.135831,125.439282 272.505622,126.480948 273.245206,127.210115 C273.984789,127.928865 275.068122,128.28824 276.495206,128.28824 C277.859789,128.28824 278.911872,127.923657 279.651456,127.19449 C280.391039,126.465323 280.760831,125.423657 280.760831,124.06949 L280.760831,113.53824 L282.635831,113.53824 Z M292.286435,129.928865 C291.494768,129.928865 290.77081,129.783032 290.11456,129.491365 C289.468726,129.199698 288.921851,128.751782 288.473935,128.147615 L288.348935,128.147615 C288.432268,128.855948 288.473935,129.527823 288.473935,130.16324 L288.473935,135.147615 L286.64581,135.147615 L286.64581,117.585115 L288.130185,117.585115 L288.380185,119.241365 L288.473935,119.241365 C288.942685,118.585115 289.48956,118.111157 290.11456,117.81949 C290.749976,117.517407 291.473935,117.366365 292.286435,117.366365 C293.890601,117.366365 295.130185,117.918448 296.005185,119.022615 C296.880185,120.116365 297.317685,121.652823 297.317685,123.63199 C297.317685,125.621573 296.869768,127.168448 295.973935,128.272615 C295.088518,129.376782 293.859351,129.928865 292.286435,129.928865 Z M292.02081,118.928865 C290.781226,118.928865 289.885393,119.272615 289.33331,119.960115 C288.781226,120.637198 288.494768,121.72574 288.473935,123.22574 L288.473935,123.63199 C288.473935,125.340323 288.755185,126.564282 289.317685,127.303865 C289.890601,128.033032 290.807268,128.397615 292.067685,128.397615 C293.109351,128.397615 293.92706,127.97574 294.52081,127.13199 C295.11456,126.277823 295.411435,125.105948 295.411435,123.616365 C295.411435,122.105948 295.11456,120.949698 294.52081,120.147615 C293.92706,119.335115 293.093726,118.928865 292.02081,118.928865 Z M312.555356,113.53824 L306.524106,129.710115 L304.680356,129.710115 L310.711606,113.53824 L312.555356,113.53824 Z" id="Shape" fill="#000000" fill-rule="nonzero"></path>
            <path d="M223.70468,145.257 C223.70468,146.892417 223.14218,148.152833 222.01718,149.03825 C220.902597,149.91325 219.303638,150.35075 217.220305,150.35075 L215.32968,150.35075 L215.32968,156.710125 L213.439055,156.710125 L213.439055,140.53825 L217.64218,140.53825 C221.683847,140.53825 223.70468,142.111167 223.70468,145.257 Z M215.32968,148.741375 L217.01718,148.741375 C218.683847,148.741375 219.886972,148.470542 220.626555,147.928875 C221.376555,147.387208 221.751555,146.522625 221.751555,145.335125 C221.751555,144.272625 221.402597,143.480958 220.70468,142.960125 C220.006763,142.428875 218.913013,142.16325 217.42343,142.16325 L215.32968,142.16325 L215.32968,148.741375 Z M228.641753,156.710125 L226.813628,156.710125 L226.813628,139.491375 L228.641753,139.491375 L228.641753,156.710125 Z M239.997191,156.710125 L239.622191,154.991375 L239.544066,154.991375 C238.939899,155.741375 238.335733,156.251792 237.731566,156.522625 C237.127399,156.793458 236.377399,156.928875 235.481566,156.928875 C234.283649,156.928875 233.340941,156.621583 232.653441,156.007 C231.976358,155.382 231.637816,154.496583 231.637816,153.35075 C231.637816,150.902833 233.596149,149.621583 237.512816,149.507 L239.559691,149.4445 L239.559691,148.6945 C239.559691,147.736167 239.356566,147.033042 238.950316,146.585125 C238.544066,146.126792 237.887816,145.897625 236.981566,145.897625 C235.971149,145.897625 234.830524,146.210125 233.559691,146.835125 L232.997191,145.428875 C233.590941,145.105958 234.241983,144.85075 234.950316,144.66325 C235.669066,144.47575 236.382608,144.382 237.090941,144.382 C238.538858,144.382 239.611774,144.704917 240.309691,145.35075 C241.007608,145.986167 241.356566,147.012208 241.356566,148.428875 L241.356566,156.710125 L239.997191,156.710125 Z M235.840941,155.41325 C236.986774,155.41325 237.882608,155.10075 238.528441,154.47575 C239.184691,153.85075 239.512816,152.970542 239.512816,151.835125 L239.512816,150.741375 L237.684691,150.8195 C236.226358,150.871583 235.174274,151.10075 234.528441,151.507 C233.882608,151.902833 233.559691,152.527833 233.559691,153.382 C233.559691,154.048667 233.757608,154.553875 234.153441,154.897625 C234.559691,155.241375 235.122191,155.41325 235.840941,155.41325 Z M253.441283,156.710125 L253.441283,148.866375 C253.441283,147.876792 253.212116,147.142417 252.753783,146.66325 C252.305866,146.173667 251.602741,145.928875 250.644408,145.928875 C249.373575,145.928875 248.441283,146.272625 247.847533,146.960125 C247.2642,147.637208 246.972533,148.767417 246.972533,150.35075 L246.972533,156.710125 L245.144408,156.710125 L245.144408,144.585125 L246.628783,144.585125 L246.925658,146.241375 L247.019408,146.241375 C247.394408,145.647625 247.92045,145.189292 248.597533,144.866375 C249.274616,144.533042 250.029825,144.366375 250.863158,144.366375 C252.331908,144.366375 253.430866,144.720542 254.160033,145.428875 C254.899616,146.126792 255.269408,147.251792 255.269408,148.803875 L255.269408,156.710125 L253.441283,156.710125 Z M267.346984,156.710125 L267.346984,148.866375 C267.346984,147.876792 267.117817,147.142417 266.659484,146.66325 C266.211567,146.173667 265.508442,145.928875 264.550109,145.928875 C263.279276,145.928875 262.346984,146.272625 261.753234,146.960125 C261.169901,147.637208 260.878234,148.767417 260.878234,150.35075 L260.878234,156.710125 L259.050109,156.710125 L259.050109,144.585125 L260.534484,144.585125 L260.831359,146.241375 L260.925109,146.241375 C261.300109,145.647625 261.826151,145.189292 262.503234,144.866375 C263.180317,144.533042 263.935526,144.366375 264.768859,144.366375 C266.237609,144.366375 267.336567,144.720542 268.065734,145.428875 C268.805317,146.126792 269.175109,147.251792 269.175109,148.803875 L269.175109,156.710125 L267.346984,156.710125 Z M274.783965,156.710125 L272.95584,156.710125 L272.95584,144.585125 L274.783965,144.585125 L274.783965,156.710125 Z M272.79959,141.303875 C272.79959,140.876792 272.898548,140.5695 273.096465,140.382 C273.304798,140.184083 273.565215,140.085125 273.877715,140.085125 C274.169382,140.085125 274.419382,140.184083 274.627715,140.382 C274.846465,140.579917 274.95584,140.887208 274.95584,141.303875 C274.95584,141.710125 274.846465,142.017417 274.627715,142.22575 C274.419382,142.423667 274.169382,142.522625 273.877715,142.522625 C273.565215,142.522625 273.304798,142.423667 273.096465,142.22575 C272.898548,142.017417 272.79959,141.710125 272.79959,141.303875 Z M286.983153,156.710125 L286.983153,148.866375 C286.983153,147.876792 286.753986,147.142417 286.295653,146.66325 C285.847736,146.173667 285.144611,145.928875 284.186278,145.928875 C282.915445,145.928875 281.983153,146.272625 281.389403,146.960125 C280.80607,147.637208 280.514403,148.767417 280.514403,150.35075 L280.514403,156.710125 L278.686278,156.710125 L278.686278,144.585125 L280.170653,144.585125 L280.467528,146.241375 L280.561278,146.241375 C280.936278,145.647625 281.46232,145.189292 282.139403,144.866375 C282.816486,144.533042 283.571695,144.366375 284.405028,144.366375 C285.873778,144.366375 286.972736,144.720542 287.701903,145.428875 C288.441486,146.126792 288.811278,147.251792 288.811278,148.803875 L288.811278,156.710125 L286.983153,156.710125 Z M302.513854,144.585125 L302.513854,145.741375 L300.263854,146.007 C300.472187,146.267417 300.654479,146.605958 300.810729,147.022625 C300.977396,147.439292 301.060729,147.908042 301.060729,148.428875 C301.060729,149.616375 300.654479,150.564292 299.841979,151.272625 C299.029479,151.980958 297.914896,152.335125 296.498229,152.335125 C296.144062,152.335125 295.805521,152.309083 295.482604,152.257 C294.701354,152.66325 294.310729,153.184083 294.310729,153.8195 C294.310729,154.142417 294.446146,154.387208 294.716979,154.553875 C294.987812,154.710125 295.456562,154.78825 296.123229,154.78825 L298.279479,154.78825 C299.591979,154.78825 300.597187,155.064292 301.295104,155.616375 C302.003437,156.168458 302.357604,156.970542 302.357604,158.022625 C302.357604,159.366375 301.815937,160.387208 300.732604,161.085125 C299.659687,161.793458 298.091979,162.147625 296.029479,162.147625 C294.446146,162.147625 293.222187,161.85075 292.357604,161.257 C291.503437,160.673667 291.076354,159.845542 291.076354,158.772625 C291.076354,158.033042 291.310729,157.392417 291.779479,156.85075 C292.248229,156.3195 292.909687,155.954917 293.763854,155.757 C293.461771,155.621583 293.201354,155.408042 292.982604,155.116375 C292.774271,154.814292 292.670104,154.465333 292.670104,154.0695 C292.670104,153.632 292.789896,153.246583 293.029479,152.91325 C293.269062,152.579917 293.638854,152.262208 294.138854,151.960125 C293.513854,151.699708 293.003437,151.262208 292.607604,150.647625 C292.222187,150.022625 292.029479,149.309083 292.029479,148.507 C292.029479,147.184083 292.425312,146.16325 293.216979,145.4445 C294.008646,144.72575 295.138854,144.366375 296.607604,144.366375 C297.243021,144.366375 297.810729,144.439292 298.310729,144.585125 L302.513854,144.585125 Z M292.841979,158.741375 C292.841979,159.397625 293.118021,159.892417 293.670104,160.22575 C294.222187,160.5695 295.013854,160.741375 296.045104,160.741375 C297.586771,160.741375 298.727396,160.512208 299.466979,160.053875 C300.206562,159.595542 300.576354,158.970542 300.576354,158.178875 C300.576354,157.522625 300.373229,157.064292 299.966979,156.803875 C299.571146,156.553875 298.810729,156.428875 297.685729,156.428875 L295.482604,156.428875 C294.649271,156.428875 293.998229,156.626792 293.529479,157.022625 C293.071146,157.428875 292.841979,158.001792 292.841979,158.741375 Z M293.841979,148.47575 C293.841979,149.3195 294.081562,149.960125 294.560729,150.397625 C295.039896,150.824708 295.706562,151.03825 296.560729,151.03825 C298.352396,151.03825 299.248229,150.168458 299.248229,148.428875 C299.248229,146.616375 298.341979,145.710125 296.529479,145.710125 C295.664896,145.710125 294.998229,145.9445 294.529479,146.41325 C294.071146,146.871583 293.841979,147.559083 293.841979,148.47575 Z" id="Shape" fill="#000000" fill-rule="nonzero"></path>
            <polygon id="Path" fill-opacity="0" fill="#000000" points="28.95656 0.36745 124.6731 0.36745 124.6731 50.824146 28.95656 50.824146"></polygon>
            <path d="M74.70125,34.96745 L70.123125,20.045575 L69.998125,20.045575 C70.1647917,23.076825 70.248125,25.1028667 70.248125,26.1237 L70.248125,34.96745 L66.63875,34.96745 L66.63875,15.9362 L72.13875,15.9362 L76.63875,30.483075 L76.716875,30.483075 L81.498125,15.9362 L86.9825,15.9362 L86.9825,34.96745 L83.2325,34.96745 L83.2325,25.96745 C83.2325,25.5403667 83.2377083,25.0507833 83.248125,24.4987 C83.2585417,23.9362 83.3158333,22.4570333 83.42,20.0612 L83.310625,20.0612 L78.38875,34.96745 L74.70125,34.96745 L74.70125,34.96745 Z" id="Path" fill="#46BDC6" fill-rule="nonzero"></path>
            <polygon id="Path" fill-opacity="0" fill="#000000" points="205.80869 0.36745 301.52524 0.36745 301.52524 50.824146 205.80869 50.824146"></polygon>
            <path d="M246.9234,34.96745 L242.89215,34.96745 L242.89215,19.295575 L237.720275,19.295575 L237.720275,15.9362 L252.095275,15.9362 L252.095275,19.295575 L246.9234,19.295575 L246.9234,34.96745 Z M265.016326,34.96745 L264.485076,33.108075 L264.281951,33.108075 C263.854868,33.7851583 263.250701,34.3112 262.469451,34.6862 C261.688201,35.0507833 260.797576,35.233075 259.797576,35.233075 C258.089243,35.233075 256.797576,34.7747417 255.922576,33.858075 C255.057993,32.9414083 254.625701,31.6237 254.625701,29.90495 L254.625701,20.420575 L258.594451,20.420575 L258.594451,28.920575 C258.594451,29.9622417 258.781951,30.7487 259.156951,31.27995 C259.531951,31.8007833 260.125701,32.0612 260.938201,32.0612 C262.052784,32.0612 262.854868,31.6914083 263.344451,30.951825 C263.844451,30.2122417 264.094451,28.983075 264.094451,27.264325 L264.094451,20.420575 L268.063201,20.420575 L268.063201,34.96745 L265.016326,34.96745 Z" id="Shape" fill="#46BDC6" fill-rule="nonzero"></path>
            <polygon id="Path" fill-opacity="0" fill="#000000" points="382.6573 0.36745 478.37385 0.36745 478.37385 50.824146 382.6573 50.824146"></polygon>
            <path d="M438.55185,34.96745 L433.9581,34.96745 L431.379975,24.96745 C431.286225,24.6132833 431.124767,23.8789083 430.8956,22.764325 C430.666433,21.6497417 430.536225,20.8997417 430.504975,20.514325 C430.452892,20.983075 430.322683,21.7382833 430.11435,22.77995 C429.906017,23.8112 429.744558,24.5507833 429.629975,24.9987 L427.067475,34.96745 L422.48935,34.96745 L417.629975,15.9362 L421.598725,15.9362 L424.036225,26.326825 C424.463308,28.2434917 424.7706,29.90495 424.9581,31.3112 C425.010183,30.8112 425.129975,30.045575 425.317475,29.014325 C425.504975,27.9726583 425.682058,27.1653667 425.848725,26.59245 L428.61435,15.9362 L432.42685,15.9362 L435.2081,26.59245 C435.322683,27.0716167 435.468517,27.8007833 435.6456,28.77995 C435.8331,29.7591167 435.973725,30.6028667 436.067475,31.3112 C436.161225,30.6341167 436.30185,29.7903667 436.48935,28.77995 C436.67685,27.7695333 436.848725,26.951825 437.004975,26.326825 L439.42685,15.9362 L443.3956,15.9362 L438.55185,34.96745 Z" id="Path" fill="#46BDC6" fill-rule="nonzero"></path>
            <polygon id="Path" fill-opacity="0" fill="#000000" points="559.5072 0.36745 655.22375 0.36745 655.22375 50.824146 559.5072 50.824146"></polygon>
            <path d="M600.6219,34.96745 L596.59065,34.96745 L596.59065,19.295575 L591.418775,19.295575 L591.418775,15.9362 L605.793775,15.9362 L605.793775,19.295575 L600.6219,19.295575 L600.6219,34.96745 Z M621.839857,34.96745 L617.871107,34.96745 L617.871107,26.46745 C617.871107,24.3632833 617.089857,23.3112 615.527357,23.3112 C614.412774,23.3112 613.605482,23.6914083 613.105482,24.451825 C612.615899,25.201825 612.371107,26.4257833 612.371107,28.1237 L612.371107,34.96745 L608.402357,34.96745 L608.402357,14.71745 L612.371107,14.71745 L612.371107,18.84245 C612.371107,19.1653667 612.345065,19.920575 612.292982,21.108075 L612.199232,22.27995 L612.402357,22.27995 C613.287774,20.8528667 614.694024,20.139325 616.621107,20.139325 C618.32944,20.139325 619.626315,20.6028667 620.511732,21.52995 C621.397149,22.4466167 621.839857,23.764325 621.839857,25.483075 L621.839857,34.96745 Z" id="Shape" fill="#46BDC6" fill-rule="nonzero"></path>
            <path d="M701.14435,55.02383 L701.14435,55.02383 C701.14435,52.7043873 703.024599,50.824123 705.344057,50.824123 L863.054877,50.824123 C864.168708,50.824123 865.236945,51.2665974 866.024543,52.054195 C866.81214,52.8417774 867.254584,53.9099994 867.254584,55.02383 L867.254584,113.648037 C867.254584,115.967465 865.374335,117.847744 863.054877,117.847744 L705.344057,117.847744 C703.024599,117.847744 701.14435,115.967465 701.14435,113.648037 L701.14435,55.02383 Z" id="Path" fill="#EFEFEF"></path>
            <path d="M740.5865,84.36157 C740.5865,87.0282367 739.857333,89.0699033 738.399,90.48657 C736.951083,91.89282 734.86775,92.595945 732.149,92.595945 L727.664625,92.595945 L727.664625,76.424055 L732.61775,76.424055 C735.138583,76.424055 737.096917,77.1219717 738.49275,78.517805 C739.888583,79.9136383 740.5865,81.8615601 740.5865,84.3615703 L740.5865,84.36157 Z M738.5865,84.42407 C738.5865,82.3094867 738.05525,80.7209399 736.99275,79.6584297 C735.940667,78.585513 734.372958,78.0490547 732.289625,78.0490547 L729.55525,78.0490547 L729.55525,90.9709447 L731.8365,90.9709447 C734.076083,90.9709447 735.758375,90.4188614 736.883375,89.3146947 C738.018792,88.210528 738.5865,86.5803197 738.5865,84.4240697 L738.5865,84.42407 Z M749.024916,92.814695 C747.233249,92.814695 745.816583,92.2730283 744.774916,91.189695 C743.743666,90.095945 743.228041,88.5751117 743.228041,86.627195 C743.228041,84.6792783 743.707208,83.1324033 744.665541,81.98657 C745.634291,80.8303098 746.931166,80.2521797 748.556166,80.2521797 C750.076999,80.2521797 751.280124,80.7521797 752.165541,81.752195 C753.050958,82.752195 753.493666,84.0699033 753.493666,85.70532 L753.493666,86.86157 L745.134291,86.86157 C745.175958,88.2886533 745.535333,89.3719867 746.212416,90.11157 C746.899916,90.8407367 747.863458,91.20532 749.103041,91.20532 C750.405124,91.20532 751.691583,90.9344867 752.962416,90.39282 L752.962416,92.033445 C752.316583,92.314695 751.701999,92.5126117 751.118666,92.627195 C750.545749,92.752195 749.847833,92.814695 749.024916,92.814695 Z M748.540541,81.783445 C747.561374,81.783445 746.780124,82.1011533 746.196791,82.73657 C745.623874,83.3719867 745.285333,84.252195 745.181166,85.377195 L751.524916,85.377195 C751.524916,84.220945 751.264499,83.3355283 750.743666,82.720945 C750.233249,82.095945 749.498874,81.783445 748.540541,81.783445 Z M761.735853,92.814695 C759.944187,92.814695 758.52752,92.2730283 757.485853,91.189695 C756.454603,90.095945 755.938978,88.5751117 755.938978,86.627195 C755.938978,84.6792783 756.418145,83.1324033 757.376478,81.98657 C758.345228,80.8303098 759.642103,80.2521797 761.267103,80.2521797 C762.787937,80.2521797 763.991062,80.7521797 764.876478,81.752195 C765.761895,82.752195 766.204603,84.0699033 766.204603,85.70532 L766.204603,86.86157 L757.845228,86.86157 C757.886895,88.2886533 758.24627,89.3719867 758.923353,90.11157 C759.610853,90.8407367 760.574395,91.20532 761.813978,91.20532 C763.116062,91.20532 764.40252,90.9344867 765.673353,90.39282 L765.673353,92.033445 C765.02752,92.314695 764.412937,92.5126117 763.829603,92.627195 C763.256687,92.752195 762.55877,92.814695 761.735853,92.814695 Z M761.251478,81.783445 C760.272312,81.783445 759.491062,82.1011533 758.907728,82.73657 C758.334812,83.3719867 757.99627,84.252195 757.892103,85.377195 L764.235853,85.377195 C764.235853,84.220945 763.975437,83.3355283 763.454603,82.720945 C762.944187,82.095945 762.209812,81.783445 761.251478,81.783445 Z M774.978041,92.814695 C774.186374,92.814695 773.462416,92.6688617 772.806166,92.377195 C772.160333,92.0855283 771.613458,91.6376117 771.165541,91.033445 L771.040541,91.033445 C771.123874,91.7417783 771.165541,92.4136533 771.165541,93.04907 L771.165541,98.033445 L769.337416,98.033445 L769.337416,80.47093 L770.821791,80.47093 L771.071791,82.1271953 L771.165541,82.1271953 C771.634291,81.4709453 772.181166,80.9969819 772.806166,80.705305 C773.441583,80.4032217 774.165541,80.25218 774.978041,80.25218 C776.582208,80.25218 777.821791,80.8042684 778.696791,81.9084453 C779.571791,83.0021953 780.009291,84.5386536 780.009291,86.5178203 C780.009291,88.5074036 779.561374,90.0542786 778.665541,91.1584453 C777.780124,92.262612 776.550958,92.8146953 774.978041,92.8146953 L774.978041,92.814695 Z M774.712416,81.814695 C773.472833,81.814695 772.576999,82.158445 772.024916,82.845945 C771.472833,83.5230283 771.186374,84.61157 771.165541,86.11157 L771.165541,86.51782 C771.165541,88.2261533 771.446791,89.4501117 772.009291,90.189695 C772.582208,90.9188617 773.498874,91.283445 774.759291,91.283445 C775.800958,91.283445 776.618666,90.86157 777.212416,90.01782 C777.806166,89.1636533 778.103041,87.9917783 778.103041,86.502195 C778.103041,84.9917783 777.806166,83.8355283 777.212416,83.033445 C776.618666,82.220945 775.785333,81.814695 774.712416,81.814695 Z M803.496962,92.595945 L801.637587,92.595945 L798.371962,81.76782 C798.215712,81.2886533 798.038629,80.6844816 797.840712,79.9553047 C797.653212,79.226138 797.559462,78.7834297 797.559462,78.6271797 C797.392795,79.6063464 797.132379,80.6740598 796.778212,81.83032 L793.606337,92.595945 L791.762587,92.595945 L787.450087,76.424055 L789.450087,76.424055 L791.996962,86.408445 C792.351129,87.814695 792.611545,89.0855283 792.778212,90.220945 C792.976129,88.8667783 793.267795,87.5438617 793.653212,86.252195 L796.559462,76.424055 L798.543837,76.424055 L801.590712,86.345945 C801.944879,87.4917783 802.241754,88.783445 802.481337,90.220945 C802.62717,89.1688617 802.892795,87.89282 803.278212,86.39282 L805.825087,76.424055 L807.825087,76.424055 L803.496962,92.595945 Z M820.534193,86.51782 C820.534193,88.4969867 820.034193,90.0438617 819.034193,91.158445 C818.04461,92.2626117 816.674818,92.814695 814.924818,92.814695 C813.841485,92.814695 812.877943,92.5594867 812.034193,92.04907 C811.190443,91.5386533 810.539401,90.8094867 810.081068,89.86157 C809.622735,88.9136533 809.393568,87.79907 809.393568,86.51782 C809.393568,84.54907 809.88836,83.0126117 810.877943,81.908445 C811.867526,80.8042681 813.242526,80.2521797 815.002943,80.2521797 C816.70086,80.2521797 818.04461,80.8198931 819.034193,81.95532 C820.034193,83.08032 820.534193,84.6011533 820.534193,86.51782 Z M811.299818,86.51782 C811.299818,88.0699033 811.60711,89.252195 812.221693,90.064695 C812.846693,90.877195 813.76336,91.283445 814.971693,91.283445 C816.16961,91.283445 817.081068,90.8824033 817.706068,90.08032 C818.331068,89.26782 818.643568,88.08032 818.643568,86.51782 C818.643568,84.9761533 818.331068,83.8094867 817.706068,83.01782 C817.081068,82.2157367 816.159193,81.814695 814.940443,81.814695 C813.742526,81.814695 812.836276,82.2105283 812.221693,83.002195 C811.60711,83.783445 811.299818,84.95532 811.299818,86.51782 Z M829.296766,80.2521797 C829.828016,80.2521797 830.307183,80.2938464 830.734266,80.3771797 L830.484266,82.08032 C829.984266,81.9761533 829.541558,81.92407 829.156141,81.92407 C828.176974,81.92407 827.338433,82.3251117 826.640516,83.127195 C825.942599,83.9188617 825.593641,84.908445 825.593641,86.095945 L825.593641,92.595945 L823.765516,92.595945 L823.765516,80.47093 L825.281141,80.47093 L825.484266,82.7209453 L825.578016,82.7209453 C826.025933,81.9292786 826.567599,81.3198985 827.203016,80.892805 C827.838433,80.4657217 828.536349,80.2521797 829.296766,80.2521797 L829.296766,80.2521797 Z M834.826368,86.39282 C835.138868,85.9449033 835.618035,85.3563617 836.263868,84.627195 L840.185743,80.4709297 L842.373243,80.4709297 L837.451368,85.64282 L842.716993,92.595945 L840.482618,92.595945 L836.201368,86.86157 L834.826368,88.064695 L834.826368,92.595945 L833.013868,92.595945 L833.013868,75.37718 L834.826368,75.37718 L834.826368,84.502195 C834.826368,84.908445 834.795118,85.5386533 834.732618,86.39282 L834.826368,86.39282 Z" id="Shape" fill="#000000" fill-rule="nonzero"></path>
            <polygon id="Path" fill-opacity="0" fill="#000000" points="736.3245 0.36745 832.04105 0.36745 832.04105 50.824146 736.3245 50.824146"></polygon>
            <polygon id="Path" fill="#46BDC6" fill-rule="nonzero" points="783.22736 34.96745 779.25861 34.96745 779.25861 15.9362 790.16486 15.9362 790.16486 19.2487 783.22736 19.2487 783.22736 24.15495 789.69611 24.15495 789.69611 27.451825 783.22736 27.451825"></polygon>
        </g>
    </g>
</svg>