<svg version="1.1" viewBox="0.0 0.0 960.0 540.0" fill="none" stroke="none" stroke-linecap="square" stroke-miterlimit="10" xmlns:xlink="http://www.w3.org/1999/xlink" xmlns="http://www.w3.org/2000/svg"><clipPath id="gb31192e651_0_0.0"><path d="m0 0l960.0 0l0 540.0l-960.0 0l0 -540.0z" clip-rule="nonzero"/></clipPath><g clip-path="url(#gb31192e651_0_0.0)"><path fill="#ffffff" d="m0 0l960.0 0l0 540.0l-960.0 0z" fill-rule="evenodd"/><path fill="#f3f3f3" d="m0 0l308.97638 0l0 256.8819l-308.97638 0z" fill-rule="evenodd"/><path fill="#000000" fill-opacity="0.0" d="m18.24 74.00357l191.71654 0l0 96.157486l-191.71654 0z" fill-rule="evenodd"/><path fill="#616161" d="m38.83375 125.44357l0 19.0l-5.3125 0l0 -45.6875l12.53125 0q8.40625 0 12.421875 3.21875q4.015625 3.21875 4.015625 9.6875q0 9.0625 -9.1875 12.25l12.406246 20.53125l-6.281246 0l-11.0625 -19.0l-9.53125 0zm0 -4.5625l7.28125 0q5.625 0 8.25 -2.234375q2.625 -2.234375 2.625 -6.703125q0 -4.53125 -2.671875 -6.53125q-2.671875 -2.0 -8.578125 -2.0l-6.90625 0l0 17.46875zm63.031246 6.40625q0 8.375 -4.21875 13.078125q-4.21875 4.703125 -11.65625 4.703125q-4.59375 0 -8.15625 -2.15625q-3.5625 -2.15625 -5.5 -6.1875q-1.9375 -4.03125 -1.9375 -9.4375q0 -8.375 4.1875 -13.046875q4.1875 -4.671875 11.625 -4.671875q7.1875 0 11.421875 4.78125q4.234375 4.78125 4.234375 12.9375zm-26.09375 0q0 6.5625 2.625 10.0q2.625 3.4375 7.71875 3.4375q5.09375 0 7.734375 -3.421875q2.640625 -3.421875 2.640625 -10.015625q0 -6.53125 -2.640625 -9.921875q-2.640625 -3.390625 -7.796875 -3.390625q-5.09375 0 -7.6875 3.34375q-2.59375 3.34375 -2.59375 9.96875zm40.375 17.15625l-5.1875 0l0 -48.625l5.1875 0l0 48.625zm25.468758 0.625q-7.59375 0 -11.984375 -4.625q-4.3906326 -4.625 -4.3906326 -12.84375q0 -8.28125 4.0781326 -13.15625q4.078125 -4.875 10.953125 -4.875q6.4375 0 10.1875 4.234375q3.75 4.234375 3.75 11.171875l0 3.28125l-23.59375 0q0.15625 6.03125 3.046875 9.15625q2.890625 3.125 8.140625 3.125q5.53125 0 10.9375 -2.3125l0 4.625q-2.75 1.1875 -5.203125 1.703125q-2.453125 0.515625 -5.921875 0.515625zm-1.40625 -31.15625q-4.125 0 -6.578125 2.6875q-2.453125 2.6875 -2.890625 7.4375l17.90625 0q0 -4.90625 -2.1875 -7.515625q-2.1875 -2.609375 -6.25 -2.609375zm44.9375 21.1875q0 4.78125 -3.5625 7.375q-3.5625 2.59375 -10.0 2.59375q-6.8125 0 -10.625 -2.15625l0 -4.8125q2.46875 1.25 5.296875 1.96875q2.828125 0.71875 5.453125 0.71875q4.0625 0 6.25 -1.296875q2.1875 -1.296875 2.1875 -3.953125q0 -2.0 -1.734375 -3.421875q-1.734375 -1.421875 -6.765625 -3.359375q-4.78125 -1.78125 -6.796875 -3.109375q-2.015625 -1.328125 -3.0 -3.015625q-0.984375 -1.6875 -0.984375 -4.03125q0 -4.1875 3.40625 -6.609375q3.40625 -2.421875 9.34375 -2.421875q5.53125 0 10.8125 2.25l-1.84375 4.21875q-5.15625 -2.125 -9.34375 -2.125q-3.6875 0 -5.5625 1.15625q-1.875 1.15625 -1.875 3.1875q0 1.375 0.703125 2.34375q0.703125 0.96875 2.265625 1.84375q1.5625 0.875 6.0 2.53125q6.09375 2.21875 8.234375 4.46875q2.140625 2.25 2.140625 5.65625z" fill-rule="nonzero"/><path fill="#000000" fill-opacity="0.0" d="m50.87911 208.81627l58.07874 0l0 38.582687l-58.07874 0z" fill-rule="evenodd"/><path fill="#424242" d="m65.39473 230.61627l-3.2187462 -8.4375l-0.0625 0q0.09375 1.0 0.09375 2.390625l0 6.046875l-1.015625 0l0 -9.515625l1.65625 0l3.0156212 7.84375l0.0625 0l3.03125 -7.84375l1.65625 0l0 9.515625l-1.109375 0l0 -6.125q0 -1.0625 0.09375 -2.296875l-0.046875 0l-3.265625 8.421875l-0.890625 0zm12.048691 0l-0.21875 -1.015625l-0.046875 0q-0.53125 0.671875 -1.0625 0.90625q-0.53125 0.234375 -1.328125 0.234375q-1.0625 0 -1.671875 -0.546875q-0.59375 -0.546875 -0.59375 -1.546875q0 -2.15625 3.453125 -2.265625l1.21875 -0.046875l0 -0.4375q0 -0.84375 -0.359375 -1.234375q-0.359375 -0.40625 -1.15625 -0.40625q-0.890625 0 -2.015625 0.546875l-0.34375 -0.828125q0.53125 -0.28125 1.15625 -0.4375q0.640625 -0.171875 1.265625 -0.171875q1.28125 0 1.890625 0.5625q0.609375 0.5625 0.609375 1.8125l0 4.875l-0.796875 0zm-2.4375 -0.765625q1.0 0 1.578125 -0.546875q0.578125 -0.5625 0.578125 -1.546875l0 -0.640625l-1.078125 0.03125q-1.28125 0.046875 -1.859375 0.40625q-0.5625 0.359375 -0.5625 1.109375q0 0.578125 0.34375 0.890625q0.359375 0.296875 1.0 0.296875zm6.5374756 0.765625l-1.078125 0l0 -7.125l1.078125 0l0 7.125zm-1.171875 -9.0625q0 -0.375 0.1875 -0.546875q0.1875 -0.171875 0.453125 -0.171875q0.265625 0 0.453125 0.171875q0.1875 0.171875 0.1875 0.546875q0 0.359375 -0.1875 0.546875q-0.1875 0.171875 -0.453125 0.171875q-0.265625 0 -0.453125 -0.171875q-0.1875 -0.1875 -0.1875 -0.546875zm8.3554535 9.0625l0 -4.609375q0 -0.875 -0.40625 -1.296875q-0.390625 -0.4375 -1.234375 -0.4375q-1.125 0 -1.65625 0.609375q-0.515625 0.59375 -0.515625 2.0l0 3.734375l-1.078125 0l0 -7.125l0.890625 0l0.171875 0.96875l0.046875 0q0.328125 -0.53125 0.921875 -0.8125q0.609375 -0.296875 1.34375 -0.296875q1.296875 0 1.9375 0.625q0.65625 0.625 0.65625 1.984375l0 4.65625l-1.078125 0z" fill-rule="nonzero"/><path fill="#000000" fill-opacity="0.0" d="m142.08 208.81627l87.93701 0l0 38.582687l-87.93701 0z" fill-rule="evenodd"/><path fill="#424242" d="m158.36125 230.61627l-1.171875 -3.03125l-3.8125 0l-1.171875 3.03125l-1.125 0l3.765625 -9.546875l0.921875 0l3.75 9.546875l-1.15625 0zm-1.515625 -4.015625l-1.109375 -2.953125q-0.21875 -0.5625 -0.453125 -1.375q-0.140625 0.625 -0.40625 1.375l-1.109375 2.953125l3.078125 0zm4.824829 -3.109375l0 4.625q0 0.859375 0.390625 1.296875q0.40625 0.421875 1.25 0.421875q1.125 0 1.640625 -0.609375q0.515625 -0.609375 0.515625 -2.0l0 -3.734375l1.078125 0l0 7.125l-0.890625 0l-0.15625 -0.953125l-0.0625 0q-0.328125 0.53125 -0.921875 0.8125q-0.578125 0.265625 -1.34375 0.265625q-1.296875 0 -1.953125 -0.609375q-0.640625 -0.625 -0.640625 -1.984375l0 -4.65625l1.09375 0zm8.88353 3.46875l-2.46875 -3.46875l1.21875 0l1.890625 2.71875l1.875 -2.71875l1.21875 0l-2.484375 3.46875l2.609375 3.65625l-1.21875 0l-2.0 -2.890625l-2.015625 2.890625l-1.234375 0l2.609375 -3.65625zm6.342331 3.65625l-1.078125 0l0 -7.125l1.078125 0l0 7.125zm-1.171875 -9.0625q0 -0.375 0.1875 -0.546875q0.1875 -0.171875 0.453125 -0.171875q0.265625 0 0.453125 0.171875q0.1875 0.171875 0.1875 0.546875q0 0.359375 -0.1875 0.546875q-0.1875 0.171875 -0.453125 0.171875q-0.265625 0 -0.453125 -0.171875q-0.1875 -0.1875 -0.1875 -0.546875zm4.5429535 9.0625l-1.078125 0l0 -10.125l1.078125 0l0 10.125zm3.3710785 0l-1.078125 0l0 -7.125l1.078125 0l0 7.125zm-1.171875 -9.0625q0 -0.375 0.1875 -0.546875q0.1875 -0.171875 0.453125 -0.171875q0.265625 0 0.453125 0.171875q0.1875 0.171875 0.1875 0.546875q0 0.359375 -0.1875 0.546875q-0.1875 0.171875 -0.453125 0.171875q-0.265625 0 -0.453125 -0.171875q-0.1875 -0.1875 -0.1875 -0.546875zm7.8554535 9.0625l-0.21875 -1.015625l-0.046875 0q-0.53125 0.671875 -1.0625 0.90625q-0.53125 0.234375 -1.328125 0.234375q-1.0625 0 -1.671875 -0.546875q-0.59375 -0.546875 -0.59375 -1.546875q0 -2.15625 3.453125 -2.265625l1.21875 -0.046875l0 -0.4375q0 -0.84375 -0.359375 -1.234375q-0.359375 -0.40625 -1.15625 -0.40625q-0.890625 0 -2.015625 0.546875l-0.34375 -0.828125q0.53125 -0.28125 1.15625 -0.4375q0.640625 -0.171875 1.265625 -0.171875q1.28125 0 1.890625 0.5625q0.609375 0.5625 0.609375 1.8125l0 4.875l-0.796875 0zm-2.4375 -0.765625q1.0 0 1.578125 -0.546875q0.578125 -0.5625 0.578125 -1.546875l0 -0.640625l-1.078125 0.03125q-1.28125 0.046875 -1.859375 0.40625q-0.5625 0.359375 -0.5625 1.109375q0 0.578125 0.34375 0.890625q0.359375 0.296875 1.0 0.296875zm8.724976 -6.5q0.46875 0 0.84375 0.078125l-0.140625 1.0q-0.453125 -0.09375 -0.78125 -0.09375q-0.875 0 -1.5 0.703125q-0.609375 0.703125 -0.609375 1.75l0 3.828125l-1.078125 0l0 -7.125l0.890625 0l0.125 1.3125l0.0625 0q0.390625 -0.703125 0.953125 -1.078125q0.5625 -0.375 1.234375 -0.375zm1.0499573 0.140625l1.15625 0l1.5625 4.0625q0.515625 1.390625 0.640625 2.015625l0.046875 0q0.078125 -0.34375 0.34375 -1.140625q0.28125 -0.8125 1.78125 -4.9375l1.15625 0l-3.0625 8.109375q-0.453125 1.203125 -1.0625 1.703125q-0.609375 0.515625 -1.5 0.515625q-0.5 0 -0.96875 -0.109375l0 -0.875q0.359375 0.078125 0.796875 0.078125q1.109375 0 1.59375 -1.25l0.390625 -1.015625l-2.875 -7.15625z" fill-rule="nonzero"/><path fill="#4285f4" d="m32.64 225.24147l17.92126 0l0 5.7322845l-17.92126 0z" fill-rule="evenodd"/><path fill="#46bdc6" d="m123.84 225.24147l17.921265 0l0 5.7322845l-17.921265 0z" fill-rule="evenodd"/><path fill="#000000" fill-opacity="0.0" d="m494.64825 215.86272l457.92126 0l0 50.83464l-457.92126 0z" fill-rule="evenodd"/><path fill="#46bdc6" d="m522.26166 264.54272l0 -29.5l3.421875 0l0 29.5l-3.421875 0zm26.147644 0l0 -14.3125q0 -2.703125 -1.234375 -4.03125q-1.234375 -1.328125 -3.859375 -1.328125q-3.46875 0 -5.078125 1.875q-1.609375 1.875 -1.609375 6.1875l0 11.609375l-3.359375 0l0 -22.109375l2.734375 0l0.546875 3.015625l0.15625 0q1.03125 -1.625 2.875 -2.515625q1.859375 -0.90625 4.140625 -0.90625q4.0 0 6.015625 1.921875q2.015625 1.921875 2.015625 6.171875l0 14.421875l-3.34375 0zm20.194092 -19.515625l-5.625 0l0 19.515625l-3.34375 0l0 -19.515625l-3.96875 0l0 -1.515625l3.96875 -1.203125l0 -1.234375q0 -8.15625 7.109375 -8.15625q1.765625 0 4.125 0.703125l-0.875 2.6875q-1.9375 -0.625 -3.296875 -0.625q-1.90625 0 -2.8125 1.265625q-0.90625 1.265625 -0.90625 4.046875l0 1.4375l5.625 0l0 2.59375zm23.12976 8.4375q0 5.40625 -2.734375 8.453125q-2.71875 3.03125 -7.515625 3.03125q-2.96875 0 -5.265625 -1.390625q-2.296875 -1.390625 -3.546875 -4.0q-1.25 -2.609375 -1.25 -6.09375q0 -5.40625 2.703125 -8.421875q2.703125 -3.015625 7.5 -3.015625q4.640625 0 7.375 3.09375q2.734375 3.078125 2.734375 8.34375zm-16.84375 0q0 4.234375 1.6875 6.453125q1.703125 2.21875 4.984375 2.21875q3.296875 0 5.0 -2.203125q1.703125 -2.21875 1.703125 -6.46875q0 -4.21875 -1.703125 -6.40625q-1.703125 -2.1875 -5.03125 -2.1875q-3.296875 0 -4.96875 2.15625q-1.671875 2.15625 -1.671875 6.4375zm32.80609 -11.4375q1.46875 0 2.640625 0.234375l-0.453125 3.109375q-1.375 -0.296875 -2.421875 -0.296875q-2.6875 0 -4.59375 2.1875q-1.90625 2.171875 -1.90625 5.421875l0 11.859375l-3.359375 0l0 -22.109375l2.765625 0l0.390625 4.09375l0.15625 0q1.234375 -2.171875 2.96875 -3.328125q1.734375 -1.171875 3.8125 -1.171875zm34.979675 22.515625l0 -14.390625q0 -2.640625 -1.140625 -3.953125q-1.125 -1.328125 -3.515625 -1.328125q-3.125 0 -4.625 1.796875q-1.484375 1.796875 -1.484375 5.53125l0 12.34375l-3.34375 0l0 -14.390625q0 -2.640625 -1.140625 -3.953125q-1.125 -1.328125 -3.53125 -1.328125q-3.140625 0 -4.609375 1.890625q-1.453125 1.875 -1.453125 6.171875l0 11.609375l-3.359375 0l0 -22.109375l2.734375 0l0.546875 3.015625l0.15625 0q0.953125 -1.609375 2.671875 -2.515625q1.71875 -0.90625 3.859375 -0.90625q5.1875 0 6.78125 3.75l0.171875 0q0.984375 -1.734375 2.859375 -2.734375q1.875 -1.015625 4.28125 -1.015625q3.75 0 5.609375 1.921875q1.875 1.921875 1.875 6.171875l0 14.421875l-3.34375 0zm23.848633 0l-0.671875 -3.140625l-0.15625 0q-1.65625 2.078125 -3.3125 2.8125q-1.640625 0.734375 -4.09375 0.734375q-3.296875 0 -5.171875 -1.6875q-1.859375 -1.703125 -1.859375 -4.828125q0 -6.703125 10.71875 -7.03125l3.75 -0.125l0 -1.359375q0 -2.609375 -1.125 -3.84375q-1.109375 -1.25 -3.578125 -1.25q-2.75 0 -6.25 1.703125l-1.03125 -2.5625q1.640625 -0.890625 3.578125 -1.390625q1.953125 -0.515625 3.90625 -0.515625q3.96875 0 5.875 1.765625q1.90625 1.75 1.90625 5.625l0 15.09375l-2.484375 0zm-7.578125 -2.359375q3.140625 0 4.921875 -1.71875q1.78125 -1.71875 1.78125 -4.796875l0 -2.0l-3.34375 0.140625q-4.0 0.140625 -5.765625 1.25q-1.765625 1.09375 -1.765625 3.40625q0 1.8125 1.09375 2.765625q1.109375 0.953125 3.078125 0.953125zm24.094116 0q0.890625 0 1.71875 -0.125q0.828125 -0.140625 1.3125 -0.28125l0 2.5625q-0.546875 0.265625 -1.609375 0.4375q-1.046875 0.171875 -1.890625 0.171875q-6.421875 0 -6.421875 -6.765625l0 -13.15625l-3.171875 0l0 -1.609375l3.171875 -1.390625l1.40625 -4.734375l1.9375 0l0 5.140625l6.421875 0l0 2.59375l-6.421875 0l0 13.015625q0 2.0 0.953125 3.078125q0.953125 1.0625 2.59375 1.0625zm10.808716 2.359375l-3.359375 0l0 -22.109375l3.359375 0l0 22.109375zm-3.640625 -28.109375q0 -1.15625 0.5625 -1.6875q0.578125 -0.53125 1.421875 -0.53125q0.796875 0 1.375 0.546875q0.59375 0.546875 0.59375 1.671875q0 1.125 -0.59375 1.6875q-0.578125 0.546875 -1.375 0.546875q-0.84375 0 -1.421875 -0.546875q-0.5625 -0.5625 -0.5625 -1.6875zm29.828125 17.03125q0 5.40625 -2.734375 8.453125q-2.71875 3.03125 -7.515625 3.03125q-2.96875 0 -5.265625 -1.390625q-2.296875 -1.390625 -3.546875 -4.0q-1.25 -2.609375 -1.25 -6.09375q0 -5.40625 2.703125 -8.421875q2.703125 -3.015625 7.5 -3.015625q4.640625 0 7.375 3.09375q2.734375 3.078125 2.734375 8.34375zm-16.84375 0q0 4.234375 1.6875 6.453125q1.703125 2.21875 4.984375 2.21875q3.296875 0 5.0 -2.203125q1.703125 -2.21875 1.703125 -6.46875q0 -4.21875 -1.703125 -6.40625q-1.703125 -2.1875 -5.03125 -2.1875q-3.296875 0 -4.96875 2.15625q-1.671875 2.15625 -1.671875 6.4375zm37.852966 11.078125l0 -14.3125q0 -2.703125 -1.234375 -4.03125q-1.234375 -1.328125 -3.859375 -1.328125q-3.46875 0 -5.078125 1.875q-1.609375 1.875 -1.609375 6.1875l0 11.609375l-3.359375 0l0 -22.109375l2.734375 0l0.546875 3.015625l0.15625 0q1.03125 -1.625 2.875 -2.515625q1.859375 -0.90625 4.140625 -0.90625q4.0 0 6.015625 1.921875q2.015625 1.921875 2.015625 6.171875l0 14.421875l-3.34375 0zm40.007874 0l-3.671875 -9.390625l-11.8125 0l-3.640625 9.390625l-3.46875 0l11.65625 -29.625l2.890625 0l11.609375 29.625l-3.5625 0zm-4.734375 -12.46875l-3.4375 -9.140625q-0.65625 -1.734375 -1.359375 -4.265625q-0.453125 1.9375 -1.28125 4.265625l-3.46875 9.140625l9.546875 0zm21.934143 -10.046875q1.46875 0 2.640625 0.234375l-0.453125 3.109375q-1.375 -0.296875 -2.421875 -0.296875q-2.6875 0 -4.59375 2.1875q-1.90625 2.171875 -1.90625 5.421875l0 11.859375l-3.359375 0l0 -22.109375l2.765625 0l0.390625 4.09375l0.15625 0q1.234375 -2.171875 2.96875 -3.328125q1.734375 -1.171875 3.8125 -1.171875zm15.6203 22.921875q-4.796875 0 -7.4375 -2.953125q-2.625 -2.96875 -2.625 -8.375q0 -5.546875 2.671875 -8.5625q2.671875 -3.03125 7.609375 -3.03125q1.59375 0 3.1875 0.34375q1.59375 0.34375 2.5 0.796875l-1.015625 2.84375q-1.125 -0.4375 -2.4375 -0.71875q-1.296875 -0.296875 -2.3125 -0.296875q-6.734375 0 -6.734375 8.59375q0 4.078125 1.640625 6.265625q1.640625 2.171875 4.875 2.171875q2.765625 0 5.671875 -1.203125l0 2.96875q-2.21875 1.15625 -5.59375 1.15625zm25.972107 -0.40625l0 -14.3125q0 -2.703125 -1.234375 -4.03125q-1.234375 -1.328125 -3.859375 -1.328125q-3.484375 0 -5.09375 1.90625q-1.59375 1.890625 -1.59375 6.203125l0 11.5625l-3.359375 0l0 -31.40625l3.359375 0l0 9.515625q0 1.703125 -0.171875 2.84375l0.203125 0q1.0 -1.59375 2.8125 -2.515625q1.828125 -0.921875 4.171875 -0.921875q4.0625 0 6.078125 1.9375q2.03125 1.921875 2.03125 6.125l0 14.421875l-3.34375 0zm13.584717 0l-3.359375 0l0 -22.109375l3.359375 0l0 22.109375zm-3.640625 -28.109375q0 -1.15625 0.5625 -1.6875q0.578125 -0.53125 1.421875 -0.53125q0.796875 0 1.375 0.546875q0.59375 0.546875 0.59375 1.671875q0 1.125 -0.59375 1.6875q-0.578125 0.546875 -1.375 0.546875q-0.84375 0 -1.421875 -0.546875q-0.5625 -0.5625 -0.5625 -1.6875zm17.875 25.75q0.890625 0 1.71875 -0.125q0.828125 -0.140625 1.3125 -0.28125l0 2.5625q-0.546875 0.265625 -1.609375 0.4375q-1.046875 0.171875 -1.890625 0.171875q-6.421875 0 -6.421875 -6.765625l0 -13.15625l-3.171875 0l0 -1.609375l3.171875 -1.390625l1.40625 -4.734375l1.9375 0l0 5.140625l6.421875 0l0 2.59375l-6.421875 0l0 13.015625q0 2.0 0.953125 3.078125q0.953125 1.0625 2.59375 1.0625zm16.79309 2.765625q-4.90625 0 -7.734375 -2.984375q-2.828125 -2.984375 -2.828125 -8.296875q0 -5.34375 2.625 -8.484375q2.640625 -3.15625 7.078125 -3.15625q4.15625 0 6.578125 2.734375q2.421875 2.734375 2.421875 7.203125l0 2.125l-15.234375 0q0.09375 3.890625 1.953125 5.921875q1.875 2.015625 5.265625 2.015625q3.578125 0 7.0625 -1.5l0 2.984375q-1.78125 0.765625 -3.359375 1.09375q-1.578125 0.34375 -3.828125 0.34375zm-0.90625 -20.125q-2.65625 0 -4.25 1.734375q-1.578125 1.734375 -1.859375 4.8125l11.5625 0q0 -3.171875 -1.421875 -4.859375q-1.40625 -1.6875 -4.03125 -1.6875zm23.592773 20.125q-4.796875 0 -7.4375 -2.953125q-2.625 -2.96875 -2.625 -8.375q0 -5.546875 2.671875 -8.5625q2.671875 -3.03125 7.609375 -3.03125q1.59375 0 3.1875 0.34375q1.59375 0.34375 2.5 0.796875l-1.015625 2.84375q-1.125 -0.4375 -2.4375 -0.71875q-1.296875 -0.296875 -2.3125 -0.296875q-6.734375 0 -6.734375 8.59375q0 4.078125 1.640625 6.265625q1.640625 2.171875 4.875 2.171875q2.765625 0 5.671875 -1.203125l0 2.96875q-2.21875 1.15625 -5.59375 1.15625zm17.972168 -2.765625q0.890625 0 1.71875 -0.125q0.828125 -0.140625 1.3125 -0.28125l0 2.5625q-0.546875 0.265625 -1.609375 0.4375q-1.046875 0.171875 -1.890625 0.171875q-6.421875 0 -6.421875 -6.765625l0 -13.15625l-3.171875 0l0 -1.609375l3.171875 -1.390625l1.40625 -4.734375l1.9375 0l0 5.140625l6.421875 0l0 2.59375l-6.421875 0l0 13.015625q0 2.0 0.953125 3.078125q0.953125 1.0625 2.59375 1.0625z" fill-rule="nonzero"/><path fill="#000000" fill-opacity="0.0" d="m326.00787 63.904785l488.9449 0l0 74.29921l-488.9449 0z" fill-rule="evenodd"/><path fill="#4285f4" d="m366.20102 115.14478l0 -31.40625l3.65625 0l0 31.40625l-3.65625 0zm27.845703 0l0 -15.234375q0 -2.875 -1.3125 -4.296875q-1.296875 -1.421875 -4.09375 -1.421875q-3.703125 0 -5.421875 2.0q-1.71875 2.0 -1.71875 6.59375l0 12.359375l-3.5625 0l0 -23.546875l2.90625 0l0.578125 3.21875l0.171875 0q1.09375 -1.734375 3.0625 -2.6875q1.984375 -0.96875 4.40625 -0.96875q4.265625 0 6.40625 2.0625q2.15625 2.046875 2.15625 6.5625l0 15.359375l-3.578125 0zm18.50586 -2.515625q0.9375 0 1.8125 -0.140625q0.890625 -0.140625 1.40625 -0.28125l0 2.71875q-0.578125 0.28125 -1.703125 0.46875q-1.125 0.1875 -2.03125 0.1875q-6.828125 0 -6.828125 -7.203125l0 -14.015625l-3.375 0l0 -1.71875l3.375 -1.484375l1.5 -5.015625l2.0625 0l0 5.453125l6.828125 0l0 2.765625l-6.828125 0l0 13.859375q0 2.125 1.0 3.265625q1.015625 1.140625 2.78125 1.140625zm17.876953 2.953125q-5.21875 0 -8.25 -3.1875q-3.015625 -3.1875 -3.015625 -8.828125q0 -5.703125 2.796875 -9.046875q2.8125 -3.359375 7.546875 -3.359375q4.421875 0 7.0 2.921875q2.578125 2.90625 2.578125 7.671875l0 2.265625l-16.21875 0q0.109375 4.140625 2.09375 6.296875q1.984375 2.140625 5.59375 2.140625q3.796875 0 7.515625 -1.59375l0 3.1875q-1.890625 0.8125 -3.578125 1.171875q-1.6875 0.359375 -4.0625 0.359375zm-0.96875 -21.421875q-2.84375 0 -4.53125 1.84375q-1.6875 1.84375 -1.984375 5.109375l12.3125 0q0 -3.375 -1.5 -5.15625q-1.5 -1.796875 -4.296875 -1.796875zm26.451172 -3.0q1.5625 0 2.8125 0.265625l-0.5 3.3125q-1.453125 -0.328125 -2.578125 -0.328125q-2.859375 0 -4.890625 2.328125q-2.03125 2.3125 -2.03125 5.765625l0 12.640625l-3.5625 0l0 -23.546875l2.9375 0l0.421875 4.359375l0.171875 0q1.296875 -2.296875 3.140625 -3.546875q1.859375 -1.25 4.078125 -1.25zm21.695312 23.984375l-0.71875 -3.359375l-0.171875 0q-1.75 2.21875 -3.5 3.015625q-1.75 0.78125 -4.375 0.78125q-3.5 0 -5.5 -1.8125q-1.984375 -1.8125 -1.984375 -5.140625q0 -7.125 11.40625 -7.46875l4.0 -0.125l0 -1.46875q0 -2.765625 -1.1875 -4.078125q-1.1875 -1.328125 -3.8125 -1.328125q-2.953125 0 -6.65625 1.796875l-1.109375 -2.734375q1.75 -0.9375 3.8125 -1.46875q2.078125 -0.546875 4.171875 -0.546875q4.203125 0 6.234375 1.875q2.03125 1.859375 2.03125 5.984375l0 16.078125l-2.640625 0zm-8.0625 -2.515625q3.328125 0 5.234375 -1.828125q1.90625 -1.828125 1.90625 -5.109375l0 -2.125l-3.578125 0.140625q-4.25 0.15625 -6.125 1.328125q-1.875 1.171875 -1.875 3.640625q0 1.9375 1.15625 2.953125q1.171875 1.0 3.28125 1.0zm27.455078 2.953125q-5.109375 0 -7.921875 -3.140625q-2.796875 -3.15625 -2.796875 -8.921875q0 -5.90625 2.84375 -9.125q2.859375 -3.234375 8.109375 -3.234375q1.703125 0 3.390625 0.375q1.703125 0.359375 2.671875 0.859375l-1.09375 3.03125q-1.1875 -0.484375 -2.578125 -0.78125q-1.390625 -0.3125 -2.46875 -0.3125q-7.171875 0 -7.171875 9.140625q0 4.34375 1.75 6.671875q1.75 2.3125 5.1875 2.3125q2.9375 0 6.03125 -1.265625l0 3.15625q-2.359375 1.234375 -5.953125 1.234375zm19.150421 -2.953125q0.9375 0 1.8125 -0.140625q0.890625 -0.140625 1.40625 -0.28125l0 2.71875q-0.578125 0.28125 -1.703125 0.46875q-1.125 0.1875 -2.03125 0.1875q-6.8281555 0 -6.8281555 -7.203125l0 -14.015625l-3.375 0l0 -1.71875l3.375 -1.484375l1.5 -5.015625l2.0625305 0l0 5.453125l6.828125 0l0 2.765625l-6.828125 0l0 13.859375q0 2.125 1.0 3.265625q1.015625 1.140625 2.78125 1.140625zm11.486328 2.515625l-3.5625 0l0 -23.546875l3.5625 0l0 23.546875zm-3.859375 -29.921875q0 -1.234375 0.59375 -1.796875q0.609375 -0.578125 1.515625 -0.578125q0.859375 0 1.46875 0.59375q0.625 0.578125 0.625 1.78125q0 1.203125 -0.625 1.796875q-0.609375 0.578125 -1.46875 0.578125q-0.90625 0 -1.515625 -0.578125q-0.59375 -0.59375 -0.59375 -1.796875zm31.753906 18.125q0 5.765625 -2.90625 9.0q-2.890625 3.234375 -8.015625 3.234375q-3.15625 0 -5.609375 -1.484375q-2.4375 -1.484375 -3.78125 -4.25q-1.328125 -2.78125 -1.328125 -6.5q0 -5.75 2.875 -8.96875q2.890625 -3.21875 8.0 -3.21875q4.9375 0 7.84375 3.296875q2.921875 3.28125 2.921875 8.890625zm-17.9375 0q0 4.515625 1.796875 6.875q1.8125 2.359375 5.3125 2.359375q3.5 0 5.3125 -2.34375q1.8125 -2.359375 1.8125 -6.890625q0 -4.484375 -1.8125 -6.8125q-1.8125 -2.34375 -5.359375 -2.34375q-3.5 0 -5.28125 2.3125q-1.78125 2.296875 -1.78125 6.84375zm40.29492 11.796875l0 -15.234375q0 -2.875 -1.3125 -4.296875q-1.296875 -1.421875 -4.09375 -1.421875q-3.703125 0 -5.421875 2.0q-1.71875 2.0 -1.71875 6.59375l0 12.359375l-3.5625 0l0 -23.546875l2.90625 0l0.578125 3.21875l0.171875 0q1.09375 -1.734375 3.0625 -2.6875q1.984375 -0.96875 4.40625 -0.96875q4.265625 0 6.40625 2.0625q2.15625 2.046875 2.15625 6.5625l0 15.359375l-3.578125 0zm47.935547 -16.0q0 7.765625 -4.21875 11.890625q-4.21875 4.109375 -12.15625 4.109375l-8.703125 0l0 -31.40625l9.625 0q7.328125 0 11.390625 4.0625q4.0625 4.046875 4.0625 11.34375zm-3.859375 0.125q0 -6.140625 -3.09375 -9.25q-3.078125 -3.125 -9.15625 -3.125l-5.3125 0l0 25.09375l4.453125 0q6.53125 0 9.8125 -3.203125q3.296875 -3.21875 3.296875 -9.515625zm20.279297 16.3125q-5.21875 0 -8.25 -3.1875q-3.015625 -3.1875 -3.015625 -8.828125q0 -5.703125 2.796875 -9.046875q2.8125 -3.359375 7.546875 -3.359375q4.421875 0 7.0 2.921875q2.578125 2.90625 2.578125 7.671875l0 2.265625l-16.21875 0q0.109375 4.140625 2.09375 6.296875q1.984375 2.140625 5.59375 2.140625q3.796875 0 7.515625 -1.59375l0 3.1875q-1.890625 0.8125 -3.578125 1.171875q-1.6875 0.359375 -4.0625 0.359375zm-0.96875 -21.421875q-2.84375 0 -4.53125 1.84375q-1.6875 1.84375 -1.984375 5.109375l12.3125 0q0 -3.375 -1.5 -5.15625q-1.5 -1.796875 -4.296875 -1.796875zm30.888672 14.5625q0 3.28125 -2.453125 5.078125q-2.4375 1.78125 -6.875 1.78125q-4.671875 0 -7.296875 -1.484375l0 -3.3125q1.703125 0.859375 3.640625 1.359375q1.9375 0.484375 3.75 0.484375q2.796875 0 4.296875 -0.890625q1.5 -0.890625 1.5 -2.71875q0 -1.375 -1.1875 -2.34375q-1.1875 -0.984375 -4.65625 -2.3125q-3.28125 -1.234375 -4.671875 -2.140625q-1.390625 -0.921875 -2.0625 -2.078125q-0.671875 -1.15625 -0.671875 -2.765625q0 -2.875 2.34375 -4.546875q2.34375 -1.671875 6.421875 -1.671875q3.796875 0 7.4375 1.546875l-1.28125 2.90625q-3.53125 -1.453125 -6.421875 -1.453125q-2.53125 0 -3.828125 0.796875q-1.28125 0.78125 -1.28125 2.1875q0 0.9375 0.484375 1.609375q0.484375 0.65625 1.546875 1.265625q1.078125 0.59375 4.140625 1.734375q4.1875 1.53125 5.65625 3.078125q1.46875 1.546875 1.46875 3.890625zm9.365234 6.421875l-3.5625 0l0 -23.546875l3.5625 0l0 23.546875zm-3.859375 -29.921875q0 -1.234375 0.59375 -1.796875q0.609375 -0.578125 1.515625 -0.578125q0.859375 0 1.46875 0.59375q0.625 0.578125 0.625 1.78125q0 1.203125 -0.625 1.796875q-0.609375 0.578125 -1.46875 0.578125q-0.90625 0 -1.515625 -0.578125q-0.59375 -0.59375 -0.59375 -1.796875zm30.691406 6.375l0 2.25l-4.359375 0.515625q0.609375 0.75 1.078125 1.96875q0.46875 1.21875 0.46875 2.734375q0 3.46875 -2.359375 5.53125q-2.359375 2.0625 -6.484375 2.0625q-1.0625 0 -1.984375 -0.171875q-2.265625 1.203125 -2.265625 3.03125q0 0.96875 0.78125 1.4375q0.796875 0.453125 2.734375 0.453125l4.171875 0q3.828125 0 5.875 1.609375q2.046875 1.609375 2.046875 4.6875q0 3.90625 -3.140625 5.953125q-3.125 2.0625 -9.140625 2.0625q-4.625 0 -7.125 -1.71875q-2.5 -1.71875 -2.5 -4.859375q0 -2.15625 1.375 -3.734375q1.375 -1.5625 3.859375 -2.109375q-0.90625 -0.40625 -1.515625 -1.265625q-0.609375 -0.859375 -0.609375 -2.0q0 -1.296875 0.6875 -2.265625q0.6875 -0.96875 2.171875 -1.859375q-1.828125 -0.75 -2.984375 -2.546875q-1.140625 -1.8125 -1.140625 -4.140625q0 -3.859375 2.3125 -5.953125q2.328125 -2.109375 6.578125 -2.109375q1.84375 0 3.328125 0.4375l8.140625 0zm-18.765625 27.5q0 1.90625 1.609375 2.890625q1.609375 1.0 4.609375 1.0q4.5 0 6.65625 -1.34375q2.15625 -1.34375 2.15625 -3.640625q0 -1.90625 -1.1875 -2.65625q-1.171875 -0.734375 -4.4375 -0.734375l-4.28125 0q-2.421875 0 -3.78125 1.15625q-1.34375 1.15625 -1.34375 3.328125zm1.921875 -19.953125q0 2.46875 1.390625 3.734375q1.40625 1.265625 3.90625 1.265625q5.21875 0 5.21875 -5.078125q0 -5.296875 -5.28125 -5.296875q-2.515625 0 -3.875 1.359375q-1.359375 1.34375 -1.359375 4.015625zm37.79297 16.0l0 -15.234375q0 -2.875 -1.3125 -4.296875q-1.296875 -1.421875 -4.09375 -1.421875q-3.703125 0 -5.421875 2.0q-1.71875 2.0 -1.71875 6.59375l0 12.359375l-3.5625 0l0 -23.546875l2.90625 0l0.578125 3.21875l0.171875 0q1.09375 -1.734375 3.0625 -2.6875q1.984375 -0.96875 4.40625 -0.96875q4.265625 0 6.40625 2.0625q2.15625 2.046875 2.15625 6.5625l0 15.359375l-3.578125 0zm20.84961 0.4375q-5.21875 0 -8.25 -3.1875q-3.015625 -3.1875 -3.015625 -8.828125q0 -5.703125 2.796875 -9.046875q2.8125 -3.359375 7.546875 -3.359375q4.421875 0 7.0 2.921875q2.578125 2.90625 2.578125 7.671875l0 2.265625l-16.21875 0q0.109375 4.140625 2.09375 6.296875q1.984375 2.140625 5.59375 2.140625q3.796875 0 7.515625 -1.59375l0 3.1875q-1.890625 0.8125 -3.578125 1.171875q-1.6875 0.359375 -4.0625 0.359375zm-0.96875 -21.421875q-2.84375 0 -4.53125 1.84375q-1.6875 1.84375 -1.984375 5.109375l12.3125 0q0 -3.375 -1.5 -5.15625q-1.5 -1.796875 -4.296875 -1.796875zm26.451172 -3.0q1.5625 0 2.8125 0.265625l-0.5 3.3125q-1.453125 -0.328125 -2.578125 -0.328125q-2.859375 0 -4.890625 2.328125q-2.03125 2.3125 -2.03125 5.765625l0 12.640625l-3.5625 0l0 -23.546875l2.9375 0l0.421875 4.359375l0.171875 0q1.296875 -2.296875 3.140625 -3.546875q1.859375 -1.25 4.078125 -1.25z" fill-rule="nonzero"/><path fill="#000000" fill-opacity="0.0" d="m367.89502 125.12861l556.5984 0l0 74.29922l-556.5984 0z" fill-rule="evenodd"/><path fill="#4285f4" d="m428.579 150.86174l0 31.40625q0 8.3125 -5.015625 13.0625q-5.015625 4.75 -13.78125 4.75q-8.765625 0 -13.5625 -4.78125q-4.796875 -4.796875 -4.796875 -13.15625l0 -31.28125l5.65625 0l0 31.671875q0 6.078125 3.3125 9.34375q3.328125 3.25 9.765625 3.25q6.140625 0 9.453125 -3.265625q3.328125 -3.28125 3.328125 -9.390625l0 -31.609375l5.640625 0zm35.490234 38.625q0 5.078125 -3.78125 7.84375q-3.78125 2.75 -10.625 2.75q-7.234375 0 -11.28125 -2.296875l0 -5.109375q2.625 1.328125 5.625 2.09375q3.0 0.75 5.796875 0.75q4.3125 0 6.625 -1.375q2.328125 -1.375 2.328125 -4.203125q0 -2.125 -1.84375 -3.625q-1.828125 -1.515625 -7.1875 -3.578125q-5.078125 -1.890625 -7.21875 -3.296875q-2.140625 -1.421875 -3.1875 -3.203125q-1.046875 -1.796875 -1.046875 -4.28125q0 -4.453125 3.625 -7.03125q3.625 -2.578125 9.921875 -2.578125q5.875 0 11.5 2.390625l-1.96875 4.484375q-5.46875 -2.25 -9.921875 -2.25q-3.921875 0 -5.921875 1.234375q-1.984375 1.21875 -1.984375 3.375q0 1.46875 0.75 2.5q0.75 1.015625 2.40625 1.953125q1.65625 0.921875 6.375 2.6875q6.46875 2.359375 8.734375 4.75q2.28125 2.390625 2.28125 6.015625zm24.345703 10.59375q-8.0625 0 -12.734375 -4.921875q-4.671875 -4.921875 -4.671875 -13.640625q0 -8.8125 4.328125 -13.984375q4.34375 -5.1875 11.65625 -5.1875q6.828125 0 10.8125 4.5q3.984375 4.5 3.984375 11.875l0 3.484375l-25.0625 0q0.171875 6.40625 3.234375 9.734375q3.078125 3.3125 8.65625 3.3125q5.875 0 11.609375 -2.453125l0 4.921875q-2.921875 1.25 -5.53125 1.796875q-2.59375 0.5625 -6.28125 0.5625zm-1.5 -33.109375q-4.375 0 -6.984375 2.859375q-2.609375 2.84375 -3.078125 7.890625l19.03125 0q0 -5.203125 -2.328125 -7.96875q-2.3125 -2.78125 -6.640625 -2.78125zm40.884735 -4.625q2.421875 0 4.34375 0.40625l-0.765625 5.109375q-2.25 -0.5 -3.984375 -0.5q-4.421875 0 -7.5625 3.59375q-3.125 3.578125 -3.125 8.921875l0 19.53125l-5.5155945 0l0 -36.390625l4.5468445 0l0.640625 6.734375l0.265625 0q2.015625 -3.546875 4.875 -5.46875q2.859375 -1.9375 6.28125 -1.9375zm35.28125 16.875l0 20.1875l-5.640625 0l0 -48.546875l13.3125 0q8.9375 0 13.203125 3.421875q4.265625 3.421875 4.265625 10.296875q0 9.625 -9.765625 13.015625l13.1875 21.8125l-6.671875 0l-11.75 -20.1875l-10.140625 0zm0 -4.84375l7.75 0q5.96875 0 8.75 -2.375q2.796875 -2.375 2.796875 -7.125q0 -4.8125 -2.84375 -6.9375q-2.828125 -2.125 -9.109375 -2.125l-7.34375 0l0 18.5625zm50.941406 25.703125q-8.0625 0 -12.734375 -4.921875q-4.671875 -4.921875 -4.671875 -13.640625q0 -8.8125 4.328125 -13.984375q4.34375 -5.1875 11.65625 -5.1875q6.828125 0 10.8125 4.5q3.984375 4.5 3.984375 11.875l0 3.484375l-25.0625 0q0.171875 6.40625 3.234375 9.734375q3.078125 3.3125 8.65625 3.3125q5.875 0 11.609375 -2.453125l0 4.921875q-2.921875 1.25 -5.53125 1.796875q-2.59375 0.5625 -6.28125 0.5625zm-1.5 -33.109375q-4.375 0 -6.984375 2.859375q-2.609375 2.84375 -3.078125 7.890625l19.03125 0q0 -5.203125 -2.328125 -7.96875q-2.3125 -2.78125 -6.640625 -2.78125zm47.74414 22.515625q0 5.078125 -3.78125 7.84375q-3.78125 2.75 -10.625 2.75q-7.234375 0 -11.28125 -2.296875l0 -5.109375q2.625 1.328125 5.625 2.09375q3.0 0.75 5.796875 0.75q4.3125 0 6.625 -1.375q2.328125 -1.375 2.328125 -4.203125q0 -2.125 -1.84375 -3.625q-1.828125 -1.515625 -7.1875 -3.578125q-5.078125 -1.890625 -7.21875 -3.296875q-2.140625 -1.421875 -3.1875 -3.203125q-1.046875 -1.796875 -1.046875 -4.28125q0 -4.453125 3.625 -7.03125q3.625 -2.578125 9.921875 -2.578125q5.875 0 11.5 2.390625l-1.96875 4.484375q-5.46875 -2.25 -9.921875 -2.25q-3.921875 0 -5.921875 1.234375q-1.984375 1.21875 -1.984375 3.375q0 1.46875 0.75 2.5q0.75 1.015625 2.40625 1.953125q1.65625 0.921875 6.375 2.6875q6.46875 2.359375 8.734375 4.75q2.28125 2.390625 2.28125 6.015625zm24.345703 10.59375q-8.0625 0 -12.734375 -4.921875q-4.671875 -4.921875 -4.671875 -13.640625q0 -8.8125 4.328125 -13.984375q4.34375 -5.1875 11.65625 -5.1875q6.828125 0 10.8125 4.5q3.984375 4.5 3.984375 11.875l0 3.484375l-25.0625 0q0.171875 6.40625 3.234375 9.734375q3.078125 3.3125 8.65625 3.3125q5.875 0 11.609375 -2.453125l0 4.921875q-2.921875 1.25 -5.53125 1.796875q-2.59375 0.5625 -6.28125 0.5625zm-1.5 -33.109375q-4.375 0 -6.984375 2.859375q-2.609375 2.84375 -3.078125 7.890625l19.03125 0q0 -5.203125 -2.328125 -7.96875q-2.3125 -2.78125 -6.640625 -2.78125zm46.65039 32.4375l-1.09375 -5.1875l-0.265625 0q-2.71875 3.421875 -5.421875 4.640625q-2.703125 1.21875 -6.765625 1.21875q-5.40625 0 -8.484375 -2.796875q-3.0625 -2.796875 -3.0625 -7.9375q0 -11.015625 17.625 -11.546875l6.171875 -0.203125l0 -2.265625q0 -4.28125 -1.84375 -6.3125q-1.828125 -2.046875 -5.890625 -2.046875q-4.546875 0 -10.28125 2.78125l-1.703125 -4.21875q2.6875 -1.453125 5.890625 -2.28125q3.203125 -0.828125 6.4375 -0.828125q6.5 0 9.640625 2.890625q3.140625 2.875 3.140625 9.25l0 24.84375l-4.09375 0zm-12.453125 -3.890625q5.15625 0 8.09375 -2.8125q2.9375 -2.828125 2.9375 -7.90625l0 -3.28125l-5.515625 0.21875q-6.578125 0.234375 -9.484375 2.046875q-2.890625 1.8125 -2.890625 5.625q0 3.0 1.796875 4.5625q1.8125 1.546875 5.0625 1.546875zm44.50586 -33.171875q2.421875 0 4.34375 0.40625l-0.765625 5.109375q-2.25 -0.5 -3.984375 -0.5q-4.421875 0 -7.5625 3.59375q-3.125 3.578125 -3.125 8.921875l0 19.53125l-5.515625 0l0 -36.390625l4.546875 0l0.640625 6.734375l0.265625 0q2.015625 -3.546875 4.875 -5.46875q2.859375 -1.9375 6.28125 -1.9375zm25.695312 37.734375q-7.90625 0 -12.25 -4.859375q-4.328125 -4.875 -4.328125 -13.78125q0 -9.125 4.40625 -14.109375q4.40625 -4.984375 12.53125 -4.984375q2.625 0 5.25 0.578125q2.625 0.5625 4.109375 1.328125l-1.6875 4.671875q-1.828125 -0.734375 -3.984375 -1.203125q-2.15625 -0.484375 -3.8125 -0.484375q-11.09375 0 -11.09375 14.140625q0 6.703125 2.703125 10.296875q2.703125 3.578125 8.015625 3.578125q4.546875 0 9.328125 -1.953125l0 4.875q-3.640625 1.90625 -9.1875 1.90625zm42.73242 -0.671875l0 -23.546875q0 -4.4375 -2.03125 -6.625q-2.015625 -2.203125 -6.34375 -2.203125q-5.734375 0 -8.375 3.125q-2.640625 3.125 -2.640625 10.21875l0 19.03125l-5.515625 0l0 -51.671875l5.515625 0l0 15.640625q0 2.828125 -0.265625 4.6875l0.328125 0q1.625 -2.625 4.625 -4.125q3.015625 -1.515625 6.859375 -1.515625q6.671875 0 10.015625 3.171875q3.34375 3.171875 3.34375 10.078125l0 23.734375l-5.515625 0zm32.20508 0.671875q-8.0625 0 -12.734375 -4.921875q-4.671875 -4.921875 -4.671875 -13.640625q0 -8.8125 4.328125 -13.984375q4.34375 -5.1875 11.65625 -5.1875q6.828125 0 10.8125 4.5q3.984375 4.5 3.984375 11.875l0 3.484375l-25.0625 0q0.171875 6.40625 3.234375 9.734375q3.078125 3.3125 8.65625 3.3125q5.875 0 11.609375 -2.453125l0 4.921875q-2.921875 1.25 -5.53125 1.796875q-2.59375 0.5625 -6.28125 0.5625zm-1.5 -33.109375q-4.375 0 -6.984375 2.859375q-2.609375 2.84375 -3.078125 7.890625l19.03125 0q0 -5.203125 -2.328125 -7.96875q-2.3125 -2.78125 -6.640625 -2.78125zm40.884766 -4.625q2.421875 0 4.34375 0.40625l-0.765625 5.109375q-2.25 -0.5 -3.984375 -0.5q-4.421875 0 -7.5625 3.59375q-3.125 3.578125 -3.125 8.921875l0 19.53125l-5.515625 0l0 -36.390625l4.546875 0l0.640625 6.734375l0.265625 0q2.015625 -3.546875 4.875 -5.46875q2.859375 -1.9375 6.28125 -1.9375z" fill-rule="nonzero"/><path fill="#000000" fill-opacity="0.0" d="m160.23885 267.70865l761.3544 0l0 124.81891l-761.3544 0z" fill-rule="evenodd"/><path fill="#4285f4" d="m222.38866 316.67303q0 9.53125 -6.515625 14.671875q-6.5 5.140625 -18.625 5.140625l-7.390625 0l0 24.703125l-7.296875 0l0 -62.828125l16.28125 0q23.546875 0 23.546875 18.3125zm-32.53125 13.53125l6.578125 0q9.71875 0 14.046875 -3.125q4.34375 -3.140625 4.34375 -10.0625q0 -6.234375 -4.078125 -9.28125q-4.078125 -3.046875 -12.71875 -3.046875l-8.171875 0l0 25.515625zm66.08984 -16.96875q3.1406097 0 5.6249847 0.515625l-0.984375 6.609375q-2.921875 -0.640625 -5.1562347 -0.640625q-5.71875 0 -9.78125 4.640625q-4.046875 4.640625 -4.046875 11.5625l0 25.265625l-7.140625 0l0 -47.09375l5.890625 0l0.8125 8.71875l0.34375 0q2.625 -4.59375 6.3125 -7.078125q3.703125 -2.5 8.125 -2.5zm55.093735 24.359375q0 11.515625 -5.8125 17.984375q-5.796875 6.46875 -16.015625 6.46875q-6.328125 0 -11.234375 -2.96875q-4.890625 -2.96875 -7.5625 -8.5q-2.65625 -5.546875 -2.65625 -12.984375q0 -11.515625 5.75 -17.9375q5.765625 -6.421875 16.0 -6.421875q9.875 0 15.703125 6.578125q5.828125 6.5625 5.828125 17.78125zm-35.890625 0q0 9.03125 3.609375 13.765625q3.609375 4.71875 10.625 4.71875q7.0 0 10.625 -4.703125q3.640625 -4.71875 3.640625 -13.78125q0 -8.984375 -3.640625 -13.640625q-3.625 -4.65625 -10.71875 -4.65625q-7.0 0 -10.578125 4.59375q-3.5625 4.59375 -3.5625 13.703125zm80.44922 17.28125l-0.390625 0q-4.9375 7.171875 -14.78125 7.171875q-9.234375 0 -14.375 -6.3125q-5.140625 -6.328125 -5.140625 -17.96875q0 -11.640625 5.15625 -18.078125q5.15625 -6.453125 14.359375 -6.453125q9.578125 0 14.6875 6.953125l0.5625 0l-0.296875 -3.390625l-0.171875 -3.3125l0 -19.15625l7.125 0l0 66.859375l-5.796875 0l-0.9375 -6.3125zm-14.265625 1.203125q7.296875 0 10.578125 -3.96875q3.296875 -3.984375 3.296875 -12.84375l0 -1.5q0 -10.015625 -3.328125 -14.28125q-3.328125 -4.28125 -10.640625 -4.28125q-6.265625 0 -9.609375 4.875q-3.328125 4.875 -3.328125 13.78125q0 9.015625 3.3125 13.625q3.3125 4.59375 9.71875 4.59375zm42.83203 -41.984375l0 30.546875q0 5.765625 2.625 8.609375q2.625 2.828125 8.203125 2.828125q7.390625 0 10.796875 -4.03125q3.421875 -4.046875 3.421875 -13.203125l0 -24.75l7.140625 0l0 47.09375l-5.890625 0l-1.03125 -6.3125l-0.390625 0q-2.1875 3.46875 -6.078125 5.328125q-3.890625 1.84375 -8.875 1.84375q-8.59375 0 -12.875 -4.078125q-4.265625 -4.09375 -4.265625 -13.0625l0 -30.8125l7.21875 0zm66.13672 47.953125q-10.234375 0 -15.84375 -6.296875q-5.609375 -6.296875 -5.609375 -17.8125q0 -11.8125 5.6875 -18.25q5.703125 -6.453125 16.234375 -6.453125q3.390625 0 6.78125 0.734375q3.40625 0.71875 5.328125 1.71875l-2.1875 6.046875q-2.359375 -0.9375 -5.15625 -1.5625q-2.796875 -0.625 -4.9375 -0.625q-14.359375 0 -14.359375 18.3125q0 8.671875 3.5 13.3125q3.515625 4.640625 10.390625 4.640625q5.875 0 12.0625 -2.53125l0 6.3125q-4.71875 2.453125 -11.890625 2.453125zm38.285156 -5.890625q1.890625 0 3.640625 -0.28125q1.765625 -0.28125 2.796875 -0.578125l0 5.453125q-1.15625 0.5625 -3.421875 0.921875q-2.25 0.375 -4.046875 0.375q-13.671875 0 -13.671875 -14.390625l0 -28.015625l-6.75 0l0 -3.4375l6.75 -2.96875l3.015625 -10.0625l4.125 0l0 10.921875l13.65625 0l0 5.546875l-13.65625 0l0 27.703125q0 4.265625 2.015625 6.546875q2.015625 2.265625 5.546875 2.265625zm75.23831 -11.6875q0 8.296875 -6.015625 12.9375q-6.015625 4.640625 -16.328125 4.640625q-11.171875 0 -17.1875 -2.875l0 -7.046875q3.859375 1.625 8.40625 2.578125q4.5625 0.9375 9.03125 0.9375q7.3125 0 11.0 -2.765625q3.703125 -2.78125 3.703125 -7.71875q0 -3.265625 -1.3125 -5.34375q-1.3125 -2.09375 -4.390625 -3.84375q-3.0625 -1.765625 -9.34375 -4.0q-8.765625 -3.140625 -12.53125 -7.4375q-3.75 -4.296875 -3.75 -11.21875q0 -7.25 5.453125 -11.546875q5.453125 -4.296875 14.4375 -4.296875q9.375 0 17.234375 3.4375l-2.28125 6.359375q-7.78125 -3.265625 -15.125 -3.265625q-5.796875 0 -9.0625 2.5q-3.265625 2.484375 -3.265625 6.90625q0 3.265625 1.203125 5.359375q1.203125 2.078125 4.0625 3.8125q2.859375 1.734375 8.734375 3.84375q9.890625 3.53125 13.609375 7.578125q3.71875 4.03125 3.71875 10.46875zm26.984375 11.6875q1.890625 0 3.640625 -0.28125q1.765625 -0.28125 2.796875 -0.578125l0 5.453125q-1.15625 0.5625 -3.421875 0.921875q-2.25 0.375 -4.046875 0.375q-13.671875 0 -13.671875 -14.390625l0 -28.015625l-6.75 0l0 -3.4375l6.75 -2.96875l3.015625 -10.0625l4.125 0l0 10.921875l13.65625 0l0 5.546875l-13.65625 0l0 27.703125q0 4.265625 2.015625 6.546875q2.015625 2.265625 5.546875 2.265625zm37.33203 -42.921875q3.140625 0 5.625 0.515625l-0.984375 6.609375q-2.921875 -0.640625 -5.15625 -0.640625q-5.71875 0 -9.78125 4.640625q-4.046875 4.640625 -4.046875 11.5625l0 25.265625l-7.140625 0l0 -47.09375l5.890625 0l0.8125 8.71875l0.34375 0q2.625 -4.59375 6.3125 -7.078125q3.703125 -2.5 8.125 -2.5zm43.40625 47.953125l-1.421875 -6.703125l-0.34375 0q-3.53125 4.421875 -7.03125 6.0q-3.5 1.5625 -8.734375 1.5625q-7.015625 0 -10.984375 -3.609375q-3.96875 -3.609375 -3.96875 -10.265625q0 -14.265625 22.8125 -14.953125l7.984375 -0.265625l0 -2.921875q0 -5.546875 -2.390625 -8.1875q-2.375 -2.640625 -7.609375 -2.640625q-5.890625 0 -13.328125 3.609375l-2.1875 -5.453125q3.484375 -1.890625 7.625 -2.96875q4.140625 -1.078125 8.3125 -1.078125q8.421875 0 12.484314 3.75q4.0625 3.734375 4.0625 11.984375l0 32.140625l-5.281189 0zm-16.125 -5.03125q6.671875 0 10.46875 -3.640625q3.796875 -3.65625 3.796875 -10.234375l0 -4.25l-7.125 0.296875q-8.515625 0.296875 -12.28125 2.640625q-3.75 2.34375 -3.75 7.28125q0 3.875 2.34375 5.890625q2.34375 2.015625 6.546875 2.015625zm51.316345 0q1.890625 0 3.640625 -0.28125q1.765625 -0.28125 2.796875 -0.578125l0 5.453125q-1.15625 0.5625 -3.421875 0.921875q-2.25 0.375 -4.046875 0.375q-13.671875 0 -13.671875 -14.390625l0 -28.015625l-6.75 0l0 -3.4375l6.75 -2.96875l3.015625 -10.0625l4.125 0l0 10.921875l13.65625 0l0 5.546875l-13.65625 0l0 27.703125q0 4.265625 2.015625 6.546875q2.015625 2.265625 5.546875 2.265625zm35.73828 5.890625q-10.4375 0 -16.484375 -6.359375q-6.03125 -6.359375 -6.03125 -17.65625q0 -11.390625 5.609375 -18.09375q5.609375 -6.703125 15.0625 -6.703125q8.859375 0 14.015625 5.828125q5.15625 5.8125 5.15625 15.359375l0 4.5l-32.453125 0q0.21875 8.296875 4.1875 12.59375q3.984375 4.296875 11.203125 4.296875q7.609375 0 15.03125 -3.171875l0 6.359375q-3.78125 1.625 -7.15625 2.328125q-3.359375 0.71875 -8.140625 0.71875zm-1.921875 -42.84375q-5.671875 0 -9.046875 3.703125q-3.375 3.6875 -3.984375 10.21875l24.625 0q0 -6.75 -3.015625 -10.328125q-3.0 -3.59375 -8.578125 -3.59375zm69.94922 -5.109375l0 4.515625l-8.71875 1.03125q1.203125 1.5 2.140625 3.9375q0.953125 2.421875 0.953125 5.46875q0 6.921875 -4.734375 11.046875q-4.71875 4.125 -12.96875 4.125q-2.109375 0 -3.953125 -0.34375q-4.5625 2.40625 -4.5625 6.046875q0 1.9375 1.59375 2.859375q1.59375 0.921875 5.453125 0.921875l8.34375 0q7.640625 0 11.734375 3.234375q4.109375 3.21875 4.109375 9.359375q0 7.828125 -6.28125 11.921875q-6.265625 4.109375 -18.296875 4.109375q-9.234375 0 -14.25 -3.4375q-5.0 -3.4375 -5.0 -9.703125q0 -4.296875 2.75 -7.4375q2.75 -3.140625 7.734375 -4.265625q-1.796875 -0.8125 -3.03125 -2.53125q-1.21875 -1.71875 -1.21875 -4.0q0 -2.578125 1.375 -4.5q1.375 -1.9375 4.34375 -3.75q-3.65625 -1.5 -5.953125 -5.109375q-2.296875 -3.609375 -2.296875 -8.25q0 -7.734375 4.640625 -11.921875q4.640625 -4.1875 13.140625 -4.1875q3.703125 0 6.671875 0.859375l16.28125 0zm-37.5625 55.0q0 3.828125 3.21875 5.796875q3.234375 1.984375 9.25 1.984375q8.984375 0 13.296875 -2.6875q4.3125 -2.6875 4.3125 -7.28125q0 -3.828125 -2.359375 -5.3125q-2.359375 -1.484375 -8.890625 -1.484375l-8.546875 0q-4.859375 0 -7.578125 2.3125q-2.703125 2.328125 -2.703125 6.671875zm3.875 -39.921875q0 4.9375 2.78125 7.484375q2.796875 2.53125 7.78125 2.53125q10.453125 0 10.453125 -10.140625q0 -10.609375 -10.578125 -10.609375q-5.03125 0 -7.734375 2.703125q-2.703125 2.703125 -2.703125 8.03125zm50.492188 32.015625l-7.140625 0l0 -47.09375l7.140625 0l0 47.09375zm-7.734375 -59.859375q0 -2.453125 1.203125 -3.578125q1.203125 -1.140625 3.0 -1.140625q1.71875 0 2.96875 1.15625q1.25 1.15625 1.25 3.5625q0 2.40625 -1.25 3.59375q-1.25 1.171875 -2.96875 1.171875q-1.796875 0 -3.0 -1.171875q-1.203125 -1.1875 -1.203125 -3.59375zm53.226562 47.015625q0 6.5625 -4.90625 10.140625q-4.890625 3.5625 -13.734375 3.5625q-9.375 0 -14.609375 -2.96875l0 -6.609375q3.390625 1.71875 7.28125 2.703125q3.890625 0.984375 7.5 0.984375q5.578125 0 8.578125 -1.78125q3.015625 -1.78125 3.015625 -5.4375q0 -2.75 -2.390625 -4.703125q-2.375 -1.953125 -9.296875 -4.625q-6.5625 -2.4375 -9.34375 -4.265625q-2.765625 -1.828125 -4.125 -4.140625q-1.34375 -2.328125 -1.34375 -5.546875q0 -5.765625 4.671875 -9.09375q4.6875 -3.328125 12.859375 -3.328125q7.59375 0 14.859375 3.09375l-2.53125 5.796875q-7.09375 -2.921875 -12.84375 -2.921875q-5.078125 0 -7.65625 1.59375q-2.578125 1.59375 -2.578125 4.375q0 1.890625 0.96875 3.234375q0.96875 1.328125 3.109375 2.53125q2.15625 1.203125 8.25 3.484375q8.390625 3.046875 11.328125 6.140625q2.9375 3.09375 2.9375 7.78125zm26.824219 7.8125q1.890625 0 3.640625 -0.28125q1.765625 -0.28125 2.796875 -0.578125l0 5.453125q-1.15625 0.5625 -3.421875 0.921875q-2.25 0.375 -4.046875 0.375q-13.671875 0 -13.671875 -14.390625l0 -28.015625l-6.75 0l0 -3.4375l6.75 -2.96875l3.015625 -10.0625l4.125 0l0 10.921875l13.65625 0l0 5.546875l-13.65625 0l0 27.703125q0 4.265625 2.015625 6.546875q2.015625 2.265625 5.546875 2.265625z" fill-rule="nonzero"/><path fill="#000000" fill-opacity="0.0" d="m211.5328 375.89438l660.4409 0l0 86.20474l-660.4409 0z" fill-rule="evenodd"/><path fill="#46bdc6" d="m233.41727 443.77438l0 -43.78125l5.09375 0l0 43.78125l-5.09375 0zm38.817566 0l0 -21.234375q0 -4.015625 -1.828125 -5.984375q-1.828125 -1.984375 -5.71875 -1.984375q-5.15625 0 -7.5625 2.796875q-2.390625 2.78125 -2.390625 9.1875l0 17.21875l-4.96875 0l0 -32.8125l4.046875 0l0.8125 4.484375l0.234375 0q1.53125 -2.421875 4.28125 -3.75q2.75 -1.34375 6.140625 -1.34375q5.9375 0 8.921875 2.859375q3.0 2.859375 3.0 9.15625l0 21.40625l-4.96875 0zm29.969482 -28.953125l-8.359375 0l0 28.953125l-4.96875 0l0 -28.953125l-5.859375 0l0 -2.25l5.859375 -1.796875l0 -1.828125q0 -12.09375 10.578125 -12.09375q2.59375 0 6.109375 1.046875l-1.296875 3.984375q-2.875 -0.9375 -4.90625 -0.9375q-2.8125 0 -4.171875 1.875q-1.34375 1.875 -1.34375 6.0l0 2.140625l8.359375 0l0 3.859375zm34.313324 12.515625q0 8.015625 -4.046875 12.53125q-4.03125 4.5 -11.15625 4.5q-4.40625 0 -7.828125 -2.0625q-3.40625 -2.0625 -5.265625 -5.921875q-1.859375 -3.875 -1.859375 -9.046875q0 -8.03125 4.015625 -12.5q4.015625 -4.484375 11.140625 -4.484375q6.890625 0 10.9375 4.59375q4.0625 4.578125 4.0625 12.390625zm-25.0 0q0 6.28125 2.515625 9.578125q2.515625 3.296875 7.390625 3.296875q4.890625 0 7.421875 -3.28125q2.53125 -3.28125 2.53125 -9.59375q0 -6.265625 -2.53125 -9.515625q-2.53125 -3.25 -7.46875 -3.25q-4.890625 0 -7.375 3.21875q-2.484375 3.203125 -2.484375 9.546875zm48.6987 -16.984375q2.171875 0 3.921875 0.359375l-0.6875 4.609375q-2.046875 -0.4375 -3.59375 -0.4375q-3.984375 0 -6.828125 3.234375q-2.828125 3.234375 -2.828125 8.046875l0 17.609375l-4.96875 0l0 -32.8125l4.109375 0l0.5625 6.078125l0.25 0q1.828125 -3.21875 4.390625 -4.953125q2.578125 -1.734375 5.671875 -1.734375zm51.893707 33.421875l0 -21.34375q0 -3.9375 -1.6875 -5.890625q-1.671875 -1.96875 -5.203125 -1.96875q-4.640625 0 -6.859375 2.671875q-2.21875 2.671875 -2.21875 8.203125l0 18.328125l-4.96875 0l0 -21.34375q0 -3.9375 -1.6875 -5.890625q-1.671875 -1.96875 -5.234375 -1.96875q-4.671875 0 -6.84375 2.8125q-2.171875 2.796875 -2.171875 9.171875l0 17.21875l-4.96875 0l0 -32.8125l4.046875 0l0.8125 4.484375l0.234375 0q1.40625 -2.390625 3.96875 -3.734375q2.5625 -1.359375 5.734375 -1.359375q7.703125 0 10.0625 5.578125l0.234375 0q1.46875 -2.578125 4.25 -4.078125q2.796875 -1.5 6.359375 -1.5q5.5625 0 8.328125 2.859375q2.78125 2.859375 2.78125 9.15625l0 21.40625l-4.96875 0zm35.38968 0l-0.984375 -4.671875l-0.25 0q-2.453125 3.078125 -4.890625 4.171875q-2.4375 1.09375 -6.09375 1.09375q-4.875 0 -7.65625 -2.515625q-2.765625 -2.515625 -2.765625 -7.15625q0 -9.9375 15.90625 -10.421875l5.5625 -0.171875l0 -2.03125q0 -3.875 -1.65625 -5.703125q-1.65625 -1.84375 -5.3125 -1.84375q-4.109375 0 -9.28125 2.515625l-1.53125 -3.8125q2.421875 -1.3125 5.3125 -2.0625q2.890625 -0.75 5.796875 -0.75q5.875 0 8.703125 2.609375q2.828125 2.59375 2.828125 8.34375l0 22.40625l-3.6875 0zm-11.234375 -3.5q4.640625 0 7.296875 -2.546875q2.65625 -2.546875 2.65625 -7.125l0 -2.96875l-4.984375 0.203125q-5.921875 0.21875 -8.546875 1.859375q-2.609375 1.625 -2.609375 5.0625q0 2.703125 1.625 4.109375q1.640625 1.40625 4.5625 1.40625zm35.764038 0q1.3125 0 2.53125 -0.1875q1.234375 -0.203125 1.953125 -0.421875l0 3.8125q-0.8125 0.390625 -2.390625 0.640625q-1.5625 0.25 -2.8125 0.25q-9.53125 0 -9.53125 -10.03125l0 -19.515625l-4.703125 0l0 -2.40625l4.703125 -2.0625l2.09375 -7.0l2.875 0l0 7.609375l9.53125 0l0 3.859375l-9.53125 0l0 19.3125q0 2.96875 1.40625 4.5625q1.421875 1.578125 3.875 1.578125zm16.009888 3.5l-4.96875 0l0 -32.8125l4.96875 0l0 32.8125zm-5.390625 -41.71875q0 -1.703125 0.84375 -2.5q0.84375 -0.796875 2.09375 -0.796875q1.203125 0 2.0625 0.8125q0.875 0.8125 0.875 2.484375q0 1.6875 -0.875 2.515625q-0.859375 0.8125 -2.0625 0.8125q-1.25 0 -2.09375 -0.8125q-0.84375 -0.828125 -0.84375 -2.515625zm44.26175 25.28125q0 8.015625 -4.046875 12.53125q-4.03125 4.5 -11.1562805 4.5q-4.40625 0 -7.828125 -2.0625q-3.40625 -2.0625 -5.265625 -5.921875q-1.859375 -3.875 -1.859375 -9.046875q0 -8.03125 4.015625 -12.5q4.015625 -4.484375 11.140625 -4.484375q6.8906555 0 10.9375305 4.59375q4.0625 4.578125 4.0625 12.390625zm-25.00003 0q0 6.28125 2.515625 9.578125q2.515625 3.296875 7.390625 3.296875q4.8906555 0 7.4219055 -3.28125q2.53125 -3.28125 2.53125 -9.59375q0 -6.265625 -2.53125 -9.515625q-2.53125 -3.25 -7.4687805 -3.25q-4.890625 0 -7.375 3.21875q-2.484375 3.203125 -2.484375 9.546875zm56.183075 16.4375l0 -21.234375q0 -4.015625 -1.828125 -5.984375q-1.828125 -1.984375 -5.71875 -1.984375q-5.15625 0 -7.5625 2.796875q-2.390625 2.78125 -2.390625 9.1875l0 17.21875l-4.96875 0l0 -32.8125l4.046875 0l0.8125 4.484375l0.234375 0q1.53125 -2.421875 4.28125 -3.75q2.75 -1.34375 6.140625 -1.34375q5.9375 0 8.921875 2.859375q3.0 2.859375 3.0 9.15625l0 21.40625l-4.96875 0zm56.853516 -43.78125l5.484375 0l-15.78125 43.78125l-5.03125 0l-15.6875 -43.78125l5.390625 0l10.0625 28.328125q1.734375 4.875 2.75 9.5q1.078125 -4.859375 2.8125 -9.671875l10.0 -28.15625zm15.722168 43.78125l-4.96875 0l0 -32.8125l4.96875 0l0 32.8125zm-5.390625 -41.71875q0 -1.703125 0.84375 -2.5q0.84375 -0.796875 2.09375 -0.796875q1.203125 0 2.0625 0.8125q0.875 0.8125 0.875 2.484375q0 1.6875 -0.875 2.515625q-0.859375 0.8125 -2.0625 0.8125q-1.25 0 -2.09375 -0.8125q-0.84375 -0.828125 -0.84375 -2.515625zm37.10547 32.765625q0 4.578125 -3.421875 7.0625q-3.40625 2.484375 -9.5625 2.484375q-6.53125 0 -10.1875 -2.0625l0 -4.609375q2.359375 1.203125 5.0625 1.890625q2.71875 0.6875 5.234375 0.6875q3.890625 0 5.984375 -1.234375q2.109375 -1.25 2.109375 -3.796875q0 -1.921875 -1.671875 -3.28125q-1.65625 -1.359375 -6.484375 -3.21875q-4.578125 -1.703125 -6.515625 -2.96875q-1.921875 -1.28125 -2.875 -2.890625q-0.9375 -1.625 -0.9375 -3.875q0 -4.015625 3.265625 -6.328125q3.265625 -2.328125 8.953125 -2.328125q5.296875 0 10.359375 2.15625l-1.765625 4.046875q-4.9375 -2.03125 -8.953125 -2.03125q-3.53125 0 -5.328125 1.109375q-1.796875 1.09375 -1.796875 3.046875q0 1.3125 0.671875 2.25q0.671875 0.921875 2.171875 1.765625q1.5 0.828125 5.75 2.421875q5.84375 2.125 7.890625 4.28125q2.046875 2.15625 2.046875 5.421875zm12.756653 -23.859375l0 21.28125q0 4.015625 1.828125 6.0q1.828125 1.96875 5.71875 1.96875q5.15625 0 7.53125 -2.8125q2.390625 -2.8125 2.390625 -9.203125l0 -17.234375l4.96875 0l0 32.8125l-4.109375 0l-0.71875 -4.40625l-0.265625 0q-1.53125 2.4375 -4.25 3.71875q-2.703125 1.28125 -6.171875 1.28125q-5.984375 0 -8.96875 -2.84375q-2.984375 -2.84375 -2.984375 -9.09375l0 -21.46875l5.03125 0zm53.156982 32.8125l-0.984375 -4.671875l-0.25 0q-2.453125 3.078125 -4.890625 4.171875q-2.4375 1.09375 -6.09375 1.09375q-4.875 0 -7.65625 -2.515625q-2.765625 -2.515625 -2.765625 -7.15625q0 -9.9375 15.90625 -10.421875l5.5625 -0.171875l0 -2.03125q0 -3.875 -1.65625 -5.703125q-1.65625 -1.84375 -5.3125 -1.84375q-4.109375 0 -9.28125 2.515625l-1.53125 -3.8125q2.421875 -1.3125 5.3125 -2.0625q2.890625 -0.75 5.796875 -0.75q5.875 0 8.703125 2.609375q2.828125 2.59375 2.828125 8.34375l0 22.40625l-3.6875 0zm-11.234375 -3.5q4.640625 0 7.296875 -2.546875q2.65625 -2.546875 2.65625 -7.125l0 -2.96875l-4.984375 0.203125q-5.921875 0.21875 -8.546875 1.859375q-2.609375 1.625 -2.609375 5.0625q0 2.703125 1.625 4.109375q1.640625 1.40625 4.5625 1.40625zm30.123413 3.5l-4.96875 0l0 -46.59375l4.96875 0l0 46.59375zm15.511719 0l-4.96875 0l0 -32.8125l4.96875 0l0 32.8125zm-5.390625 -41.71875q0 -1.703125 0.84375 -2.5q0.84375 -0.796875 2.09375 -0.796875q1.203125 0 2.0625 0.8125q0.875 0.8125 0.875 2.484375q0 1.6875 -0.875 2.515625q-0.859375 0.8125 -2.0625 0.8125q-1.25 0 -2.09375 -0.8125q-0.84375 -0.828125 -0.84375 -2.515625zm36.933594 41.71875l-23.8125 0l0 -3.390625l17.90625 -25.5625l-16.796875 0l0 -3.859375l22.25 0l0 3.859375l-17.671875 25.09375l18.125 0l0 3.859375zm21.562683 0.59375q-7.28125 0 -11.5 -4.421875q-4.203125 -4.4375 -4.203125 -12.3125q0 -7.9375 3.90625 -12.609375q3.921875 -4.671875 10.5 -4.671875q6.171875 0 9.765625 4.0625q3.59375 4.0625 3.59375 10.703125l0 3.140625l-22.609375 0q0.15625 5.78125 2.921875 8.78125q2.765625 2.984375 7.796875 2.984375q5.296875 0 10.484375 -2.203125l0 4.421875q-2.640625 1.140625 -5.0 1.625q-2.34375 0.5 -5.65625 0.5zm-1.359375 -29.84375q-3.953125 0 -6.296875 2.578125q-2.34375 2.5625 -2.765625 7.125l17.15625 0q0 -4.703125 -2.09375 -7.203125q-2.09375 -2.5 -6.0 -2.5zm36.875977 -4.171875q2.171875 0 3.921875 0.359375l-0.6875 4.609375q-2.046875 -0.4375 -3.59375 -0.4375q-3.984375 0 -6.828125 3.234375q-2.828125 3.234375 -2.828125 8.046875l0 17.609375l-4.96875 0l0 -32.8125l4.109375 0l0.5625 6.078125l0.25 0q1.828125 -3.21875 4.390625 -4.953125q2.578125 -1.734375 5.671875 -1.734375z" fill-rule="nonzero"/><path fill="#000000" fill-opacity="0.0" d="m667.59326 21.282946l250.51971 0l0 50.83465l-250.51971 0z" fill-rule="evenodd"/><path fill="#46bdc6" d="m727.2936 35.544197l1.90625 0l-5.484375 15.21875l-1.75 0l-5.453125 -15.21875l1.875 0l3.5 9.84375q0.609375 1.703125 0.953125 3.296875q0.375 -1.6875 0.984375 -3.359375l3.46875 -9.78125zm5.476074 15.21875l-1.734375 0l0 -11.40625l1.734375 0l0 11.40625zm-1.875 -14.5q0 -0.59375 0.28125 -0.875q0.296875 -0.28125 0.734375 -0.28125q0.421875 0 0.71875 0.28125q0.3125 0.28125 0.3125 0.875q0 0.578125 -0.3125 0.875q-0.296875 0.28125 -0.71875 0.28125q-0.4375 0 -0.734375 -0.28125q-0.28125 -0.296875 -0.28125 -0.875zm12.910156 11.390625q0 1.59375 -1.1875 2.453125q-1.1875 0.859375 -3.34375 0.859375q-2.265625 0 -3.53125 -0.71875l0 -1.59375q0.8125 0.40625 1.75 0.65625q0.953125 0.234375 1.828125 0.234375q1.359375 0 2.078125 -0.421875q0.734375 -0.4375 0.734375 -1.328125q0 -0.671875 -0.578125 -1.140625q-0.578125 -0.46875 -2.25 -1.125q-1.59375 -0.59375 -2.265625 -1.03125q-0.671875 -0.4375 -1.0 -1.0q-0.328125 -0.5625 -0.328125 -1.34375q0 -1.40625 1.125 -2.203125q1.140625 -0.8125 3.125 -0.8125q1.84375 0 3.59375 0.75l-0.609375 1.40625q-1.71875 -0.703125 -3.109375 -0.703125q-1.234375 0 -1.859375 0.390625q-0.625 0.375 -0.625 1.046875q0 0.46875 0.234375 0.796875q0.234375 0.3125 0.75 0.609375q0.53125 0.28125 2.0 0.84375q2.03125 0.734375 2.75 1.484375q0.71875 0.75 0.71875 1.890625zm4.4246216 -8.296875l0 7.390625q0 1.40625 0.640625 2.09375q0.640625 0.6875 1.984375 0.6875q1.796875 0 2.625 -0.984375q0.828125 -0.984375 0.828125 -3.203125l0 -5.984375l1.71875 0l0 11.40625l-1.421875 0l-0.25 -1.53125l-0.09375 0q-0.53125 0.84375 -1.46875 1.296875q-0.9375 0.4375 -2.15625 0.4375q-2.078125 0 -3.125 -0.984375q-1.03125 -0.984375 -1.03125 -3.171875l0 -7.453125l1.75 0zm18.496765 11.40625l-0.34375 -1.625l-0.09375 0q-0.84375 1.078125 -1.703125 1.453125q-0.84375 0.375 -2.109375 0.375q-1.703125 0 -2.671875 -0.875q-0.953125 -0.875 -0.953125 -2.484375q0 -3.453125 5.53125 -3.625l1.9375 -0.0625l0 -0.703125q0 -1.34375 -0.578125 -1.984375q-0.578125 -0.640625 -1.859375 -0.640625q-1.421875 0 -3.21875 0.875l-0.53125 -1.328125q0.84375 -0.453125 1.84375 -0.703125q1.0 -0.265625 2.015625 -0.265625q2.046875 0 3.03125 0.90625q0.984375 0.890625 0.984375 2.890625l0 7.796875l-1.28125 0zm-3.90625 -1.21875q1.609375 0 2.53125 -0.875q0.921875 -0.890625 0.921875 -2.484375l0 -1.03125l-1.734375 0.0625q-2.0625 0.078125 -2.96875 0.65625q-0.90625 0.5625 -0.90625 1.75q0 0.9375 0.5625 1.4375q0.5625 0.484375 1.59375 0.484375zm10.471069 1.21875l-1.734375 0l0 -16.203125l1.734375 0l0 16.203125zm21.622375 -7.765625q0 3.78125 -2.046875 5.78125q-2.046875 1.984375 -5.890625 1.984375l-4.21875 0l0 -15.21875l4.671875 0q3.546875 0 5.515625 1.96875q1.96875 1.96875 1.96875 5.484375zm-1.875 0.0625q0 -2.96875 -1.5 -4.46875q-1.484375 -1.515625 -4.4375 -1.515625l-2.578125 0l0 12.15625l2.15625 0q3.171875 0 4.765625 -1.546875q1.59375 -1.5625 1.59375 -4.625zm9.829529 7.90625q-2.53125 0 -4.0 -1.53125q-1.453125 -1.546875 -1.453125 -4.28125q0 -2.765625 1.359375 -4.390625q1.359375 -1.625 3.640625 -1.625q2.15625 0 3.390625 1.421875q1.25 1.40625 1.25 3.71875l0 1.09375l-7.859375 0q0.0625 2.0 1.015625 3.046875q0.96875 1.046875 2.71875 1.046875q1.84375 0 3.640625 -0.78125l0 1.546875q-0.90625 0.390625 -1.734375 0.5625q-0.8125 0.171875 -1.96875 0.171875zm-0.46875 -10.375q-1.375 0 -2.203125 0.890625q-0.8125 0.890625 -0.953125 2.484375l5.96875 0q0 -1.640625 -0.734375 -2.5q-0.71875 -0.875 -2.078125 -0.875zm14.981445 7.0625q0 1.59375 -1.1875 2.453125q-1.1875 0.859375 -3.34375 0.859375q-2.265625 0 -3.53125 -0.71875l0 -1.59375q0.8125 0.40625 1.75 0.65625q0.953125 0.234375 1.828125 0.234375q1.359375 0 2.078125 -0.421875q0.734375 -0.4375 0.734375 -1.328125q0 -0.671875 -0.578125 -1.140625q-0.578125 -0.46875 -2.25 -1.125q-1.59375 -0.59375 -2.265625 -1.03125q-0.671875 -0.4375 -1.0 -1.0q-0.328125 -0.5625 -0.328125 -1.34375q0 -1.40625 1.125 -2.203125q1.140625 -0.8125 3.125 -0.8125q1.84375 0 3.59375 0.75l-0.609375 1.40625q-1.71875 -0.703125 -3.109375 -0.703125q-1.234375 0 -1.859375 0.390625q-0.625 0.375 -0.625 1.046875q0 0.46875 0.234375 0.796875q0.234375 0.3125 0.75 0.609375q0.53125 0.28125 2.0 0.84375q2.03125 0.734375 2.75 1.484375q0.71875 0.75 0.71875 1.890625zm4.5339966 3.109375l-1.734375 0l0 -11.40625l1.734375 0l0 11.40625zm-1.875 -14.5q0 -0.59375 0.28125 -0.875q0.296875 -0.28125 0.734375 -0.28125q0.421875 0 0.71875 0.28125q0.3125 0.28125 0.3125 0.875q0 0.578125 -0.3125 0.875q-0.296875 0.28125 -0.71875 0.28125q-0.4375 0 -0.734375 -0.28125q-0.28125 -0.296875 -0.28125 -0.875zm14.878906 3.09375l0 1.078125l-2.109375 0.25q0.296875 0.375 0.515625 0.96875q0.234375 0.578125 0.234375 1.3125q0 1.6875 -1.15625 2.6875q-1.140625 1.0 -3.140625 1.0q-0.5 0 -0.953125 -0.09375q-1.109375 0.59375 -1.109375 1.46875q0 0.46875 0.390625 0.703125q0.390625 0.21875 1.328125 0.21875l2.015625 0q1.859375 0 2.84375 0.78125q1.0 0.78125 1.0 2.265625q0 1.90625 -1.53125 2.890625q-1.515625 1.0 -4.421875 1.0q-2.25 0 -3.46875 -0.84375q-1.203125 -0.828125 -1.203125 -2.34375q0 -1.046875 0.65625 -1.8125q0.671875 -0.75 1.890625 -1.015625q-0.4375 -0.203125 -0.734375 -0.609375q-0.296875 -0.421875 -0.296875 -0.984375q0 -0.625 0.328125 -1.09375q0.328125 -0.46875 1.046875 -0.90625q-0.875 -0.359375 -1.4375 -1.234375q-0.5625 -0.875 -0.5625 -2.0q0 -1.875 1.125 -2.890625q1.125 -1.015625 3.1875 -1.015625q0.90625 0 1.625 0.21875l3.9375 0zm-9.09375 13.328125q0 0.921875 0.78125 1.390625q0.78125 0.484375 2.234375 0.484375q2.171875 0 3.21875 -0.65625q1.046875 -0.640625 1.046875 -1.75q0 -0.9375 -0.578125 -1.296875q-0.5625 -0.359375 -2.140625 -0.359375l-2.078125 0q-1.171875 0 -1.828125 0.5625q-0.65625 0.5625 -0.65625 1.625zm0.9375 -9.6875q0 1.203125 0.671875 1.828125q0.671875 0.609375 1.890625 0.609375q2.53125 0 2.53125 -2.46875q0 -2.5625 -2.5625 -2.5625q-1.21875 0 -1.875 0.65625q-0.65625 0.65625 -0.65625 1.9375zm18.309631 7.765625l0 -7.390625q0 -1.390625 -0.640625 -2.078125q-0.625 -0.6875 -1.984375 -0.6875q-1.78125 0 -2.625 0.96875q-0.828125 0.96875 -0.828125 3.203125l0 5.984375l-1.734375 0l0 -11.40625l1.40625 0l0.28125 1.546875l0.09375 0q0.53125 -0.828125 1.484375 -1.296875q0.953125 -0.46875 2.140625 -0.46875q2.0625 0 3.09375 1.0q1.046875 0.984375 1.046875 3.171875l0 7.453125l-1.734375 0zm10.106201 0.203125q-2.53125 0 -4.0 -1.53125q-1.453125 -1.546875 -1.453125 -4.28125q0 -2.765625 1.359375 -4.390625q1.359375 -1.625 3.640625 -1.625q2.15625 0 3.390625 1.421875q1.25 1.40625 1.25 3.71875l0 1.09375l-7.859375 0q0.0625 2.0 1.015625 3.046875q0.96875 1.046875 2.71875 1.046875q1.84375 0 3.640625 -0.78125l0 1.546875q-0.90625 0.390625 -1.734375 0.5625q-0.8125 0.171875 -1.96875 0.171875zm-0.46875 -10.375q-1.375 0 -2.203125 0.890625q-0.8125 0.890625 -0.953125 2.484375l5.96875 0q0 -1.640625 -0.734375 -2.5q-0.71875 -0.875 -2.078125 -0.875zm12.825195 -1.453125q0.75 0 1.359375 0.125l-0.234375 1.609375q-0.71875 -0.15625 -1.25 -0.15625q-1.390625 0 -2.375 1.125q-0.984375 1.125 -0.984375 2.796875l0 6.125l-1.734375 0l0 -11.40625l1.4375 0l0.1875 2.109375l0.09375 0q0.625 -1.125 1.515625 -1.71875q0.90625 -0.609375 1.984375 -0.609375z" fill-rule="nonzero"/><path fill="#000000" fill-opacity="0.0" d="m319.6168 457.063l286.61417 0l0 67.55902l-286.61417 0z" fill-rule="evenodd"/><path fill="#4285f4" d="m370.48404 505.74298l-3.4375 0l0 -26.453125l-9.34375 0l0 -3.046875l22.125 0l0 3.046875l-9.34375 0l0 26.453125zm22.613647 0.40625q-4.90625 0 -7.734375 -2.984375q-2.828125 -2.984375 -2.828125 -8.296875q0 -5.34375 2.625 -8.484375q2.640625 -3.15625 7.078125 -3.15625q4.15625 0 6.578125 2.734375q2.421875 2.734375 2.421875 7.203125l0 2.125l-15.234375 0q0.09375 3.890625 1.953125 5.921875q1.875 2.015625 5.265625 2.015625q3.578125 0 7.0625 -1.5l0 2.984375q-1.78125 0.765625 -3.359375 1.09375q-1.578125 0.34375 -3.828125 0.34375zm-0.90625 -20.125q-2.65625 0 -4.25 1.734375q-1.578125 1.734375 -1.859375 4.8125l11.5625 0q0 -3.171875 -1.421875 -4.859375q-1.40625 -1.6875 -4.03125 -1.6875zm28.358429 19.71875l-0.671875 -3.140625l-0.15625 0q-1.65625 2.078125 -3.3125 2.8125q-1.640625 0.734375 -4.09375 0.734375q-3.296875 0 -5.171875 -1.6875q-1.859375 -1.703125 -1.859375 -4.828125q0 -6.703125 10.71875 -7.03125l3.75 -0.125l0 -1.359375q0 -2.609375 -1.125 -3.84375q-1.109375 -1.25 -3.578125 -1.25q-2.75 0 -6.25 1.703125l-1.03125 -2.5625q1.640625 -0.890625 3.578125 -1.390625q1.953125 -0.515625 3.90625 -0.515625q3.96875 0 5.875 1.765625q1.90625 1.75 1.90625 5.625l0 15.09375l-2.484375 0zm-7.578125 -2.359375q3.140625 0 4.921875 -1.71875q1.78125 -1.71875 1.78125 -4.796875l0 -2.0l-3.34375 0.140625q-4.0 0.140625 -5.765625 1.25q-1.765625 1.09375 -1.765625 3.40625q0 1.8125 1.09375 2.765625q1.109375 0.953125 3.078125 0.953125zm45.156616 2.359375l0 -14.390625q0 -2.640625 -1.140625 -3.953125q-1.125 -1.328125 -3.515625 -1.328125q-3.125 0 -4.625 1.796875q-1.484375 1.796875 -1.484375 5.53125l0 12.34375l-3.34375 0l0 -14.390625q0 -2.640625 -1.140625 -3.953125q-1.125 -1.328125 -3.53125 -1.328125q-3.140625 0 -4.609375 1.890625q-1.453125 1.875 -1.453125 6.171875l0 11.609375l-3.359375 0l0 -22.109375l2.734375 0l0.546875 3.015625l0.15625 0q0.953125 -1.609375 2.671875 -2.515625q1.71875 -0.90625 3.859375 -0.90625q5.1875 0 6.78125 3.75l0.171875 0q0.984375 -1.734375 2.859375 -2.734375q1.875 -1.015625 4.28125 -1.015625q3.75 0 5.609375 1.921875q1.875 1.921875 1.875 6.171875l0 14.421875l-3.34375 0zm21.49054 0l0 -29.5l3.421875 0l0 26.390625l13.015625 0l0 3.109375l-16.4375 0zm30.279205 0.40625q-4.90625 0 -7.734375 -2.984375q-2.828125 -2.984375 -2.828125 -8.296875q0 -5.34375 2.625 -8.484375q2.640625 -3.15625 7.078125 -3.15625q4.1562805 0 6.5781555 2.734375q2.421875 2.734375 2.421875 7.203125l0 2.125l-15.2344055 0q0.09375 3.890625 1.953125 5.921875q1.875 2.015625 5.265625 2.015625q3.5781555 0 7.0625305 -1.5l0 2.984375q-1.78125 0.765625 -3.359375 1.09375q-1.578125 0.34375 -3.8281555 0.34375zm-0.90625 -20.125q-2.65625 0 -4.25 1.734375q-1.578125 1.734375 -1.859375 4.8125l11.5625305 0q0 -3.171875 -1.421875 -4.859375q-1.4062805 -1.6875 -4.0312805 -1.6875zm28.358429 19.71875l-0.671875 -3.140625l-0.15625 0q-1.65625 2.078125 -3.3125 2.8125q-1.640625 0.734375 -4.09375 0.734375q-3.296875 0 -5.171875 -1.6875q-1.859375 -1.703125 -1.859375 -4.828125q0 -6.703125 10.71875 -7.03125l3.75 -0.125l0 -1.359375q0 -2.609375 -1.125 -3.84375q-1.109375 -1.25 -3.578125 -1.25q-2.75 0 -6.25 1.703125l-1.03125 -2.5625q1.640625 -0.890625 3.578125 -1.390625q1.953125 -0.515625 3.90625 -0.515625q3.96875 0 5.875 1.765625q1.90625 1.75 1.90625 5.625l0 15.09375l-2.484375 0zm-7.578125 -2.359375q3.140625 0 4.921875 -1.71875q1.78125 -1.71875 1.78125 -4.796875l0 -2.0l-3.34375 0.140625q-4.0 0.140625 -5.765625 1.25q-1.765625 1.09375 -1.765625 3.40625q0 1.8125 1.09375 2.765625q1.109375 0.953125 3.078125 0.953125zm32.01599 -0.609375l-0.1875 0q-2.3125 3.375 -6.9375 3.375q-4.34375 0 -6.75 -2.96875q-2.40625 -2.96875 -2.40625 -8.4375q0 -5.46875 2.40625 -8.484375q2.421875 -3.03125 6.75 -3.03125q4.5 0 6.90625 3.265625l0.25 0l-0.140625 -1.59375l-0.078125 -1.5625l0 -9.0l3.359375 0l0 31.40625l-2.734375 0l-0.4375 -2.96875zm-6.703125 0.5625q3.4375 0 4.96875 -1.859375q1.546875 -1.875 1.546875 -6.03125l0 -0.703125q0 -4.703125 -1.5625 -6.703125q-1.5625 -2.015625 -5.0 -2.015625q-2.9375 0 -4.5 2.296875q-1.5625 2.28125 -1.5625 6.46875q0 4.234375 1.546875 6.390625q1.5625 2.15625 4.5625 2.15625z" fill-rule="nonzero"/><path fill="#000000" fill-opacity="0.0" d="m122.65879 473.7874l211.02362 0l0 50.834656l-211.02362 0z" fill-rule="evenodd"/><path fill="#46bdc6" d="m167.59715 489.02927l0 11.703125q0 3.078125 -1.875 4.859375q-1.859375 1.765625 -5.125 1.765625q-3.265625 0 -5.0625 -1.78125q-1.78125 -1.78125 -1.78125 -4.90625l0 -11.640625l2.109375 0l0 11.796875q0 2.265625 1.234375 3.484375q1.234375 1.203125 3.640625 1.203125q2.28125 0 3.515625 -1.21875q1.234375 -1.21875 1.234375 -3.5l0 -11.765625l2.109375 0zm4.783325 18.078125l0 -18.078125l2.109375 0l0 18.078125l-2.109375 0zm28.078583 -9.21875q0 4.484375 -2.4375 6.859375q-2.421875 2.359375 -6.984375 2.359375l-5.015625 0l0 -18.078125l5.546875 0q4.21875 0 6.546875 2.34375q2.34375 2.328125 2.34375 6.515625zm-2.234375 0.078125q0 -3.53125 -1.78125 -5.328125q-1.765625 -1.796875 -5.265625 -1.796875l-3.046875 0l0 14.453125l2.546875 0q3.765625 0 5.65625 -1.84375q1.890625 -1.859375 1.890625 -5.484375zm11.68306 9.390625q-3.015625 0 -4.75 -1.828125q-1.734375 -1.828125 -1.734375 -5.09375q0 -3.265625 1.609375 -5.1875q1.625 -1.9375 4.34375 -1.9375q2.546875 0 4.03125 1.671875q1.484375 1.671875 1.484375 4.421875l0 1.296875l-9.34375 0q0.0625 2.390625 1.203125 3.625q1.15625 1.234375 3.234375 1.234375q2.1875 0 4.328125 -0.921875l0 1.84375q-1.09375 0.46875 -2.0625 0.671875q-0.96875 0.203125 -2.34375 0.203125zm-0.5625 -12.328125q-1.625 0 -2.609375 1.0625q-0.96875 1.0625 -1.140625 2.9375l7.09375 0q0 -1.9375 -0.875 -2.96875q-0.859375 -1.03125 -2.46875 -1.03125zm12.006851 12.078125l-5.140625 -13.546875l2.203125 0l2.921875 8.03125q0.984375 2.8125 1.15625 3.65625l0.09375 0q0.140625 -0.65625 0.859375 -2.703125q0.734375 -2.0625 3.25 -8.984375l2.203125 0l-5.140625 13.546875l-2.40625 0zm15.454422 0.25q-3.015625 0 -4.75 -1.828125q-1.734375 -1.828125 -1.734375 -5.09375q0 -3.265625 1.609375 -5.1875q1.625 -1.9375 4.34375 -1.9375q2.546875 0 4.03125 1.671875q1.484375 1.671875 1.484375 4.421875l0 1.296875l-9.34375 0q0.0625 2.390625 1.203125 3.625q1.15625 1.234375 3.234375 1.234375q2.1875 0 4.328125 -0.921875l0 1.84375q-1.09375 0.46875 -2.0625 0.671875q-0.96875 0.203125 -2.34375 0.203125zm-0.5625 -12.328125q-1.625 0 -2.609375 1.0625q-0.96875 1.0625 -1.140625 2.9375l7.09375 0q0 -1.9375 -0.875 -2.96875q-0.859375 -1.03125 -2.46875 -1.03125zm11.100601 12.078125l-2.0625 0l0 -19.25l2.0625 0l0 19.25zm16.04686 -6.796875q0 3.328125 -1.671875 5.1875q-1.671875 1.859375 -4.609375 1.859375q-1.8124847 0 -3.2343597 -0.84375q-1.40625 -0.859375 -2.171875 -2.453125q-0.765625 -1.609375 -0.765625 -3.75q0 -3.3125 1.65625 -5.15625q1.65625 -1.84375 4.6093597 -1.84375q2.84375 0 4.515625 1.890625q1.671875 1.890625 1.671875 5.109375zm-10.32811 0q0 2.609375 1.03125 3.96875q1.046875 1.359375 3.0624847 1.359375q2.015625 0 3.0625 -1.359375q1.046875 -1.359375 1.046875 -3.96875q0 -2.578125 -1.046875 -3.921875q-1.046875 -1.34375 -3.078125 -1.34375q-2.0156097 0 -3.0468597 1.328125q-1.03125 1.328125 -1.03125 3.9375zm20.235764 7.046875q-1.328125 0 -2.421875 -0.484375q-1.09375 -0.5 -1.828125 -1.515625l-0.15625 0q0.15625 1.1875 0.15625 2.25l0 5.5781555l-2.0625 0l0 -19.62503l1.671875 0l0.28125 1.84375l0.109375 0q0.78125 -1.109375 1.828125 -1.59375q1.0625 -0.5 2.421875 -0.5q2.703125 0 4.15625 1.84375q1.46875 1.84375 1.46875 5.15625q0 3.34375 -1.5 5.203125q-1.484375 1.84375 -4.125 1.84375zm-0.296875 -12.3125q-2.078125 0 -3.015625 1.15625q-0.921875 1.15625 -0.9375 3.65625l0 0.453125q0 2.859375 0.953125 4.09375q0.953125 1.234375 3.046875 1.234375q1.765625 0 2.75 -1.421875q1.0 -1.421875 1.0 -3.921875q0 -2.53125 -1.0 -3.890625q-0.984375 -1.359375 -2.796875 -1.359375zm15.239655 12.3125q-3.015625 0 -4.75 -1.828125q-1.734375 -1.828125 -1.734375 -5.09375q0 -3.265625 1.609375 -5.1875q1.625 -1.9375 4.34375 -1.9375q2.546875 0 4.03125 1.671875q1.484375 1.671875 1.484375 4.421875l0 1.296875l-9.34375 0q0.0625 2.390625 1.203125 3.625q1.15625 1.234375 3.234375 1.234375q2.1875 0 4.328125 -0.921875l0 1.84375q-1.09375 0.46875 -2.0625 0.671875q-0.96875 0.203125 -2.34375 0.203125zm-0.5625 -12.328125q-1.625 0 -2.609375 1.0625q-0.96875 1.0625 -1.140625 2.9375l7.09375 0q0 -1.9375 -0.875 -2.96875q-0.859375 -1.03125 -2.46875 -1.03125zm15.225616 -1.71875q0.90625 0 1.625 0.140625l-0.28125 1.90625q-0.84375 -0.1875 -1.484375 -0.1875q-1.65625 0 -2.828125 1.34375q-1.15625 1.328125 -1.15625 3.328125l0 7.265625l-2.0625 0l0 -13.546875l1.703125 0l0.234375 2.5l0.09375 0q0.75 -1.328125 1.8125 -2.03125q1.078125 -0.71875 2.34375 -0.71875z" fill-rule="nonzero"/><path fill="#000000" fill-opacity="0.0" d="m307.60382 229.69762l203.9685 0l0 50.83464l-203.9685 0z" fill-rule="evenodd"/><path fill="#4285f4" d="m353.405 244.9395l0 11.70311q0 3.078125 -1.875 4.859375q-1.859375 1.765625 -5.125 1.765625q-3.265625 0 -5.0625 -1.78125q-1.78125 -1.78125 -1.78125 -4.90625l0 -11.64061l2.109375 0l0 11.79686q0 2.265625 1.234375 3.484375q1.234375 1.203125 3.640625 1.203125q2.28125 0 3.515625 -1.21875q1.234375 -1.21875 1.234375 -3.5l0 -11.76561l2.109375 0zm16.814575 18.07811l-2.390625 0l-4.859375 -7.9531097l-4.9375 7.9531097l-2.234375 0l6.015625 -9.45311l-5.609375 -8.625l2.328125 0l4.5 7.15625l4.515625 -7.15625l2.25 0l-5.609375 8.5625l6.03125 9.51561zm17.16623 0l-6.125 -16.031235l-0.109375 0q0.171875 1.90625 0.171875 4.53125l0 11.499985l-1.9375 0l0 -18.07811l3.171875 0l5.71875 14.906235l0.109375 0l5.765625 -14.906235l3.140625 0l0 18.07811l-2.09375 0l0 -11.656235q0 -2.0 0.171875 -4.34375l-0.109375 0l-6.171875 15.999985l-1.703125 0zm22.898285 0l-0.40625 -1.921875l-0.109375 0q-1.015625 1.265625 -2.03125 1.71875q-1.0 0.453125 -2.5 0.453125q-2.015625 0 -3.171875 -1.03125q-1.140625 -1.046875 -1.140625 -2.96875q0 -4.1093597 6.578125 -4.2968597l2.296875 -0.078125l0 -0.84375q0 -1.59375 -0.6875 -2.34375q-0.6875 -0.765625 -2.203125 -0.765625q-1.6875 0 -3.828125 1.03125l-0.625 -1.5625q1.0 -0.546875 2.1875 -0.859375q1.203125 -0.3125 2.390625 -0.3125q2.4375 0 3.59375 1.078125q1.171875 1.078125 1.171875 3.453125l0 9.249985l-1.515625 0zm-4.640625 -1.453125q1.921875 0 3.015625 -1.046875q1.09375 -1.046875 1.09375 -2.9375l0 -1.234375l-2.0625 0.09375q-2.4375 0.078125 -3.53125 0.765625q-1.078125 0.671875 -1.078125 2.09375q0 1.109375 0.671875 1.6875q0.671875 0.578125 1.890625 0.578125zm19.664429 1.453125l0 -8.76561q0 -1.65625 -0.765625 -2.46875q-0.75 -0.828125 -2.359375 -0.828125q-2.125 0 -3.109375 1.15625q-0.984375 1.15625 -0.984375 3.796875l0 7.1093597l-2.0625 0l0 -13.54686l1.671875 0l0.34375 1.84375l0.09375 0q0.625 -1.0 1.765625 -1.546875q1.140625 -0.546875 2.53125 -0.546875q2.453125 0 3.6875 1.1875q1.234375 1.171875 1.234375 3.765625l0 8.843735l-2.046875 0zm14.608154 0l-0.40625 -1.921875l-0.109375 0q-1.015625 1.265625 -2.03125 1.71875q-1.0 0.453125 -2.5 0.453125q-2.015625 0 -3.171875 -1.03125q-1.140625 -1.046875 -1.140625 -2.96875q0 -4.1093597 6.578125 -4.2968597l2.296875 -0.078125l0 -0.84375q0 -1.59375 -0.6875 -2.34375q-0.6875 -0.765625 -2.203125 -0.765625q-1.6875 0 -3.828125 1.03125l-0.625 -1.5625q1.0 -0.546875 2.1875 -0.859375q1.203125 -0.3125 2.390625 -0.3125q2.4375 0 3.59375 1.078125q1.171875 1.078125 1.171875 3.453125l0 9.249985l-1.515625 0zm-4.640625 -1.453125q1.921875 0 3.015625 -1.046875q1.09375 -1.046875 1.09375 -2.9375l0 -1.234375l-2.0625 0.09375q-2.4375 0.078125 -3.53125 0.765625q-1.078125 0.671875 -1.078125 2.09375q0 1.109375 0.671875 1.6875q0.671875 0.578125 1.890625 0.578125zm21.476929 -12.093735l0 1.296875l-2.5 0.296875q0.34375 0.421875 0.609375 1.125q0.28125 0.703125 0.28125 1.578125q0 1.984375 -1.375 3.1718597q-1.359375 1.1875 -3.734375 1.1875q-0.59375 0 -1.125 -0.09375q-1.3125 0.6875 -1.3125 1.75q0 0.546875 0.453125 0.8125q0.453125 0.265625 1.578125 0.265625l2.390625 0q2.203125 0 3.375 0.9375q1.1875 0.921875 1.1875 2.6875q0 2.25 -1.8125 3.421875q-1.796875 1.1875 -5.265625 1.1875q-2.65625 0 -4.09375 -0.984375q-1.4375 -0.984375 -1.4375 -2.796875q0 -1.234375 0.78125 -2.140625q0.796875 -0.890625 2.234375 -1.21875q-0.515625 -0.234375 -0.875 -0.71875q-0.34375 -0.5 -0.34375 -1.15625q0 -0.75 0.390625 -1.296875q0.390625 -0.5625 1.25 -1.078125q-1.046875 -0.4375 -1.71875 -1.46875q-0.65625 -1.0468597 -0.65625 -2.3906097q0 -2.21875 1.328125 -3.421875q1.34375 -1.203125 3.796875 -1.203125q1.0625 0 1.90625 0.25l4.6875 0zm-10.796875 15.82811q0 1.09375 0.921875 1.65625q0.921875 0.578125 2.65625 0.578125q2.578125 0 3.828125 -0.78125q1.25 -0.765625 1.25 -2.09375q0 -1.09375 -0.6875 -1.53125q-0.6875 -0.421875 -2.5625 -0.421875l-2.453125 0q-1.40625 0 -2.1875 0.671875q-0.765625 0.671875 -0.765625 1.921875zm1.109375 -11.499985q0 1.421875 0.796875 2.15625q0.8125 0.73435974 2.234375 0.73435974q3.015625 0 3.015625 -2.9218597q0 -3.0625 -3.046875 -3.0625q-1.453125 0 -2.234375 0.78125q-0.765625 0.78125 -0.765625 2.3125zm18.204163 9.468735q-3.015625 0 -4.75 -1.828125q-1.734375 -1.828125 -1.734375 -5.09375q0 -3.2656097 1.609375 -5.1874847q1.625 -1.9375 4.34375 -1.9375q2.546875 0 4.03125 1.671875q1.484375 1.671875 1.484375 4.421875l0 1.2968597l-9.34375 0q0.0625 2.390625 1.203125 3.625q1.15625 1.234375 3.234375 1.234375q2.1875 0 4.328125 -0.921875l0 1.84375q-1.09375 0.46875 -2.0625 0.671875q-0.96875 0.203125 -2.34375 0.203125zm-0.5625 -12.32811q-1.625 0 -2.609375 1.0625q-0.96875 1.0625 -1.140625 2.9375l7.09375 0q0 -1.9375 -0.875 -2.96875q-0.859375 -1.03125 -2.46875 -1.03125zm15.225616 -1.71875q0.90625 0 1.625 0.140625l-0.28125 1.90625q-0.84375 -0.1875 -1.484375 -0.1875q-1.65625 0 -2.828125 1.34375q-1.15625 1.328125 -1.15625 3.328125l0 7.2656097l-2.0625 0l0 -13.54686l1.703125 0l0.234375 2.5l0.09375 0q0.75 -1.328125 1.8125 -2.03125q1.078125 -0.71875 2.34375 -0.71875z" fill-rule="nonzero"/><path fill="#000000" fill-opacity="0.0" d="m612.9711 465.4252l335.49603 0l0 50.834625l-335.49603 0z" fill-rule="evenodd"/><path fill="#46bdc6" d="m655.185 490.76645q0 3.90625 -2.671875 6.015625q-2.65625 2.09375 -7.609375 2.09375l-3.03125 0l0 10.109375l-2.984375 0l0 -25.703125l6.671875 0q9.625 0 9.625 7.484375zm-13.3125 5.546875l2.703125 0q3.96875 0 5.734375 -1.28125q1.78125 -1.28125 1.78125 -4.125q0 -2.546875 -1.671875 -3.78125q-1.671875 -1.25 -5.203125 -1.25l-3.34375 0l0 10.4375zm27.048828 -6.953125q1.28125 0 2.296875 0.21875l-0.40625 2.703125q-1.1875 -0.265625 -2.109375 -0.265625q-2.34375 0 -4.0 1.90625q-1.65625 1.890625 -1.65625 4.71875l0 10.34375l-2.921875 0l0 -19.265625l2.40625 0l0.34375 3.5625l0.140625 0q1.0625 -1.875 2.578125 -2.890625q1.515625 -1.03125 3.328125 -1.03125zm22.523438 9.96875q0 4.71875 -2.375 7.375q-2.359375 2.640625 -6.546875 2.640625q-2.59375 0 -4.59375 -1.21875q-2.0 -1.21875 -3.09375 -3.484375q-1.09375 -2.265625 -1.09375 -5.3125q0 -4.703125 2.359375 -7.328125q2.359375 -2.640625 6.546875 -2.640625q4.03125 0 6.40625 2.703125q2.390625 2.6875 2.390625 7.265625zm-14.671875 0q0 3.703125 1.46875 5.640625q1.484375 1.921875 4.34375 1.921875q2.875 0 4.359375 -1.921875q1.484375 -1.921875 1.484375 -5.640625q0 -3.671875 -1.484375 -5.578125q-1.484375 -1.90625 -4.390625 -1.90625q-2.859375 0 -4.328125 1.890625q-1.453125 1.875 -1.453125 5.59375zm32.90039 7.078125l-0.15625 0q-2.015625 2.9375 -6.046875 2.9375q-3.78125 0 -5.890625 -2.578125q-2.09375 -2.59375 -2.09375 -7.359375q0 -4.765625 2.109375 -7.40625q2.109375 -2.640625 5.875 -2.640625q3.921875 0 6.015625 2.859375l0.234375 0l-0.125 -1.390625l-0.078125 -1.359375l0 -7.84375l2.921875 0l0 27.359375l-2.375 0l-0.390625 -2.578125zm-5.828125 0.484375q2.984375 0 4.328125 -1.625q1.34375 -1.625 1.34375 -5.25l0 -0.609375q0 -4.09375 -1.359375 -5.84375q-1.359375 -1.75 -4.34375 -1.75q-2.578125 0 -3.9375 2.0q-1.359375 1.984375 -1.359375 5.625q0 3.6875 1.34375 5.578125q1.359375 1.875 3.984375 1.875zm17.529297 -17.171875l0 12.5q0 2.359375 1.0625 3.515625q1.078125 1.15625 3.359375 1.15625q3.03125 0 4.421875 -1.640625q1.390625 -1.65625 1.390625 -5.40625l0 -10.125l2.921875 0l0 19.265625l-2.40625 0l-0.421875 -2.578125l-0.15625 0q-0.890625 1.421875 -2.484375 2.1875q-1.59375 0.75 -3.640625 0.75q-3.515625 0 -5.265625 -1.671875q-1.734375 -1.671875 -1.734375 -5.34375l0 -12.609375l2.953125 0zm27.048828 19.625q-4.1875 0 -6.484375 -2.578125q-2.296875 -2.578125 -2.296875 -7.296875q0 -4.828125 2.328125 -7.46875q2.34375 -2.640625 6.640625 -2.640625q1.390625 0 2.78125 0.3125q1.390625 0.296875 2.171875 0.703125l-0.890625 2.46875q-0.96875 -0.390625 -2.109375 -0.640625q-1.140625 -0.25 -2.015625 -0.25q-5.875 0 -5.875 7.484375q0 3.546875 1.421875 5.453125q1.4375 1.890625 4.25 1.890625q2.40625 0 4.9375 -1.03125l0 2.578125q-1.921875 1.015625 -4.859375 1.015625zm15.654297 -2.421875q0.78125 0 1.5 -0.109375q0.71875 -0.109375 1.140625 -0.234375l0 2.234375q-0.46875 0.21875 -1.390625 0.375q-0.921875 0.15625 -1.671875 0.15625q-5.578125 0 -5.578125 -5.890625l0 -11.46875l-2.765625 0l0 -1.40625l2.765625 -1.21875l1.21875 -4.109375l1.6875 0l0 4.46875l5.59375 0l0 2.265625l-5.59375 0l0 11.34375q0 1.734375 0.828125 2.671875q0.828125 0.921875 2.265625 0.921875zm27.654297 2.0625l-8.71875 -22.78125l-0.140625 0q0.25 2.703125 0.25 6.4375l0 16.34375l-2.765625 0l0 -25.703125l4.5 0l8.140625 21.203125l0.140625 0l8.203125 -21.203125l4.46875 0l0 25.703125l-2.984375 0l0 -16.5625q0 -2.84375 0.25 -6.1875l-0.140625 0l-8.796875 22.75l-2.40625 0zm32.533203 0l-0.578125 -2.75l-0.140625 0q-1.4375 1.8125 -2.875 2.46875q-1.421875 0.640625 -3.578125 0.640625q-2.859375 0 -4.484375 -1.484375q-1.625 -1.484375 -1.625 -4.203125q0 -5.828125 9.328125 -6.109375l3.265625 -0.109375l0 -1.203125q0 -2.265625 -0.96875 -3.34375q-0.96875 -1.078125 -3.125 -1.078125q-2.40625 0 -5.4375 1.46875l-0.90625 -2.234375q1.421875 -0.765625 3.109375 -1.203125q1.703125 -0.4375 3.421875 -0.4375q3.4375 0 5.09375 1.53125q1.671875 1.515625 1.671875 4.890625l0 13.15625l-2.171875 0zm-6.59375 -2.0625q2.734375 0 4.28125 -1.484375q1.5625 -1.5 1.5625 -4.1875l0 -1.734375l-2.921875 0.109375q-3.484375 0.125 -5.015625 1.09375q-1.53125 0.953125 -1.53125 2.96875q0 1.59375 0.953125 2.421875q0.953125 0.8125 2.671875 0.8125zm27.958984 2.0625l0 -12.46875q0 -2.34375 -1.078125 -3.5q-1.0625 -1.171875 -3.359375 -1.171875q-3.015625 0 -4.421875 1.640625q-1.40625 1.625 -1.40625 5.390625l0 10.109375l-2.921875 0l0 -19.265625l2.375 0l0.46875 2.640625l0.140625 0q0.90625 -1.421875 2.515625 -2.203125q1.625 -0.796875 3.609375 -0.796875q3.484375 0 5.234375 1.6875q1.765625 1.671875 1.765625 5.375l0 12.5625l-2.921875 0zm20.751953 0l-0.578125 -2.75l-0.140625 0q-1.4375 1.8125 -2.875 2.46875q-1.421875 0.640625 -3.578125 0.640625q-2.859375 0 -4.484375 -1.484375q-1.625 -1.484375 -1.625 -4.203125q0 -5.828125 9.328125 -6.109375l3.265625 -0.109375l0 -1.203125q0 -2.265625 -0.96875 -3.34375q-0.96875 -1.078125 -3.125 -1.078125q-2.40625 0 -5.4375 1.46875l-0.90625 -2.234375q1.421875 -0.765625 3.109375 -1.203125q1.703125 -0.4375 3.421875 -0.4375q3.4375 0 5.09375 1.53125q1.671875 1.515625 1.671875 4.890625l0 13.15625l-2.171875 0zm-6.59375 -2.0625q2.734375 0 4.28125 -1.484375q1.5625 -1.5 1.5625 -4.1875l0 -1.734375l-2.921875 0.109375q-3.484375 0.125 -5.015625 1.09375q-1.53125 0.953125 -1.53125 2.96875q0 1.59375 0.953125 2.421875q0.953125 0.8125 2.671875 0.8125zm30.53711 -17.203125l0 1.84375l-3.5625 0.421875q0.484375 0.609375 0.875 1.609375q0.390625 1.0 0.390625 2.234375q0 2.84375 -1.9375 4.53125q-1.9375 1.6875 -5.3125 1.6875q-0.859375 0 -1.609375 -0.140625q-1.859375 0.984375 -1.859375 2.46875q0 0.796875 0.640625 1.171875q0.65625 0.375 2.234375 0.375l3.40625 0q3.140625 0 4.8125 1.328125q1.671875 1.3125 1.671875 3.828125q0 3.2030945 -2.5625 4.8749695q-2.5625 1.6875 -7.484375 1.6875q-3.78125 0 -5.828125 -1.40625q-2.046875 -1.40625 -2.046875 -3.984375q0 -1.7499695 1.125 -3.0468445q1.125 -1.28125 3.15625 -1.734375q-0.734375 -0.328125 -1.234375 -1.03125q-0.5 -0.703125 -0.5 -1.640625q0 -1.046875 0.5625 -1.84375q0.5625 -0.796875 1.78125 -1.53125q-1.5 -0.609375 -2.4375 -2.078125q-0.9375 -1.484375 -0.9375 -3.390625q0 -3.15625 1.890625 -4.875q1.90625 -1.71875 5.375 -1.71875q1.515625 0 2.734375 0.359375l6.65625 0zm-15.359375 22.49997q0 1.5625 1.3125 2.375q1.328125 0.8125 3.78125 0.8125q3.671875 0 5.4375 -1.109375q1.765625 -1.09375 1.765625 -2.9687195q0 -1.5625 -0.96875 -2.171875q-0.953125 -0.609375 -3.625 -0.609375l-3.5 0q-1.984375 0 -3.09375 0.9375q-1.109375 0.953125 -1.109375 2.7343445zm1.578125 -16.328094q0 2.015625 1.140625 3.0625q1.140625 1.03125 3.1875 1.03125q4.265625 0 4.265625 -4.15625q0 -4.328125 -4.3125 -4.328125q-2.0625 0 -3.171875 1.109375q-1.109375 1.09375 -1.109375 3.28125zm25.878906 13.453125q-4.265625 0 -6.75 -2.609375q-2.46875 -2.609375 -2.46875 -7.21875q0 -4.671875 2.296875 -7.40625q2.296875 -2.75 6.171875 -2.75q3.609375 0 5.71875 2.390625q2.109375 2.375 2.109375 6.28125l0 1.84375l-13.265625 0q0.09375 3.390625 1.71875 5.15625q1.625 1.75 4.578125 1.75q3.109375 0 6.140625 -1.296875l0 2.609375q-1.546875 0.65625 -2.921875 0.953125q-1.375 0.296875 -3.328125 0.296875zm-0.796875 -17.53125q-2.3125 0 -3.703125 1.515625q-1.375 1.5 -1.625 4.171875l10.078125 0q0 -2.75 -1.234375 -4.21875q-1.21875 -1.46875 -3.515625 -1.46875zm21.65039 -2.453125q1.28125 0 2.296875 0.21875l-0.40625 2.703125q-1.1875 -0.265625 -2.109375 -0.265625q-2.34375 0 -4.0 1.90625q-1.65625 1.890625 -1.65625 4.71875l0 10.34375l-2.921875 0l0 -19.265625l2.40625 0l0.34375 3.5625l0.140625 0q1.0625 -1.875 2.578125 -2.890625q1.515625 -1.03125 3.328125 -1.03125z" fill-rule="nonzero"/><path fill="#000000" fill-opacity="0.0" d="m414.23883 11.700788l253.35437 0l0 50.83465l-253.35437 0z" fill-rule="evenodd"/><path fill="#46bdc6" d="m456.61133 39.780163q0 5.65625 -3.078125 8.65625q-3.0625 2.984375 -8.828125 2.984375l-6.328125 0l0 -22.84375l7.0 0q5.328125 0 8.28125 2.953125q2.953125 2.953125 2.953125 8.25zm-2.8125 0.09375q0 -4.46875 -2.25 -6.734375q-2.234375 -2.265625 -6.65625 -2.265625l-3.859375 0l0 18.25l3.234375 0q4.75 0 7.140625 -2.328125q2.390625 -2.34375 2.390625 -6.921875zm18.046875 11.546875l-0.515625 -2.4375l-0.125 0q-1.28125 1.609375 -2.5625 2.1875q-1.265625 0.5625 -3.171875 0.5625q-2.546875 0 -4.0 -1.3125q-1.4375 -1.3125 -1.4375 -3.734375q0 -5.1875 8.296875 -5.4375l2.90625 -0.09375l0 -1.0625q0 -2.015625 -0.875 -2.96875q-0.859375 -0.96875 -2.765625 -0.96875q-2.140625 0 -4.84375 1.3125l-0.796875 -1.984375q1.265625 -0.6875 2.765625 -1.078125q1.515625 -0.390625 3.03125 -0.390625q3.0625 0 4.53125 1.359375q1.484375 1.359375 1.484375 4.359375l0 11.6875l-1.921875 0zm-5.859375 -1.828125q2.421875 0 3.796875 -1.328125q1.390625 -1.328125 1.390625 -3.71875l0 -1.546875l-2.59375 0.109375q-3.09375 0.109375 -4.46875 0.96875q-1.359375 0.84375 -1.359375 2.640625q0 1.40625 0.84375 2.140625q0.859375 0.734375 2.390625 0.734375zm18.65625 0q0.6875 0 1.328125 -0.09375q0.640625 -0.109375 1.015625 -0.21875l0 1.984375q-0.421875 0.203125 -1.25 0.328125q-0.8125 0.140625 -1.46875 0.140625q-4.96875 0 -4.96875 -5.234375l0 -10.1875l-2.453125 0l0 -1.25l2.453125 -1.078125l1.09375 -3.65625l1.5 0l0 3.96875l4.96875 0l0 2.015625l-4.96875 0l0 10.078125q0 1.546875 0.734375 2.375q0.734375 0.828125 2.015625 0.828125zm16.296875 1.828125l-0.515625 -2.4375l-0.125 0q-1.28125 1.609375 -2.5625 2.1875q-1.265625 0.5625 -3.171875 0.5625q-2.546875 0 -4.0 -1.3125q-1.4375 -1.3125 -1.4375 -3.734375q0 -5.1875 8.296875 -5.4375l2.90625 -0.09375l0 -1.0625q0 -2.015625 -0.875 -2.96875q-0.859375 -0.96875 -2.765625 -0.96875q-2.140625 0 -4.84375 1.3125l-0.796875 -1.984375q1.265625 -0.6875 2.765625 -1.078125q1.515625 -0.390625 3.03125 -0.390625q3.0625 0 4.53125 1.359375q1.484375 1.359375 1.484375 4.359375l0 11.6875l-1.921875 0zm-5.859375 -1.828125q2.421875 0 3.796875 -1.328125q1.390625 -1.328125 1.390625 -3.71875l0 -1.546875l-2.59375 0.109375q-3.09375 0.109375 -4.46875 0.96875q-1.359375 0.84375 -1.359375 2.640625q0 1.40625 0.84375 2.140625q0.859375 0.734375 2.390625 0.734375zm40.0625 -9.8125q0 5.65625 -3.078125 8.65625q-3.0625 2.984375 -8.828125 2.984375l-6.328125 0l0 -22.84375l7.0 0q5.328125 0 8.28125 2.953125q2.953125 2.953125 2.953125 8.25zm-2.8125 0.09375q0 -4.46875 -2.25 -6.734375q-2.234375 -2.265625 -6.65625 -2.265625l-3.859375 0l0 18.25l3.234375 0q4.75 0 7.140625 -2.328125q2.390625 -2.34375 2.390625 -6.921875zm14.75 11.859375q-3.796875 0 -6.0 -2.3125q-2.1875 -2.3125 -2.1875 -6.421875q0 -4.140625 2.03125 -6.578125q2.046875 -2.4375 5.484375 -2.4375q3.21875 0 5.09375 2.125q1.875 2.109375 1.875 5.578125l0 1.640625l-11.796875 0q0.078125 3.015625 1.515625 4.578125q1.453125 1.5625 4.078125 1.5625q2.765625 0 5.46875 -1.15625l0 2.3125q-1.375 0.59375 -2.609375 0.84375q-1.21875 0.265625 -2.953125 0.265625zm-0.703125 -15.578125q-2.0625 0 -3.296875 1.34375q-1.21875 1.34375 -1.4375 3.71875l8.953125 0q0 -2.453125 -1.09375 -3.75q-1.09375 -1.3125 -3.125 -1.3125zm22.46875 10.59375q0 2.390625 -1.78125 3.6875q-1.78125 1.296875 -5.0 1.296875q-3.40625 0 -5.3125 -1.078125l0 -2.40625q1.234375 0.625 2.640625 0.984375q1.421875 0.359375 2.734375 0.359375q2.03125 0 3.125 -0.640625q1.09375 -0.65625 1.09375 -1.984375q0 -1.0 -0.875 -1.703125q-0.859375 -0.71875 -3.375 -1.6875q-2.390625 -0.890625 -3.40625 -1.546875q-1.0 -0.671875 -1.5 -1.515625q-0.484375 -0.84375 -0.484375 -2.015625q0 -2.09375 1.703125 -3.296875q1.703125 -1.21875 4.671875 -1.21875q2.765625 0 5.40625 1.125l-0.921875 2.109375q-2.578125 -1.0625 -4.671875 -1.0625q-1.84375 0 -2.78125 0.578125q-0.9375 0.578125 -0.9375 1.59375q0 0.6875 0.34375 1.171875q0.359375 0.484375 1.140625 0.921875q0.78125 0.4375 3.0 1.265625q3.046875 1.109375 4.109375 2.234375q1.078125 1.125 1.078125 2.828125zm6.8125 4.671875l-2.59375 0l0 -17.125l2.59375 0l0 17.125zm-2.8125 -21.765625q0 -0.890625 0.4375 -1.296875q0.4375 -0.421875 1.09375 -0.421875q0.625 0 1.078125 0.421875q0.453125 0.421875 0.453125 1.296875q0 0.875 -0.453125 1.3125q-0.453125 0.421875 -1.078125 0.421875q-0.65625 0 -1.09375 -0.421875q-0.4375 -0.4375 -0.4375 -1.3125zm22.328125 4.640625l0 1.640625l-3.171875 0.375q0.4375 0.546875 0.78125 1.4375q0.34375 0.875 0.34375 1.984375q0 2.515625 -1.71875 4.015625q-1.71875 1.5 -4.71875 1.5q-0.765625 0 -1.4375 -0.125q-1.65625 0.875 -1.65625 2.203125q0 0.703125 0.578125 1.046875q0.578125 0.328125 1.984375 0.328125l3.03125 0q2.78125 0 4.265625 1.171875q1.5 1.171875 1.5 3.40625q0 2.84375 -2.28125 4.328125q-2.28125 1.5 -6.65625 1.5q-3.359375 0 -5.1875 -1.25q-1.8125 -1.25 -1.8125 -3.53125q0 -1.5625 1.0 -2.703125q1.0 -1.140625 2.8125 -1.546875q-0.65625 -0.296875 -1.109375 -0.921875q-0.4375 -0.625 -0.4375 -1.453125q0 -0.9375 0.5 -1.640625q0.5 -0.703125 1.578125 -1.359375q-1.328125 -0.546875 -2.171875 -1.859375q-0.828125 -1.3125 -0.828125 -3.0q0 -2.8125 1.6875 -4.328125q1.6875 -1.53125 4.78125 -1.53125q1.34375 0 2.421875 0.3125l5.921875 0zm-13.65625 20.0q0 1.390625 1.171875 2.109375q1.171875 0.71875 3.359375 0.71875q3.265625 0 4.828125 -0.984375q1.578125 -0.96875 1.578125 -2.640625q0 -1.390625 -0.859375 -1.9375q-0.859375 -0.53125 -3.234375 -0.53125l-3.109375 0q-1.765625 0 -2.75 0.84375q-0.984375 0.84375 -0.984375 2.421875zm1.40625 -14.515625q0 1.796875 1.015625 2.71875q1.015625 0.921875 2.828125 0.921875q3.796875 0 3.796875 -3.6875q0 -3.859375 -3.84375 -3.859375q-1.828125 0 -2.8125 0.984375q-0.984375 0.984375 -0.984375 2.921875zm27.484375 11.640625l0 -11.078125q0 -2.09375 -0.953125 -3.125q-0.953125 -1.03125 -2.984375 -1.03125q-2.6875 0 -3.9375 1.453125q-1.25 1.453125 -1.25 4.796875l0 8.984375l-2.59375 0l0 -17.125l2.109375 0l0.421875 2.34375l0.125 0q0.796875 -1.265625 2.234375 -1.953125q1.4375 -0.703125 3.203125 -0.703125q3.09375 0 4.65625 1.5q1.5625 1.484375 1.5625 4.765625l0 11.171875l-2.59375 0zm15.15625 0.3125q-3.796875 0 -6.0 -2.3125q-2.1875 -2.3125 -2.1875 -6.421875q0 -4.140625 2.03125 -6.578125q2.046875 -2.4375 5.484375 -2.4375q3.21875 0 5.09375 2.125q1.875 2.109375 1.875 5.578125l0 1.640625l-11.796875 0q0.078125 3.015625 1.515625 4.578125q1.453125 1.5625 4.078125 1.5625q2.765625 0 5.46875 -1.15625l0 2.3125q-1.375 0.59375 -2.609375 0.84375q-1.21875 0.265625 -2.953125 0.265625zm-0.703125 -15.578125q-2.0625 0 -3.296875 1.34375q-1.21875 1.34375 -1.4375 3.71875l8.953125 0q0 -2.453125 -1.09375 -3.75q-1.09375 -1.3125 -3.125 -1.3125zm19.234375 -2.171875q1.140625 0 2.046875 0.1875l-0.359375 2.40625q-1.0625 -0.234375 -1.875 -0.234375q-2.078125 0 -3.5625 1.6875q-1.46875 1.6875 -1.46875 4.203125l0 9.1875l-2.59375 0l0 -17.125l2.140625 0l0.296875 3.171875l0.125 0q0.953125 -1.671875 2.296875 -2.578125q1.34375 -0.90625 2.953125 -0.90625z" fill-rule="nonzero"/></g></svg>